<?xml version="1.0" standalone="no"?>
<!DOCTYPE svg PUBLIC "-//W3C//DTD SVG 1.1//EN" "http://www.w3.org/Graphics/SVG/1.1/DTD/svg11.dtd" >
<svg xmlns="http://www.w3.org/2000/svg" xmlns:xlink="http://www.w3.org/1999/xlink" version="1.1">
<metadata>
Created by FontForge 20150318 at Fri Jun  5 18:12:02 2015
 By uniteet7
Copyright (c) 1995 ParaGraph Intl., (c) 1998 ParaType Inc., ParaType Ltd. All rights reserved.
</metadata>
<defs>
<font id="FuturaPTMedium" horiz-adv-x="500" >
  <font-face 
    font-family="FuturaPTMedium"
    font-weight="400"
    font-stretch="normal"
    units-per-em="1000"
    panose-1="2 11 6 2 2 2 4 2 3 3"
    ascent="763"
    descent="-237"
    x-height="421"
    cap-height="667"
    bbox="-362 -270 1167 935"
    underline-thickness="50"
    underline-position="-50"
    unicode-range="U+0020-FB02"
  />
<missing-glyph 
d="M58 8h384v496h-384v-496zM50 0v512h400v-512h-400z" />
    <glyph glyph-name="afii10017.var.accented" unicode="&#x410;`" horiz-adv-x="656" 
d="M542 0l-70 161h-285l-73 -161h-110l332 706l316 -706h-110zM229 257h202l-99 226zM312 727l-48 40l138 139l86 -60z" />
    <glyph glyph-name="afii10022.var.accented" unicode="&#x415;`" 
d="M448 667v-96h-266v-169h258v-96h-258v-210h266v-96h-368v667h368zM234 727l-48 40l138 139l86 -60z" />
    <glyph glyph-name="afii10026.var.accented" unicode="&#x418;`" horiz-adv-x="712" 
d="M530 0v449l-450 -479v697h102v-451l450 479v-695h-102zM340 727l-48 40l138 139l86 -60z" />
    <glyph glyph-name="afii10032.var.accented" unicode="&#x41e;`" horiz-adv-x="790" 
d="M395 679q149 0 248 -99t99 -247t-99 -247t-248 -99t-248 99t-99 247t99 247t248 99zM395 81q108 0 176.5 70.5t68.5 181.5t-68.5 181.5t-176.5 70.5t-176.5 -70.5t-68.5 -181.5t68.5 -181.5t176.5 -70.5zM379 727l-48 40l138 139l86 -60z" />
    <glyph glyph-name="afii10037.var.accented" unicode="&#x423;`" horiz-adv-x="570" 
d="M6 667h124l172 -356l156 356h106l-301 -667h-106l86 189zM269 727l-48 40l138 139l86 -60z" />
    <glyph glyph-name="afii10045.var.accented" unicode="&#x42b;`" horiz-adv-x="740" 
d="M80 0v667h102v-269h76q108 0 167 -53q63 -53 63 -147q0 -48 -21.5 -91.5t-61.5 -70.5q-54 -36 -146 -36h-179zM182 302v-206h72q134 0 134 101q0 44 -29.5 74.5t-102.5 30.5h-74zM558 667h102v-667h-102v667zM354 727l-48 40l138 139l86 -60z" />
    <glyph glyph-name="afii10047.var.accented" unicode="&#x42d;`" horiz-adv-x="622" 
d="M48 511v120q84 48 193 48q146 0 234 -87q99 -99 99 -258q0 -157 -99 -256q-91 -91 -237 -91q-104 0 -190 50v121q77 -77 190 -77q102 0 162 60q59 59 68 149h-330v96h328q-10 83 -61 135q-62 64 -166 64q-110 0 -191 -74zM239 727l-48 40l138 139l86 -60z" />
    <glyph glyph-name="afii10048.var.accented" unicode="&#x42e;`" horiz-adv-x="1000" 
d="M182 402h100q19 106 89 178q99 99 244 99q146 0 241.5 -99t95.5 -247t-96 -247t-241 -99q-91 0 -156.5 34t-104.5 83q-68 86 -72 202h-100v-306h-102v667h102v-265zM615 81q104 0 169.5 70.5t65.5 181.5t-65.5 181.5t-169.5 70.5t-169.5 -70.5t-65.5 -181.5t65.5 -181.5
t169.5 -70.5zM484 727l-48 40l138 139l86 -60z" />
    <glyph glyph-name="afii10049.var.accented" unicode="&#x42f;`" horiz-adv-x="534" 
d="M20 0l198 278q-59 7 -103 45q-57 50 -57 142q0 83 51 139q27 29 64 44t60 17t57 2h164v-667h-102v267h-24l-182 -267h-126zM352 573h-50q-83 0 -114 -31q-32 -29 -32 -77q0 -54 38 -80q34 -24 102 -24h56v212zM251 727l-48 40l138 139l86 -60z" />
    <glyph glyph-name="afii10023.var.accented" unicode="&#x401;`" 
d="M448 667v-96h-266v-169h258v-96h-258v-210h266v-96h-368v667h368zM219 738l-33 29l111 139l63 -46zM63 802q0 19 15.5 37t40.5 18q24 0 40 -16t16 -39q0 -24 -16 -40t-40 -16q-26 0 -41 18t-15 38zM353 802q0 23 16 39t40 16q25 0 40.5 -18t15.5 -37q0 -20 -15 -38
t-41 -18q-24 0 -40 16t-16 40z" />
    <glyph glyph-name="afii10065.var.accented" unicode="&#x430;`" horiz-adv-x="530" 
d="M370 372v49h98v-421h-98v44q-48 -57 -126 -57q-94 0 -149 66t-55 158q0 99 59.5 160t145.5 61q77 0 125 -60zM257 344q-52 0 -84.5 -39t-32.5 -96q0 -56 32.5 -95t84.5 -39q49 0 84 35t35 98q0 65 -35 100.5t-84 35.5zM340 675l90 -46l-156 -144l-54 34z" />
    <glyph glyph-name="afii10070.var.accented" unicode="&#x435;`" horiz-adv-x="482" 
d="M357 142l82 -46q-31 -52 -71 -77q-49 -32 -124 -32q-88 0 -142 54q-62 62 -62 161q0 104 67 173q57 57 141 57t135 -55q59 -62 59 -178v-12h-302q5 -54 36 -85q27 -27 75 -27q39 0 67 21q23 18 39 46zM147 267h195q-6 35 -30 57q-26 24 -66 24q-42 0 -69 -27
q-23 -19 -30 -54zM319 675l90 -46l-156 -144l-54 34z" />
    <glyph glyph-name="afii10074.var.accented" unicode="&#x438;`" horiz-adv-x="510" 
d="M62 421h98v-239l288 277v-459h-98v245l-288 -277v453zM330 675l90 -46l-156 -144l-54 34z" />
    <glyph glyph-name="afii10080.var.accented" unicode="&#x43e;`" horiz-adv-x="530" 
d="M265 432q96 0 160.5 -62.5t64.5 -159.5q0 -96 -64.5 -159.5t-160.5 -63.5t-160.5 63.5t-64.5 159.5q0 97 64.5 159.5t160.5 62.5zM265 75q57 0 91 36.5t34 97.5q0 67 -37 101t-88 34t-88 -34t-37 -101q0 -61 34 -97.5t91 -36.5zM340 675l90 -46l-156 -144l-54 34z" />
    <glyph glyph-name="afii10085.var.accented" unicode="&#x443;`" horiz-adv-x="482" 
d="M31 -229l155 295l-180 355h118l120 -246l122 246h110l-335 -650h-110zM317 675l90 -46l-156 -144l-54 34z" />
    <glyph glyph-name="afii10093.var.accented" unicode="&#x44b;`" horiz-adv-x="580" 
d="M62 0v421h98v-149h56q27 0 44 -1.5t41.5 -12t41.5 -29.5q33 -37 33 -92q0 -63 -38 -101q-17 -17 -40 -25.5t-38.5 -9.5t-44.5 -1h-153zM160 84h45q36 0 51 9q22 16 22 43q0 28 -21 42q-15 10 -51 10h-46v-104zM420 0v421h98v-421h-98zM365 675l90 -46l-156 -144l-54 34z
" />
    <glyph glyph-name="afii10095.var.accented" unicode="&#x44d;`" horiz-adv-x="428" 
d="M40 317v93q56 22 119 22q106 0 168 -62q61 -61 61 -159t-62 -161q-59 -63 -157 -63q-70 0 -129 24v93q50 -29 115 -29q61 0 95 34q25 25 31 65h-195v82h192q-10 47 -42 67q-30 21 -81 21q-60 0 -115 -27zM224 675l90 -46l-156 -144l-54 34z" />
    <glyph glyph-name="afii10096.var.accented" unicode="&#x44e;`" horiz-adv-x="700" 
d="M160 265h67q10 59 55 105q62 62 157 62q94 0 157.5 -62.5t63.5 -159.5q0 -96 -63.5 -159.5t-157.5 -63.5q-103 0 -162 67q-46 48 -52 121h-65v-175h-98v421h98v-156zM439 344q-50 0 -85.5 -34t-35.5 -101t35.5 -100.5t85.5 -33.5t85.5 33.5t35.5 100.5t-35.5 101
t-85.5 34zM425 675l90 -46l-156 -144l-54 34z" />
    <glyph glyph-name="afii10097.var.accented" unicode="&#x44f;`" horiz-adv-x="418" 
d="M8 0l132 167q-39 6 -67 32q-35 35 -35 87q0 60 39 97q39 38 122 38h157v-421h-98v155h-20l-115 -155h-115zM258 235v102h-57q-34 0 -51 -9q-24 -15 -24 -42q0 -28 20 -41q15 -10 54 -10h58zM285 675l90 -46l-156 -144l-54 34z" />
    <glyph glyph-name="afii10071.var.accented" unicode="&#x451;`" horiz-adv-x="482" 
d="M357 142l82 -46q-31 -52 -71 -77q-49 -32 -124 -32q-88 0 -142 54q-62 62 -62 161q0 104 67 173q57 57 141 57t135 -55q59 -62 59 -178v-12h-302q5 -54 36 -85q27 -27 75 -27q39 0 67 21q23 18 39 46zM147 267h195q-6 35 -30 57q-26 24 -66 24q-42 0 -69 -27
q-23 -19 -30 -54zM265 675l74 -37l-144 -144l-38 25zM52 575q0 24 15.5 40t39.5 16t40 -16t16 -40q0 -26 -18 -41t-38 -15t-37.5 15.5t-17.5 40.5zM322 575q0 24 16 40t40 16q26 0 41 -18t15 -38q0 -23 -16.5 -39.5t-39.5 -16.5q-20 0 -38 15t-18 41z" />
    <glyph glyph-name="fi" unicode="fi" horiz-adv-x="470" 
d="M268 331h-106v-331h-98v331h-34v90h34v140q0 78 26 115q44 65 146 65q104 0 146 -65q26 -42 26 -115v-29h-98v18q0 44 -12 65q-19 32 -62 32t-62 -32q-12 -19 -12 -65v-129h106v-90zM310 421h98v-421h-98v421z" />
    <glyph glyph-name="fl" unicode="fl" horiz-adv-x="470" 
d="M268 331h-106v-331h-98v331h-34v90h34v140q0 78 26 115q44 65 146 65q104 0 146 -65q26 -40 26 -115v-561h-98v550q0 44 -12 65q-18 32 -62 32q-43 0 -62 -32q-12 -19 -12 -65v-129h106v-90z" />
    <glyph glyph-name=".notdef" 
d="M58 8h384v496h-384v-496zM50 0v512h400v-512h-400z" />
    <glyph glyph-name=".null" horiz-adv-x="0" 
 />
    <glyph glyph-name="nonmarkingreturn" horiz-adv-x="333" 
 />
    <glyph glyph-name="space" unicode=" " horiz-adv-x="233" 
 />
    <glyph glyph-name="exclam" unicode="!" horiz-adv-x="252" 
d="M175 165h-98v502h98v-502zM66 48q0 25 17.5 42.5t42.5 17.5t42.5 -17.5t17.5 -42.5t-17.5 -42.5t-42.5 -17.5t-42.5 17.5t-17.5 42.5z" />
    <glyph glyph-name="quotedbl" unicode="&#x22;" horiz-adv-x="366" 
d="M156 667l-18 -268h-72l-18 268h108zM318 667l-18 -268h-72l-18 268h108z" />
    <glyph glyph-name="numbersign" unicode="#" horiz-adv-x="600" 
d="M407 0h-98l31 196h-114l-31 -196h-98l31 196h-108l14 88h108l18 112h-108l14 88h108l29 183h98l-29 -183h114l29 183h98l-29 -183h108l-14 -88h-108l-18 -112h108l-14 -88h-108zM354 284l18 112h-114l-18 -112h114z" />
    <glyph glyph-name="dollar" unicode="$" horiz-adv-x="568" 
d="M476 567l-82 -48q-13 27 -30 42q-28 24 -72 24q-47 0 -74 -27q-20 -20 -20 -51q0 -34 26 -56q25 -20 63 -34l50 -20q76 -31 111 -70q46 -51 46 -126q0 -89 -58 -152q-44 -47 -110 -58v-101h-74v98q-77 6 -130 66q-50 55 -56 130l101 22q0 -48 28 -85q32 -40 87 -40
q48 0 79 32q31 31 31 80q0 41 -29 73q-21 21 -67 41l-64 27q-57 24 -94 61q-42 43 -42 102q0 78 51 129q40 40 105 50v89h74v-88q51 -6 87 -33q38 -28 63 -77z" />
    <glyph glyph-name="percent" unicode="%" horiz-adv-x="810" 
d="M194 673q66 0 113.5 -46.5t47.5 -110.5t-47.5 -110.5t-113.5 -46.5t-113.5 46.5t-47.5 110.5t47.5 110.5t113.5 46.5zM194 431q39 0 61 26t22 59t-22 59t-61 26t-61 -26t-22 -59t22 -59t61 -26zM191 18l381 660l47 -27l-381 -662zM616 307q66 0 113.5 -46.5t47.5 -110.5
t-47.5 -110.5t-113.5 -46.5t-113.5 46.5t-47.5 110.5t47.5 110.5t113.5 46.5zM616 65q39 0 61 26t22 59t-22 59t-61 26t-61 -26t-22 -59t22 -59t61 -26z" />
    <glyph glyph-name="ampersand" unicode="&#x26;" horiz-adv-x="646" 
d="M537 313l65 -68l-79 -91l123 -154h-124l-66 82q-26 -27 -56 -49q-65 -46 -146 -46q-92 0 -146 54t-54 137q0 60 25.5 99.5t70.5 72.5q7 5 19.5 14t21.5 15l12 8q-66 66 -66 138q0 63 40.5 108.5t117.5 45.5q76 0 118 -43t42 -101q0 -48 -29 -87q-26 -34 -83 -77l118 -144
zM395 154l-132 160q-44 -23 -73 -55q-36 -40 -36 -85q0 -43 28.5 -72t75.5 -29q36 0 75 26q24 18 62 55zM284 442l37 27q40 28 40 66q0 24 -16.5 42t-49.5 18q-30 0 -47 -16t-17 -43q0 -31 23 -58z" />
    <glyph glyph-name="quotesingle" unicode="'" horiz-adv-x="204" 
d="M156 667l-18 -268h-72l-18 268h108z" />
    <glyph glyph-name="parenleft" unicode="(" horiz-adv-x="324" 
d="M264 -142l-90 -35q-44 93 -68 202q-26 115 -26 255q0 133 28 265q24 106 66 195l90 -35q-40 -90 -60 -181q-24 -108 -24 -244q0 -129 23 -236q21 -89 61 -186z" />
    <glyph glyph-name="parenright" unicode=")" horiz-adv-x="324" 
d="M150 -177l-90 35q40 97 61 186q23 107 23 236q0 136 -24 244q-20 91 -60 181l90 35q42 -89 66 -195q28 -132 28 -265q0 -140 -26 -255q-24 -109 -68 -202z" />
    <glyph glyph-name="asterisk" unicode="*" horiz-adv-x="550" 
d="M136 655l107 -45l-7 119h78l-8 -118l108 44l25 -72l-114 -28l74 -90l-60 -47l-64 97l-64 -97l-60 47l74 88l-114 28z" />
    <glyph glyph-name="plus" unicode="+" 
d="M33 291v90h170v170h94v-170h170v-90h-170v-170h-94v170h-170z" />
    <glyph glyph-name="comma" unicode="," horiz-adv-x="320" 
d="M10 -129l102 254l88 -34l-124 -247z" />
    <glyph glyph-name="hyphen" unicode="-" horiz-adv-x="340" 
d="M50 162v102h240v-102h-240z" />
    <glyph glyph-name="period" unicode="." horiz-adv-x="252" 
d="M66 48q0 25 17.5 42.5t42.5 17.5t42.5 -17.5t17.5 -42.5t-17.5 -42.5t-42.5 -17.5t-42.5 17.5t-17.5 42.5z" />
    <glyph glyph-name="slash" unicode="/" horiz-adv-x="684" 
d="M0 -177l526 942l80 -36l-526 -942z" />
    <glyph glyph-name="zero" unicode="0" horiz-adv-x="568" 
d="M284 -11q-88 0 -151 72q-85 99 -85 272q0 174 85 273q63 72 151 72t151 -72q85 -99 85 -273q0 -173 -85 -272q-63 -72 -151 -72zM284 588q-54 0 -90 -55q-46 -70 -46 -199q0 -130 46 -200q36 -55 90 -55t90 55q46 70 46 200q0 129 -46 199q-36 55 -90 55z" />
    <glyph glyph-name="one" unicode="1" horiz-adv-x="568" 
d="M250 0v573h-116l56 94h162v-667h-102z" />
    <glyph glyph-name="two" unicode="2" horiz-adv-x="568" 
d="M482 94v-94h-448l231 280q42 51 80 104q35 52 35 96q0 45 -29 76.5t-82 31.5t-84.5 -35.5t-33.5 -85.5h-98q4 90 56 146q58 65 156 65q101 0 158 -59t57 -142q0 -69 -48 -140q-26 -39 -95 -120l-104 -123h249z" />
    <glyph glyph-name="three" unicode="3" horiz-adv-x="568" 
d="M166 497h-98q4 77 57 130q54 51 146 51q91 0 144 -55q48 -49 48 -127q0 -50 -23 -88q-22 -34 -60 -56q42 -16 66 -53q28 -41 28 -103q0 -92 -57 -149q-58 -58 -163 -58q-98 0 -149 56q-49 50 -57 136h98q7 -45 36 -72q35 -30 81 -30q45 0 78 28q35 35 35 94q0 51 -30 79
q-31 30 -86 30h-20v86h14q56 0 85 29q26 26 26 71q0 41 -26 67q-25 25 -71 25q-47 0 -74 -27q-11 -11 -18 -26.5t-8.5 -24.5t-1.5 -13z" />
    <glyph glyph-name="four" unicode="4" horiz-adv-x="568" 
d="M448 716v-496h72v-94h-72v-126h-98v126h-330zM198 218h152v215z" />
    <glyph glyph-name="five" unicode="5" horiz-adv-x="568" 
d="M477 667v-94h-206l-33 -111q22 2 31 2q94 0 154 -59q65 -63 65 -171q0 -109 -68 -177q-69 -68 -185 -68q-76 0 -128 30q-50 32 -79 77l77 64q25 -41 51 -58q35 -23 87 -23q63 0 102 37q43 43 43 113t-40 108q-39 37 -109 37q-44 0 -78 -14q-34 -13 -59 -30l99 337h276z
" />
    <glyph glyph-name="six" unicode="6" horiz-adv-x="568" 
d="M348 690l74 -55l-159 -201q17 4 42 4q94 0 154 -62q59 -64 59 -156q0 -103 -66 -168q-63 -63 -172 -63t-172 65q-58 61 -58 151q0 66 32 128q22 45 81 119zM285 351q-57 0 -96 -37q-39 -36 -39 -99t39 -99q39 -37 96 -37t94 37q39 39 39 99t-39 99q-37 37 -94 37z" />
    <glyph glyph-name="seven" unicode="7" horiz-adv-x="568" 
d="M50 27l332 546h-328v94h496l-67 -110l-353 -580z" />
    <glyph glyph-name="eight" unicode="8" horiz-adv-x="568" 
d="M284 303q-48 0 -79 -31t-31 -81q0 -43 30 -78q32 -34 80 -34t80 34q30 35 30 78q0 50 -31 81t-79 31zM284 588q-44 0 -73 -27q-28 -28 -28 -74q0 -43 27 -70q30 -30 74 -30t74 30q27 27 27 70q0 46 -28 74q-29 27 -73 27zM394 347q45 -19 70 -54q30 -40 30 -100
q0 -87 -53 -142q-58 -62 -157 -62t-157 62q-53 55 -53 142q0 60 30 100q25 35 70 54q-38 16 -59 50q-24 38 -24 91q0 85 56 139q54 51 137 51t137 -51q56 -54 56 -139q0 -53 -24 -91q-21 -34 -59 -50z" />
    <glyph glyph-name="nine" unicode="9" horiz-adv-x="568" 
d="M220 -23l-74 55l157 201q-15 -4 -36 -4q-94 0 -156 62q-61 61 -61 152q0 99 66 167q68 68 172 68q106 0 172 -66q58 -60 58 -151q0 -65 -32 -127q-22 -45 -81 -119zM283 316q56 0 96 40q39 42 39 99q0 58 -39 95q-40 38 -95 38q-53 0 -95 -38q-39 -39 -39 -98
q0 -60 39 -99q41 -37 94 -37z" />
    <glyph glyph-name="colon" unicode=":" horiz-adv-x="252" 
d="M66 372q0 25 17.5 42.5t42.5 17.5t42.5 -17.5t17.5 -42.5t-17.5 -42.5t-42.5 -17.5t-42.5 17.5t-17.5 42.5zM66 47q0 25 17.5 42.5t42.5 17.5t42.5 -17.5t17.5 -42.5t-17.5 -42.5t-42.5 -17.5t-42.5 17.5t-17.5 42.5z" />
    <glyph glyph-name="semicolon" unicode=";" horiz-adv-x="320" 
d="M90 372q0 25 17.5 42.5t42.5 17.5t42.5 -17.5t17.5 -42.5t-17.5 -42.5t-42.5 -17.5t-42.5 17.5t-17.5 42.5zM10 -129l102 254l88 -34l-124 -247z" />
    <glyph glyph-name="less" unicode="&#x3c;" 
d="M137 332l330 -156v-96l-434 211v82l434 211v-96z" />
    <glyph glyph-name="equal" unicode="=" 
d="M33 380v84h434v-84h-434zM33 218v84h434v-84h-434z" />
    <glyph glyph-name="greater" unicode="&#x3e;" 
d="M363 332l-330 156v96l434 -211v-82l-434 -211v96z" />
    <glyph glyph-name="question" unicode="?" horiz-adv-x="434" 
d="M158 485h-102q-2 15 -2 34q0 75 45 118q46 42 117 42q73 0 121 -44q43 -40 43 -112q0 -81 -59 -123q-20 -15 -70 -35l-30 -12q-34 -16 -40 -22q-15 -15 -15 -36q0 -25 17 -39q14 -10 30 -10q25 0 38 15q16 17 16 53h98q0 -68 -44 -116q-42 -42 -109 -42q-62 0 -105 41
q-41 41 -41 106q0 51 32 86q24 26 87 51q6 3 19.5 7.5t20.5 7.5t16.5 8.5t16.5 11.5q22 21 22 50q0 30 -17 47t-46 17q-28 0 -46 -18q-17 -17 -17 -53q0 -18 4 -33zM158 47q0 25 17.5 42.5t42.5 17.5t42.5 -17.5t17.5 -42.5t-17.5 -42.5t-42.5 -17.5t-42.5 17.5t-17.5 42.5z
" />
    <glyph glyph-name="at" unicode="@" horiz-adv-x="732" 
d="M474 439l10 52h68l-39 -201q-6 -30 -6 -45q0 -21 10 -30.5t22 -9.5q32 0 60 40q17 24 26 64t9 71q0 93 -64.5 165t-184.5 72q-121 0 -204 -83t-83 -206q0 -87 46 -159t126 -101q51 -20 114 -20q113 0 203 41l17 -62q-94 -39 -215 -39q-149 0 -242 81q-45 39 -79 104
t-34 156q0 151 98.5 249.5t249.5 98.5q135 0 225.5 -80.5t90.5 -215.5q0 -108 -48 -170q-49 -63 -115 -63q-31 0 -50.5 17t-25.5 45q-43 -68 -124 -68q-52 0 -96.5 38.5t-44.5 121.5q0 93 54 147t121 54q77 0 105 -64zM345 212q42 0 75 38t33 97q0 43 -22 64.5t-54 21.5
q-44 0 -75 -35t-31 -95q0 -45 21 -68t53 -23z" />
    <glyph glyph-name="A" unicode="A" horiz-adv-x="656" 
d="M542 0l-70 161h-285l-73 -161h-110l332 706l316 -706h-110zM229 257h202l-99 226z" />
    <glyph glyph-name="B" unicode="B" horiz-adv-x="526" 
d="M80 667h101q68 0 110 -11t74 -41q53 -50 53 -132q0 -45 -20 -79q-17 -31 -50 -46q53 -13 86 -48q44 -48 44 -125q0 -72 -44 -120q-62 -65 -187 -65h-167v667zM182 571v-191h31q56 0 83 26q26 26 26 76q0 41 -24 64q-25 25 -81 25h-35zM182 296v-200h62q68 0 101 26t33 74
q0 43 -27 70q-31 30 -105 30h-64z" />
    <glyph glyph-name="C" unicode="C" horiz-adv-x="620" 
d="M574 631v-120q-83 74 -181 74q-108 0 -175.5 -71.5t-67.5 -182.5q0 -107 69 -178.5t175 -71.5q103 0 180 77v-121q-85 -50 -183 -50q-137 0 -236 92q-107 99 -107 252q0 160 107 261q92 87 241 87q101 0 178 -48z" />
    <glyph glyph-name="D" unicode="D" horiz-adv-x="644" 
d="M80 667h140q79 0 137.5 -13.5t110.5 -51.5q61 -46 94.5 -116t33.5 -153q0 -173 -134 -269q-53 -39 -109 -51.5t-135 -12.5h-138v667zM182 571v-475h44q113 0 177 47q91 71 91 190q0 62 -25.5 113t-64.5 79q-64 46 -178 46h-44z" />
    <glyph glyph-name="E" unicode="E" 
d="M448 667v-96h-266v-169h258v-96h-258v-210h266v-96h-368v667h368z" />
    <glyph glyph-name="F" unicode="F" horiz-adv-x="450" 
d="M414 667v-96h-232v-169h224v-96h-224v-306h-102v667h334z" />
    <glyph glyph-name="G" unicode="G" horiz-adv-x="748" 
d="M425 253v94h275v-5q0 -173 -99 -270q-88 -85 -227 -85q-140 0 -227 91q-99 104 -99 252q0 75 26.5 140t70.5 109q44 46 109.5 73t141.5 27q99 0 174 -42q71 -39 108 -100l-81 -57q-34 47 -82 76q-47 29 -118 29q-107 0 -176 -69q-33 -33 -52 -83t-19 -104q0 -107 69 -181
q64 -67 167 -67q90 0 149 59q49 48 56 113h-166z" />
    <glyph glyph-name="H" unicode="H" horiz-adv-x="650" 
d="M182 667v-256h286v256h102v-667h-102v315h-286v-315h-102v667h102z" />
    <glyph glyph-name="I" unicode="I" horiz-adv-x="262" 
d="M80 667h102v-667h-102v667z" />
    <glyph glyph-name="J" unicode="J" horiz-adv-x="362" 
d="M180 667h102v-432q0 -101 -25 -152q-47 -96 -157 -96q-66 0 -118 34l50 86q28 -24 70 -24q50 0 67 45q11 24 11 107v432z" />
    <glyph glyph-name="K" unicode="K" horiz-adv-x="586" 
d="M182 667v-266l258 266h134l-301 -302l303 -365h-136l-238 296l-20 -20v-276h-102v667h102z" />
    <glyph glyph-name="L" unicode="L" horiz-adv-x="394" 
d="M80 667h102v-571h196v-96h-298v667z" />
    <glyph glyph-name="M" unicode="M" horiz-adv-x="852" 
d="M164 0h-104l140 717l232 -518l234 518l126 -717h-104l-68 402l-194 -433l-192 434z" />
    <glyph glyph-name="N" unicode="N" horiz-adv-x="746" 
d="M182 0h-102v712l484 -507v462h102v-708l-484 507v-466z" />
    <glyph glyph-name="O" unicode="O" horiz-adv-x="790" 
d="M395 679q149 0 248 -99t99 -247t-99 -247t-248 -99t-248 99t-99 247t99 247t248 99zM395 81q108 0 176.5 70.5t68.5 181.5t-68.5 181.5t-176.5 70.5t-176.5 -70.5t-68.5 -181.5t68.5 -181.5t176.5 -70.5z" />
    <glyph glyph-name="P" unicode="P" horiz-adv-x="480" 
d="M80 667h147q92 0 146 -36q40 -27 61.5 -70.5t21.5 -91.5q0 -90 -65 -146q-61 -52 -163 -52h-46v-271h-102v667zM182 573v-208h46q64 0 97 28t33 77q0 17 -4.5 32t-17 32.5t-40.5 28t-69 10.5h-45z" />
    <glyph glyph-name="Q" unicode="Q" horiz-adv-x="790" 
d="M632 -13l-50 50q-79 -50 -187 -50q-150 0 -248.5 98.5t-98.5 247.5q0 148 99 247t248 99t248 -99t99 -247q0 -140 -92 -239l108 -107h-126zM479 264l102 -101q59 68 59 170q0 111 -68.5 181.5t-176.5 70.5t-176.5 -70.5t-68.5 -181.5t68.5 -181.5t176.5 -70.5
q65 0 115 26l-158 157h127z" />
    <glyph glyph-name="R" unicode="R" horiz-adv-x="534" 
d="M80 667h119q118 0 176 -39q79 -53 79 -157q0 -71 -40.5 -121t-107.5 -65l208 -285h-123l-191 273h-18v-273h-102v667zM182 573v-212h32q18 0 35 2.5t45 11.5t45 33.5t17 61.5q0 103 -139 103h-35z" />
    <glyph glyph-name="S" unicode="S" horiz-adv-x="516" 
d="M450 567l-82 -48q-13 27 -30 42q-30 24 -72 24q-45 0 -69.5 -23t-24.5 -57q0 -51 72 -81l67 -27q87 -36 122 -84.5t35 -111.5q0 -95 -60.5 -154.5t-154.5 -59.5q-97 0 -157 67q-50 55 -56 130l101 22q0 -48 28 -85q32 -40 87 -40q48 0 79 31t31 81q0 24 -8 43t-24 32.5
t-30 21.5t-34 17l-64 27q-136 59 -136 169q0 72 52.5 124t142.5 52q84 0 134 -45q28 -23 51 -67z" />
    <glyph glyph-name="T" unicode="T" horiz-adv-x="428" 
d="M418 571h-153v-571h-102v571h-153v96h408v-96z" />
    <glyph glyph-name="U" unicode="U" horiz-adv-x="654" 
d="M80 667h102v-402q0 -78 21 -115q17 -29 49.5 -49t74.5 -20t74.5 20t49.5 49q21 37 21 115v402h102v-429q0 -105 -62 -173q-72 -78 -185 -78t-185 78q-62 68 -62 173v429z" />
    <glyph glyph-name="V" unicode="V" horiz-adv-x="600" 
d="M4 667h110l186 -465l186 465h110l-296 -710z" />
    <glyph glyph-name="W" unicode="W" horiz-adv-x="940" 
d="M4 667h110l176 -446l180 478l174 -478l182 446h110l-298 -710l-174 473l-176 -473z" />
    <glyph glyph-name="X" unicode="X" horiz-adv-x="546" 
d="M10 0l210 348l-184 319h114l130 -226l133 226h114l-192 -319l201 -348h-114l-146 255l-152 -255h-114z" />
    <glyph glyph-name="Y" unicode="Y" horiz-adv-x="540" 
d="M219 0v288l-219 379h116l154 -267l154 267h116l-219 -379v-288h-102z" />
    <glyph glyph-name="Z" unicode="Z" horiz-adv-x="554" 
d="M524 667l-328 -571h320v-96h-486l328 571h-274v96h440z" />
    <glyph glyph-name="bracketleft" unicode="[" horiz-adv-x="316" 
d="M270 639h-84v-726h84v-90h-182v906h182v-90z" />
    <glyph glyph-name="backslash" unicode="\" horiz-adv-x="684" 
d="M684 -177l-80 -36l-526 942l80 36z" />
    <glyph glyph-name="bracketright" unicode="]" horiz-adv-x="316" 
d="M46 -87h84v726h-84v90h182v-906h-182v90z" />
    <glyph glyph-name="asciicircum" unicode="^" 
d="M250 590l-130 -240h-104l171 317h126l171 -317h-104z" />
    <glyph glyph-name="underscore" unicode="_" horiz-adv-x="400" 
d="M0 -144v86h400v-86h-400z" />
    <glyph glyph-name="grave" unicode="`" 
d="M241 485l-156 144l90 46l120 -156z" />
    <glyph glyph-name="a" unicode="a" horiz-adv-x="530" 
d="M370 372v49h98v-421h-98v44q-48 -57 -126 -57q-94 0 -149 66t-55 158q0 99 59.5 160t145.5 61q77 0 125 -60zM257 344q-52 0 -84.5 -39t-32.5 -96q0 -56 32.5 -95t84.5 -39q49 0 84 35t35 98q0 65 -35 100.5t-84 35.5z" />
    <glyph glyph-name="b" unicode="b" horiz-adv-x="530" 
d="M160 729v-357q48 60 125 60q86 0 145.5 -61t59.5 -160q0 -92 -55 -158t-149 -66q-78 0 -126 57v-44h-98v729h98zM273 344q-49 0 -84 -35.5t-35 -100.5q0 -63 35 -98t84 -35q52 0 84.5 39t32.5 95q0 57 -32.5 96t-84.5 39z" />
    <glyph glyph-name="c" unicode="c" horiz-adv-x="420" 
d="M388 402v-110q-53 52 -119 52q-56 0 -93 -37q-36 -36 -36 -97q0 -63 38 -101q37 -34 89 -34q73 0 121 54v-109q-53 -33 -128 -33q-102 0 -160 62q-60 60 -60 158q0 99 64 163q62 62 169 62q61 0 115 -30z" />
    <glyph glyph-name="d" unicode="d" horiz-adv-x="530" 
d="M370 372v357h98v-729h-98v44q-48 -57 -126 -57q-94 0 -149 66t-55 158q0 99 59.5 160t145.5 61q77 0 125 -60zM257 344q-52 0 -84.5 -39t-32.5 -96q0 -56 32.5 -95t84.5 -39q49 0 84 35t35 98q0 65 -35 100.5t-84 35.5z" />
    <glyph glyph-name="e" unicode="e" horiz-adv-x="482" 
d="M357 142l82 -46q-31 -52 -71 -77q-49 -32 -124 -32q-88 0 -142 54q-62 62 -62 161q0 104 67 173q57 57 141 57t135 -55q59 -62 59 -178v-12h-302q5 -54 36 -85q27 -27 75 -27q39 0 67 21q23 18 39 46zM147 267h195q-6 35 -30 57q-26 24 -66 24q-42 0 -69 -27
q-23 -19 -30 -54z" />
    <glyph glyph-name="f" unicode="f" horiz-adv-x="270" 
d="M276 331h-106v-331h-98v331h-42v90h42v146q0 86 41 132q41 41 100 41q35 0 63 -12v-97q-25 15 -47 15q-29 0 -43 -16q-16 -16 -16 -50v-159h106v-90z" />
    <glyph glyph-name="g" unicode="g" horiz-adv-x="530" 
d="M370 375v46h98v-387q0 -81 -14.5 -132.5t-54.5 -86.5q-53 -45 -140 -45q-86 0 -138 52q-51 51 -62 131h95q7 -40 31 -66q27 -29 76 -29t77 28q32 31 32 106v55q-48 -60 -128 -60q-86 0 -139 57q-63 65 -63 167q0 101 62 163q58 58 143 58q77 0 125 -57zM257 344
q-43 0 -74 -28q-43 -40 -43 -107q0 -70 42 -106q33 -28 75 -28q49 0 82 34q37 40 37 99q0 68 -40 106q-30 30 -79 30z" />
    <glyph glyph-name="h" unicode="h" horiz-adv-x="486" 
d="M62 0v729h98v-344q47 47 113 47q77 0 124 -57q27 -39 27 -117v-258h-98v249q0 52 -19 73q-20 22 -55 22q-48 0 -72 -35q-20 -27 -20 -106v-203h-98z" />
    <glyph glyph-name="i" unicode="i" horiz-adv-x="222" 
d="M62 421h98v-421h-98v421zM48 595q0 27 18 45t45 18t45 -18t18 -45t-18 -45t-45 -18t-45 18t-18 45z" />
    <glyph glyph-name="j" unicode="j" horiz-adv-x="222" 
d="M62 421h98v-650h-98v650zM48 595q0 27 18 45t45 18t45 -18t18 -45t-18 -45t-45 -18t-45 18t-18 45z" />
    <glyph glyph-name="k" unicode="k" horiz-adv-x="442" 
d="M62 729h98v-449l137 141h130l-181 -175l194 -246h-124l-138 180l-18 -18v-162h-98v729z" />
    <glyph glyph-name="l" unicode="l" horiz-adv-x="222" 
d="M62 729h98v-729h-98v729z" />
    <glyph glyph-name="m" unicode="m" horiz-adv-x="702" 
d="M62 0v421h98v-39q41 50 104 50q73 0 109 -62q44 62 125 62q83 0 120 -66q22 -41 22 -106v-260h-98v232q0 55 -9 75q-16 37 -56 37q-37 0 -58 -31q-19 -27 -19 -96v-217h-98v232q0 55 -9 75q-16 37 -56 37q-37 0 -58 -31q-19 -27 -19 -96v-217h-98z" />
    <glyph glyph-name="n" unicode="n" horiz-adv-x="485" 
d="M61 0v421h98v-39q45 50 114 50q83 0 124 -57q26 -37 26 -117v-258h-98v234q0 38 -6.5 62t-19.5 33.5t-23 12t-28 2.5q-21 0 -33.5 -3.5t-27 -16t-21.5 -43t-7 -79.5v-202h-98z" />
    <glyph glyph-name="o" unicode="o" horiz-adv-x="530" 
d="M265 432q96 0 160.5 -62.5t64.5 -159.5q0 -96 -64.5 -159.5t-160.5 -63.5t-160.5 63.5t-64.5 159.5q0 97 64.5 159.5t160.5 62.5zM265 75q57 0 91 36.5t34 97.5q0 67 -37 101t-88 34t-88 -34t-37 -101q0 -61 34 -97.5t91 -36.5z" />
    <glyph glyph-name="p" unicode="p" horiz-adv-x="530" 
d="M160 49v-278h-98v650h98v-46q48 57 125 57q86 0 145.5 -61t59.5 -158q0 -101 -62 -163.5t-142 -62.5q-76 0 -126 62zM273 344q-49 0 -84 -35.5t-35 -100.5q0 -63 35 -98t84 -35q52 0 84.5 39t32.5 95q0 57 -32.5 96t-84.5 39z" />
    <glyph glyph-name="q" unicode="q" horiz-adv-x="530" 
d="M370 375v46h98v-650h-98v276q-49 -60 -126 -60q-94 0 -149 65.5t-55 158.5q0 99 59.5 160t145.5 61q77 0 125 -57zM257 344q-52 0 -84.5 -39t-32.5 -96q0 -56 32.5 -95t84.5 -39q49 0 84 35t35 98q0 65 -35 100.5t-84 35.5z" />
    <glyph glyph-name="r" unicode="r" horiz-adv-x="332" 
d="M62 0v421h98v-38q20 24 41 35q24 14 60 14q43 0 77 -20l-40 -89q-23 15 -50 15q-39 0 -61 -23q-27 -29 -27 -97v-218h-98z" />
    <glyph glyph-name="s" unicode="s" horiz-adv-x="360" 
d="M319 358l-73 -48q-25 36 -60 36q-19 0 -30 -11q-9 -9 -9 -22q0 -15 14 -24l13 -6.5t20 -10.5l50 -25q41 -19 59 -39q31 -31 31 -78q0 -56 -37 -96q-43 -47 -118 -47q-55 0 -91 27q-37 29 -54 77l80 38q9 -28 23 -40q16 -16 43 -16q26 0 40 14t14 33t-13 32q-14 14 -42 26
l-36 17q-42 20 -58 36q-30 27 -30 71q0 55 35 90q38 40 103 40q45 0 78 -22q29 -17 48 -52z" />
    <glyph glyph-name="t" unicode="t" horiz-adv-x="242" 
d="M238 331h-75v-331h-98v331h-41v90h41v154h98v-154h75v-90z" />
    <glyph glyph-name="u" unicode="u" horiz-adv-x="484" 
d="M62 421h98v-241q0 -52 18 -76q22 -29 64 -29t64 29q18 24 18 76v241h98v-244q0 -47 -9 -79t-36 -59q-52 -52 -137 -52q-81 0 -133 52q-27 27 -36 59t-9 79v244z" />
    <glyph glyph-name="v" unicode="v" horiz-adv-x="448" 
d="M6 421h110l108 -240l108 240h110l-218 -451z" />
    <glyph glyph-name="w" unicode="w" horiz-adv-x="686" 
d="M6 421h110l109 -241l118 277l118 -277l109 241h110l-219 -451l-118 269l-118 -269z" />
    <glyph glyph-name="x" unicode="x" horiz-adv-x="496" 
d="M6 0l186 228l-150 193h116l93 -123l94 123h120l-155 -193l180 -228h-118l-121 157l-125 -157h-120z" />
    <glyph glyph-name="y" unicode="y" horiz-adv-x="482" 
d="M31 -229l155 295l-180 355h118l120 -246l122 246h110l-335 -650h-110z" />
    <glyph glyph-name="z" unicode="z" horiz-adv-x="480" 
d="M472 421l-271 -331h250v-90h-443l273 331h-215v90h406z" />
    <glyph glyph-name="braceleft" unicode="{" 
d="M288 565v-168q0 -51 -12 -74q-18 -33 -50 -47q32 -14 50 -47q12 -23 12 -74v-168q0 -47 17 -64q17 -16 71 -16h8v-84h-47q-71 0 -103 24q-44 35 -44 115v191q0 74 -56 83v80q56 9 56 83v191q0 80 44 115q31 24 103 24h47v-84h-8q-54 0 -71 -16q-17 -17 -17 -64z" />
    <glyph glyph-name="bar" unicode="|" 
d="M202 -250v1000h96v-1000h-96z" />
    <glyph glyph-name="braceright" unicode="}" 
d="M230 397v168q0 47 -17 64q-17 16 -71 16h-8v84h47q71 0 103 -24q44 -35 44 -115v-191q0 -74 56 -83v-80q-56 -9 -56 -83v-191q0 -80 -44 -115q-31 -24 -103 -24h-47v84h8q54 0 71 16q17 17 17 64v168q0 51 12 74q18 33 50 47q-32 14 -50 47q-12 23 -12 74z" />
    <glyph glyph-name="asciitilde" unicode="~" 
d="M435 361l57 -33q-24 -58 -66 -93q-36 -28 -83 -28q-40 0 -112 32q-61 26 -87 26q-31 0 -51 -22q-18 -18 -29 -45l-56 36q20 49 50 83q37 42 92 42q38 0 110 -31q65 -28 93 -28q31 0 49 18q19 16 33 43z" />
    <glyph glyph-name="uni00A0" unicode="&#xa0;" horiz-adv-x="233" 
 />
    <glyph glyph-name="exclamdown" unicode="&#xa1;" horiz-adv-x="252" 
d="M77 272h98v-502h-98v502zM186 389q0 -25 -17.5 -42.5t-42.5 -17.5t-42.5 17.5t-17.5 42.5t17.5 42.5t42.5 17.5t42.5 -17.5t17.5 -42.5z" />
    <glyph glyph-name="cent" unicode="&#xa2;" horiz-adv-x="568" 
d="M438 527v-109q-46 51 -122 51q-53 0 -87 -34q-39 -36 -39 -100q0 -62 38 -100q37 -35 92 -35q70 0 118 54v-109q-39 -27 -94 -32v-100h-74v103q-71 11 -120 60q-60 60 -60 158q0 102 68 166q48 46 112 54v101h74v-99q49 -4 94 -29z" />
    <glyph glyph-name="sterling" unicode="&#xa3;" horiz-adv-x="568" 
d="M516 444h-98v4q0 70 -35 105q-31 31 -80 31q-53 0 -86 -31q-33 -33 -33 -81q0 -45 51 -142h130v-72h-101q12 -28 12 -65q0 -36 -14 -65l53 -19q60 -20 76 -20q48 0 69 63l82 -48q-22 -46 -51 -75q-38 -38 -97 -38q-37 0 -112 25q-77 28 -101 28q-49 0 -68 -59l-87 44
q26 56 70 87q30 20 63 22q15 30 15 62q0 34 -15 58h-114v72h78q-41 86 -41 141q0 87 57 144q67 63 165 63q95 0 151 -56q61 -61 61 -173v-5z" />
    <glyph glyph-name="currency" unicode="&#xa4;" horiz-adv-x="668" 
d="M92 660l99 -99q62 48 143 48t143 -48l99 99l54 -54l-99 -99q45 -61 45 -140t-45 -140l99 -99l-54 -54l-99 99q-62 -48 -143 -48t-143 48l-99 -99l-54 54l99 99q-45 61 -45 140t45 140l-99 99zM334 211q65 0 108.5 44t43.5 112t-43.5 112t-108.5 44t-108.5 -44t-43.5 -112
t43.5 -112t108.5 -44z" />
    <glyph glyph-name="yen" unicode="&#xa5;" horiz-adv-x="568" 
d="M523 377h-143l-41 -74h184v-70h-192v-233h-94v233h-192v70h184l-41 74h-143v70h104l-121 220h110l146 -267l146 267h110l-121 -220h104v-70z" />
    <glyph glyph-name="brokenbar" unicode="&#xa6;" 
d="M202 390v360h96v-360h-96zM202 -250v360h96v-360h-96z" />
    <glyph glyph-name="section" unicode="&#xa7;" horiz-adv-x="568" 
d="M484 525h-94q0 54 -17 80q-25 38 -74 38q-45 0 -71 -28q-24 -24 -24 -62q0 -31 20 -51q15 -15 75 -37q105 -35 139 -69q46 -42 46 -115q0 -59 -24 -94q-23 -38 -70 -61q74 -40 74 -127q0 -74 -48 -122q-54 -54 -140 -54t-139 53t-53 142h94q0 -52 26 -81q26 -28 72 -28
q41 0 66 22q26 24 26 59q0 39 -31 66q-39 32 -75 37q-19 2 -66 25.5t-62 40.5q-44 47 -44 118q0 56 27 95q23 36 69 57q-35 19 -55 48q-23 33 -23 76q0 72 47 121q54 55 143 55q85 0 137 -52q49 -49 49 -147v-5zM287 377q-42 0 -69 -27q-28 -28 -28 -71t27 -70
q28 -28 70 -28q41 0 70 29q27 27 27 69q0 43 -28 71q-27 27 -69 27z" />
    <glyph glyph-name="dieresis" unicode="&#xa8;" 
d="M98 569q0 26 18 44t44 18t44 -18t18 -44t-18 -44t-44 -18t-44 18t-18 44zM278 569q0 26 18 44t44 18t44 -18t18 -44t-18 -44t-44 -18t-44 18t-18 44z" />
    <glyph glyph-name="copyright" unicode="&#xa9;" horiz-adv-x="758" 
d="M33 333q0 150 98 248.5t248 98.5t248 -98.5t98 -248.5t-98 -248.5t-248 -98.5t-248 98.5t-98 248.5zM669 333q0 126 -82 211.5t-208 85.5t-208 -85.5t-82 -211.5t82.5 -211.5t207.5 -85.5t207.5 85.5t82.5 211.5zM512 510v-87q-50 50 -118 50q-54 0 -96.5 -37t-42.5 -104
q0 -61 38.5 -99.5t101.5 -38.5q62 0 117 51v-88q-57 -31 -118 -31q-92 0 -153.5 59t-61.5 147q0 91 62.5 150t156.5 59q61 0 114 -31z" />
    <glyph glyph-name="ordfeminine" unicode="&#xaa;" horiz-adv-x="372" 
d="M253 632v28h66v-266h-66v25q-30 -32 -79 -32q-59 0 -94 35q-39 39 -39 103q0 66 40 106q35 36 90 36q56 0 82 -35zM182 610q-30 0 -50 -18q-25 -20 -25 -66q0 -39 22 -61t53 -22q33 0 54 23q20 20 20 60q0 44 -24 66q-20 18 -50 18zM52 343h267v-52h-267v52z" />
    <glyph glyph-name="guillemotleft" unicode="&#xab;" horiz-adv-x="507" 
d="M140 219l127 -165l-65 -47l-162 212l162 212l65 -47zM326 219l127 -165l-65 -47l-162 212l162 212l65 -47z" />
    <glyph glyph-name="logicalnot" unicode="&#xac;" 
d="M467 0h-98v179h-336v88h434v-267z" />
    <glyph glyph-name="uni00AD" unicode="&#xad;" horiz-adv-x="340" 
d="M50 162v102h240v-102h-240z" />
    <glyph glyph-name="registered" unicode="&#xae;" horiz-adv-x="758" 
d="M33 333q0 150 98 248.5t248 98.5t248 -98.5t98 -248.5t-98 -248.5t-248 -98.5t-248 98.5t-98 248.5zM669 333q0 126 -82 211.5t-208 85.5t-208 -85.5t-82 -211.5t82.5 -211.5t207.5 -85.5t207.5 85.5t82.5 211.5zM548 153h-87l-116 148v-148h-71v374h99q42 0 71 -12
t41.5 -31.5t17 -35.5t4.5 -33q0 -41 -22 -68.5t-61 -37.5zM345 464v-104h14q78 0 78 53q0 51 -76 51h-16z" />
    <glyph glyph-name="overscore" unicode="&#xaf;" 
d="M85 508v78h330v-78h-330z" />
    <glyph glyph-name="degree" unicode="&#xb0;" 
d="M104 522q0 61 42 103t104 42t104 -42t42 -103t-42 -103t-104 -42t-104 42t-42 103zM166 522q0 -38 24 -62.5t60 -24.5t60 24.5t24 62.5t-24 62.5t-60 24.5t-60 -24.5t-24 -62.5z" />
    <glyph glyph-name="plusminus" unicode="&#xb1;" 
d="M33 350v90h170v163h94v-163h170v-90h-170v-163h-94v163h-170zM33 60v90h434v-90h-434z" />
    <glyph glyph-name="twosuperior" unicode="&#xb2;" horiz-adv-x="370" 
d="M314 334v-66h-290l146 162q34 38 50 62q21 30 21 57t-17.5 43.5t-45.5 16.5q-33 0 -51.5 -22t-21.5 -51h-70q5 58 37 96q39 43 103 43q65 0 101.5 -36t36.5 -88q0 -36 -30 -85q-23 -37 -55 -70l-55 -62h141z" />
    <glyph glyph-name="threesuperior" unicode="&#xb3;" horiz-adv-x="370" 
d="M115 554h-70q6 45 23 70q33 51 110 51q64 0 95.5 -32.5t31.5 -79.5q0 -63 -52 -84l7 -3q6 -3 9.5 -5.5t11 -8t12 -12t9.5 -15.5t7.5 -21t2.5 -26q0 -54 -36.5 -90.5t-104.5 -36.5q-93 0 -128 78q-10 20 -11 48h70q2 -27 19.5 -42t28 -16.5t21.5 -1.5q34 0 51.5 18
t17.5 44q0 12 -3.5 23t-20 23t-45.5 12h-24v66h24q63 0 63 47q0 49 -58 49q-56 0 -61 -55z" />
    <glyph glyph-name="acute" unicode="&#xb4;" 
d="M325 675l90 -46l-156 -144l-54 34z" />
    <glyph glyph-name="mu" unicode="&#xb5;" horiz-adv-x="524" 
d="M160 -229h-98v650h98v-205q0 -62 17 -91q26 -49 84 -49q56 0 83 50q20 36 20 96v199h98v-421h-98v73q-12 -39 -40.5 -62t-65.5 -23q-64 0 -98 69v-286z" />
    <glyph glyph-name="mu" unicode="&#x3bc;" horiz-adv-x="524" 
d="M160 -229h-98v650h98v-205q0 -62 17 -91q26 -49 84 -49q56 0 83 50q20 36 20 96v199h98v-421h-98v73q-12 -39 -40.5 -62t-65.5 -23q-64 0 -98 69v-286z" />
    <glyph glyph-name="paragraph" unicode="&#xb6;" horiz-adv-x="616" 
d="M301 -95h-83v412h-13q-84 0 -137 53q-44 44 -44 119q0 82 56 132q55 46 168 46h297v-76h-66v-686h-82v686h-96v-686z" />
    <glyph glyph-name="middot" unicode="&#xb7;" horiz-adv-x="200" 
d="M22 340q0 33 22.5 55.5t55.5 22.5t55.5 -22.5t22.5 -55.5t-22.5 -55.5t-55.5 -22.5t-55.5 22.5t-22.5 55.5z" />
    <glyph glyph-name="cedilla" unicode="&#xb8;" 
d="M258 -53l82 -32l-102 -134l-64 32z" />
    <glyph glyph-name="onesuperior" unicode="&#xb9;" horiz-adv-x="370" 
d="M162 268v334h-78l42 66h110v-400h-74z" />
    <glyph glyph-name="ordmasculine" unicode="&#xba;" horiz-adv-x="376" 
d="M188 386q-66 0 -107 41q-39 39 -39 102q0 61 41 100q42 38 105 38t105 -38q41 -39 41 -102q0 -61 -39 -100q-43 -41 -107 -41zM188 611q-33 0 -54 -21q-25 -25 -25 -63t23 -61q21 -23 56 -23q33 0 55 22q24 26 24 61q0 39 -25 64q-23 21 -54 21zM52 343h272v-52h-272v52z
" />
    <glyph glyph-name="guillemotright" unicode="&#xbb;" horiz-adv-x="507" 
d="M367 219l-127 165l65 47l162 -212l-162 -212l-65 47zM181 219l-127 165l65 47l162 -212l-162 -212l-65 47z" />
    <glyph glyph-name="onequarter" unicode="&#xbc;" horiz-adv-x="800" 
d="M162 268v334h-78l42 66h110v-400h-74zM225 17l382 661l48 -28l-382 -661zM725 430v-288h43v-66h-43v-76h-72v76h-209zM575 138h78v103z" />
    <glyph glyph-name="onehalf" unicode="&#xbd;" horiz-adv-x="800" 
d="M162 268v334h-78l42 66h110v-400h-74zM165 17l382 661l48 -28l-382 -661zM744 66v-66h-290l146 162q34 38 50 62q21 30 21 57t-17.5 43.5t-45.5 16.5q-33 0 -51.5 -22t-21.5 -51h-70q5 58 37 96q39 43 103 43q65 0 101.5 -36t36.5 -88q0 -36 -30 -85q-23 -37 -55 -70
l-55 -62h141z" />
    <glyph glyph-name="threequarters" unicode="&#xbe;" horiz-adv-x="800" 
d="M115 554h-70q6 45 23 70q33 51 110 51q64 0 95.5 -32.5t31.5 -79.5q0 -63 -52 -84l7 -3q6 -3 9.5 -5.5t11 -8t12 -12t9.5 -15.5t7.5 -21t2.5 -26q0 -54 -36.5 -90.5t-104.5 -36.5q-93 0 -128 78q-10 20 -11 48h70q2 -27 19.5 -42t28 -16.5t21.5 -1.5q34 0 51.5 18
t17.5 44q0 12 -3.5 23t-20 23t-45.5 12h-24v66h24q63 0 63 47q0 49 -58 49q-56 0 -61 -55zM225 17l382 661l48 -28l-382 -661zM724 430v-288h43v-66h-43v-76h-72v76h-209zM574 138h78v103z" />
    <glyph glyph-name="questiondown" unicode="&#xbf;" horiz-adv-x="434" 
d="M276 -48h102q2 -15 2 -34q0 -75 -45 -118q-46 -42 -117 -42q-73 0 -121 44q-43 40 -43 112q0 81 59 123q20 15 70 35l30 12q34 16 40 22q15 15 15 36q0 25 -17 39q-14 10 -30 10q-25 0 -38 -15q-16 -17 -16 -53h-98q0 68 44 116q42 42 109 42q62 0 105 -41
q41 -41 41 -106q0 -51 -32 -86q-24 -26 -87 -51q-6 -3 -19.5 -7.5t-20.5 -7.5t-16.5 -8.5t-16.5 -11.5q-22 -21 -22 -50q0 -30 17 -47t46 -17q28 0 46 18q17 17 17 53q0 18 -4 33zM276 389q0 -25 -17.5 -42.5t-42.5 -17.5t-42.5 17.5t-17.5 42.5t17.5 42.5t42.5 17.5
t42.5 -17.5t17.5 -42.5z" />
    <glyph glyph-name="Agrave" unicode="&#xc0;" horiz-adv-x="656" 
d="M542 0l-70 161h-285l-73 -161h-110l332 706l316 -706h-110zM229 257h202l-99 226zM344 727l-176 119l86 60l138 -139z" />
    <glyph glyph-name="Aacute" unicode="&#xc1;" horiz-adv-x="656" 
d="M542 0l-70 161h-285l-73 -161h-110l332 706l316 -706h-110zM229 257h202l-99 226zM312 727l-48 40l138 139l86 -60z" />
    <glyph glyph-name="Acircumflex" unicode="&#xc2;" horiz-adv-x="656" 
d="M542 0l-70 161h-285l-73 -161h-110l332 706l316 -706h-110zM229 257h202l-99 226zM330 812l-99 -82l-66 56l165 134l165 -134l-66 -56z" />
    <glyph glyph-name="Atilde" unicode="&#xc3;" horiz-adv-x="656" 
d="M542 0l-70 161h-285l-73 -161h-110l332 706l316 -706h-110zM229 257h202l-99 226zM452 863l58 -46q-41 -84 -116 -84q-27 0 -55 13q-12 6 -20.5 10t-12 6t-9.5 4q-25 9 -37 9q-35 0 -51 -42l-59 41q19 34 42 54q32 27 70 27q22 0 49 -9q32 -14 46 -21q24 -14 41 -14
q38 0 54 52z" />
    <glyph glyph-name="Adieresis" unicode="&#xc4;" horiz-adv-x="656" 
d="M542 0l-70 161h-285l-73 -161h-110l332 706l316 -706h-110zM229 257h202l-99 226zM170 795q0 26 18 44t44 18t44 -18t18 -44t-18 -44t-44 -18t-44 18t-18 44zM366 795q0 26 18 44t44 18t44 -18t18 -44t-18 -44t-44 -18t-44 18t-18 44z" />
    <glyph glyph-name="Aring" unicode="&#xc5;" horiz-adv-x="656" 
d="M542 0l-70 161h-285l-73 -161h-110l332 706l316 -706h-110zM229 257h202l-99 226zM237 823q0 41 28.5 69t68.5 28q41 0 69 -28t28 -69q0 -40 -28 -68.5t-69 -28.5q-40 0 -68.5 28.5t-28.5 68.5zM291 823q0 -18 12.5 -30.5t30.5 -12.5t30.5 12.5t12.5 30.5t-12.5 30.5
t-30.5 12.5t-30.5 -12.5t-12.5 -30.5z" />
    <glyph glyph-name="AE" unicode="&#xc6;" horiz-adv-x="926" 
d="M546 0l-70 159h-283l-73 -159h-110l320 667h295l42 -96h-265l70 -159h258l42 -96h-258l95 -220h265l42 -96h-263h-107zM238 255h198l-95 217z" />
    <glyph glyph-name="Ccedilla" unicode="&#xc7;" horiz-adv-x="620" 
d="M574 631v-120q-83 74 -181 74q-108 0 -175.5 -71.5t-67.5 -182.5q0 -107 69 -178.5t175 -71.5q103 0 180 77v-121q-85 -50 -183 -50q-137 0 -236 92q-107 99 -107 252q0 160 107 261q92 87 241 87q101 0 178 -48zM350 -53l86 -38l-112 -133l-64 32z" />
    <glyph glyph-name="Egrave" unicode="&#xc8;" 
d="M448 667v-96h-266v-169h258v-96h-258v-210h266v-96h-368v667h368zM286 727l-176 119l86 60l138 -139z" />
    <glyph glyph-name="Eacute" unicode="&#xc9;" 
d="M448 667v-96h-266v-169h258v-96h-258v-210h266v-96h-368v667h368zM234 727l-48 40l138 139l86 -60z" />
    <glyph glyph-name="Ecircumflex" unicode="&#xca;" 
d="M448 667v-96h-266v-169h258v-96h-258v-210h266v-96h-368v667h368zM270 812l-99 -82l-66 56l165 134l165 -134l-66 -56z" />
    <glyph glyph-name="Edieresis" unicode="&#xcb;" 
d="M448 667v-96h-266v-169h258v-96h-258v-210h266v-96h-368v667h368zM110 795q0 26 18 44t44 18t44 -18t18 -44t-18 -44t-44 -18t-44 18t-18 44zM306 795q0 26 18 44t44 18t44 -18t18 -44t-18 -44t-44 -18t-44 18t-18 44z" />
    <glyph glyph-name="Igrave" unicode="&#xcc;" horiz-adv-x="262" 
d="M80 667h102v-667h-102v667zM129 713l-139 161l98 35l98 -169z" />
    <glyph glyph-name="Iacute" unicode="&#xcd;" horiz-adv-x="262" 
d="M80 667h102v-667h-102v667zM174 909l98 -35l-139 -161l-57 27z" />
    <glyph glyph-name="Icircumflex" unicode="&#xce;" horiz-adv-x="262" 
d="M80 667h102v-667h-102v667zM131 812l-79 -77l-59 49l138 131l138 -131l-59 -49z" />
    <glyph glyph-name="Idieresis" unicode="&#xcf;" horiz-adv-x="262" 
d="M80 667h102v-667h-102v667zM14 795q0 23 15 39.5t35 16.5t35.5 -16.5t15.5 -39.5t-15.5 -39.5t-35.5 -16.5t-35 16.5t-15 39.5zM148 795q0 23 15 39.5t35 16.5t35 -16.5t15 -39.5t-15 -39.5t-35 -16.5t-35 16.5t-15 39.5z" />
    <glyph glyph-name="Eth" unicode="&#xd0;" horiz-adv-x="644" 
d="M80 667h140q79 0 137.5 -13.5t110.5 -51.5q61 -46 94.5 -116t33.5 -153q0 -170 -134 -269q-56 -42 -107 -53t-137 -11h-138v324h-80v86h80v257zM182 571v-161h140v-86h-140v-228h44q113 0 177 47q91 71 91 190q0 62 -25.5 113t-64.5 79q-64 46 -178 46h-44z" />
    <glyph glyph-name="Ntilde" unicode="&#xd1;" horiz-adv-x="746" 
d="M182 0h-102v712l484 -507v462h102v-708l-484 507v-466zM502 863l58 -46q-41 -84 -116 -84q-27 0 -55 13q-12 6 -20.5 10t-12 6t-9.5 4q-25 9 -37 9q-35 0 -51 -42l-59 41q19 34 42 54q32 27 70 27q22 0 49 -9q32 -14 46 -21q24 -14 41 -14q38 0 54 52z" />
    <glyph glyph-name="Ograve" unicode="&#xd2;" horiz-adv-x="790" 
d="M395 679q149 0 248 -99t99 -247t-99 -247t-248 -99t-248 99t-99 247t99 247t248 99zM395 81q108 0 176.5 70.5t68.5 181.5t-68.5 181.5t-176.5 70.5t-176.5 -70.5t-68.5 -181.5t68.5 -181.5t176.5 -70.5zM436 727l-176 119l86 60l138 -139z" />
    <glyph glyph-name="Oacute" unicode="&#xd3;" horiz-adv-x="790" 
d="M395 679q149 0 248 -99t99 -247t-99 -247t-248 -99t-248 99t-99 247t99 247t248 99zM395 81q108 0 176.5 70.5t68.5 181.5t-68.5 181.5t-176.5 70.5t-176.5 -70.5t-68.5 -181.5t68.5 -181.5t176.5 -70.5zM354 727l-48 40l138 139l86 -60z" />
    <glyph glyph-name="Ocircumflex" unicode="&#xd4;" horiz-adv-x="790" 
d="M395 679q149 0 248 -99t99 -247t-99 -247t-248 -99t-248 99t-99 247t99 247t248 99zM395 81q108 0 176.5 70.5t68.5 181.5t-68.5 181.5t-176.5 70.5t-176.5 -70.5t-68.5 -181.5t68.5 -181.5t176.5 -70.5zM395 812l-99 -82l-66 56l165 134l165 -134l-66 -56z" />
    <glyph glyph-name="Otilde" unicode="&#xd5;" horiz-adv-x="790" 
d="M395 679q149 0 248 -99t99 -247t-99 -247t-248 -99t-248 99t-99 247t99 247t248 99zM395 81q108 0 176.5 70.5t68.5 181.5t-68.5 181.5t-176.5 70.5t-176.5 -70.5t-68.5 -181.5t68.5 -181.5t176.5 -70.5zM517 863l58 -46q-41 -84 -116 -84q-27 0 -55 13q-12 6 -20.5 10
t-12 6t-9.5 4q-25 9 -37 9q-35 0 -51 -42l-59 41q19 34 42 54q32 27 70 27q22 0 49 -9q32 -14 46 -21q24 -14 41 -14q38 0 54 52z" />
    <glyph glyph-name="Odieresis" unicode="&#xd6;" horiz-adv-x="790" 
d="M395 679q149 0 248 -99t99 -247t-99 -247t-248 -99t-248 99t-99 247t99 247t248 99zM395 81q108 0 176.5 70.5t68.5 181.5t-68.5 181.5t-176.5 70.5t-176.5 -70.5t-68.5 -181.5t68.5 -181.5t176.5 -70.5zM235 795q0 26 18 44t44 18t44 -18t18 -44t-18 -44t-44 -18t-44 18
t-18 44zM431 795q0 26 18 44t44 18t44 -18t18 -44t-18 -44t-44 -18t-44 18t-18 44z" />
    <glyph glyph-name="multiply" unicode="&#xd7;" 
d="M44 193l142 143l-142 143l63 63l143 -142l143 142l63 -63l-142 -143l142 -143l-63 -63l-143 142l-143 -142z" />
    <glyph glyph-name="Oslash" unicode="&#xd8;" horiz-adv-x="790" 
d="M23 27l94 93q-69 96 -69 213q0 148 99 247t248 99q126 0 214 -69l93 94l57 -57l-93 -94q76 -92 76 -220q0 -148 -99 -247t-248 -99q-130 0 -222 75l-93 -92zM594 488l-349 -358q63 -49 150 -49q108 0 176.5 70.5t68.5 181.5q0 91 -46 155zM190 188l346 355
q-60 42 -141 42q-108 0 -176.5 -70.5t-68.5 -181.5q0 -88 40 -145z" />
    <glyph glyph-name="Ugrave" unicode="&#xd9;" horiz-adv-x="654" 
d="M80 667h102v-402q0 -78 21 -115q17 -29 49.5 -49t74.5 -20t74.5 20t49.5 49q21 37 21 115v402h102v-429q0 -105 -62 -173q-72 -78 -185 -78t-185 78q-62 68 -62 173v429zM343 727l-176 119l86 60l138 -139z" />
    <glyph glyph-name="Uacute" unicode="&#xda;" horiz-adv-x="654" 
d="M80 667h102v-402q0 -78 21 -115q17 -29 49.5 -49t74.5 -20t74.5 20t49.5 49q21 37 21 115v402h102v-429q0 -105 -62 -173q-72 -78 -185 -78t-185 78q-62 68 -62 173v429zM311 727l-48 40l138 139l86 -60z" />
    <glyph glyph-name="Ucircumflex" unicode="&#xdb;" horiz-adv-x="654" 
d="M80 667h102v-402q0 -78 21 -115q17 -29 49.5 -49t74.5 -20t74.5 20t49.5 49q21 37 21 115v402h102v-429q0 -105 -62 -173q-72 -78 -185 -78t-185 78q-62 68 -62 173v429zM327 812l-99 -82l-66 56l165 134l165 -134l-66 -56z" />
    <glyph glyph-name="Udieresis" unicode="&#xdc;" horiz-adv-x="654" 
d="M80 667h102v-402q0 -78 21 -115q17 -29 49.5 -49t74.5 -20t74.5 20t49.5 49q21 37 21 115v402h102v-429q0 -105 -62 -173q-72 -78 -185 -78t-185 78q-62 68 -62 173v429zM167 795q0 26 18 44t44 18t44 -18t18 -44t-18 -44t-44 -18t-44 18t-18 44zM363 795q0 26 18 44
t44 18t44 -18t18 -44t-18 -44t-44 -18t-44 18t-18 44z" />
    <glyph glyph-name="Yacute" unicode="&#xdd;" horiz-adv-x="540" 
d="M219 0v288l-219 379h116l154 -267l154 267h116l-219 -379v-288h-102zM254 727l-48 40l138 139l86 -60z" />
    <glyph glyph-name="Thorn" unicode="&#xde;" horiz-adv-x="480" 
d="M80 667h102v-100h45q92 0 146 -36q40 -27 61.5 -70.5t21.5 -91.5q0 -90 -65 -146q-61 -52 -163 -52h-46v-171h-102v667zM182 473v-208h46q64 0 97 28t33 77q0 17 -4.5 32t-17 32.5t-40.5 28t-69 10.5h-45z" />
    <glyph glyph-name="germandbls" unicode="&#xdf;" horiz-adv-x="568" 
d="M176 0h-98v334h-72v87h72v106q0 89 41 144q19 27 58 48.5t99 21.5q92 0 147 -55q51 -51 51 -132q0 -49 -23 -86q-18 -28 -48 -47q57 -25 90 -76q33 -50 33 -119q0 -110 -76 -175q-73 -65 -189 -65v94q82 0 130 51q35 38 35 95q0 69 -53 108q-47 32 -112 32v89h13
q48 0 77 30q27 27 27 75q0 39 -29 68q-28 25 -71 25q-49 0 -75 -31q-27 -31 -27 -90v-532z" />
    <glyph glyph-name="agrave" unicode="&#xe0;" horiz-adv-x="530" 
d="M370 372v49h98v-421h-98v44q-48 -57 -126 -57q-94 0 -149 66t-55 158q0 99 59.5 160t145.5 61q77 0 125 -60zM257 344q-52 0 -84.5 -39t-32.5 -96q0 -56 32.5 -95t84.5 -39q49 0 84 35t35 98q0 65 -35 100.5t-84 35.5zM266 485l-156 144l90 46l120 -156z" />
    <glyph glyph-name="aacute" unicode="&#xe1;" horiz-adv-x="530" 
d="M370 372v49h98v-421h-98v44q-48 -57 -126 -57q-94 0 -149 66t-55 158q0 99 59.5 160t145.5 61q77 0 125 -60zM257 344q-52 0 -84.5 -39t-32.5 -96q0 -56 32.5 -95t84.5 -39q49 0 84 35t35 98q0 65 -35 100.5t-84 35.5zM306 675l90 -46l-156 -144l-54 34z" />
    <glyph glyph-name="acircumflex" unicode="&#xe2;" horiz-adv-x="530" 
d="M370 372v49h98v-421h-98v44q-48 -57 -126 -57q-94 0 -149 66t-55 158q0 99 59.5 160t145.5 61q77 0 125 -60zM257 344q-52 0 -84.5 -39t-32.5 -96q0 -56 32.5 -95t84.5 -39q49 0 84 35t35 98q0 65 -35 100.5t-84 35.5zM250 571l-88 -86l-66 52l154 138l154 -138l-66 -52z
" />
    <glyph glyph-name="atilde" unicode="&#xe3;" horiz-adv-x="530" 
d="M370 372v49h98v-421h-98v44q-48 -57 -126 -57q-94 0 -149 66t-55 158q0 99 59.5 160t145.5 61q77 0 125 -60zM257 344q-52 0 -84.5 -39t-32.5 -96q0 -56 32.5 -95t84.5 -39q49 0 84 35t35 98q0 65 -35 100.5t-84 35.5zM372 622l58 -46q-39 -86 -116 -86q-21 0 -55 16
q-30 17 -42 22q-22 10 -37 10t-27 -9.5t-17 -19t-7 -17.5l-59 41q19 34 42 54q32 27 70 27q26 0 49 -10q28 -12 46 -23q24 -15 41 -15q36 0 54 56z" />
    <glyph glyph-name="adieresis" unicode="&#xe4;" horiz-adv-x="530" 
d="M370 372v49h98v-421h-98v44q-48 -57 -126 -57q-94 0 -149 66t-55 158q0 99 59.5 160t145.5 61q77 0 125 -60zM257 344q-52 0 -84.5 -39t-32.5 -96q0 -56 32.5 -95t84.5 -39q49 0 84 35t35 98q0 65 -35 100.5t-84 35.5zM98 569q0 26 18 44t44 18t44 -18t18 -44t-18 -44
t-44 -18t-44 18t-18 44zM278 569q0 26 18 44t44 18t44 -18t18 -44t-18 -44t-44 -18t-44 18t-18 44z" />
    <glyph glyph-name="aring" unicode="&#xe5;" horiz-adv-x="530" 
d="M370 372v49h98v-421h-98v44q-48 -57 -126 -57q-94 0 -149 66t-55 158q0 99 59.5 160t145.5 61q77 0 125 -60zM257 344q-52 0 -84.5 -39t-32.5 -96q0 -56 32.5 -95t84.5 -39q49 0 84 35t35 98q0 65 -35 100.5t-84 35.5zM156 579q0 38 28 66t66 28t66 -28t28 -66t-28 -66
t-66 -28t-66 28t-28 66zM207 579q0 -18 12.5 -30.5t30.5 -12.5t30.5 12.5t12.5 30.5t-12.5 30.5t-30.5 12.5t-30.5 -12.5t-12.5 -30.5z" />
    <glyph glyph-name="ae" unicode="&#xe6;" horiz-adv-x="756" 
d="M99 328v91q57 13 119 13q53 0 87 -13q36 -13 63 -47q23 29 58 43q35 17 87 17q90 0 144 -55q59 -62 59 -178v-12h-302q5 -54 36 -85q27 -27 75 -27q39 0 67 21q23 18 39 46l82 -46q-31 -52 -71 -77q-50 -32 -126 -32q-51 0 -88 18q-36 17 -60 50q-29 -35 -68 -52
q-35 -16 -89 -16q-82 0 -129 45q-42 39 -42 96q0 60 40 98q46 45 128 45q59 0 108 -28q0 51 -28 76q-29 25 -86 25q-48 0 -103 -16zM220 187q-47 0 -69 -21q-17 -16 -17 -37q0 -22 20 -39q23 -19 66 -19q38 0 63 16q27 17 27 44q0 26 -31 43q-22 13 -59 13zM421 267h195
q-6 35 -30 57q-28 24 -66 24q-39 0 -69 -27q-22 -22 -30 -54z" />
    <glyph glyph-name="ccedilla" unicode="&#xe7;" horiz-adv-x="420" 
d="M388 402v-110q-53 52 -119 52q-56 0 -93 -37q-36 -36 -36 -97q0 -63 38 -101q37 -34 89 -34q73 0 121 54v-109q-53 -33 -128 -33q-102 0 -160 62q-60 60 -60 158q0 99 64 163q62 62 169 62q61 0 115 -30zM219 -53l82 -32l-102 -134l-64 32z" />
    <glyph glyph-name="egrave" unicode="&#xe8;" horiz-adv-x="482" 
d="M357 142l82 -46q-31 -52 -71 -77q-49 -32 -124 -32q-88 0 -142 54q-62 62 -62 161q0 104 67 173q57 57 141 57t135 -55q59 -62 59 -178v-12h-302q5 -54 36 -85q27 -27 75 -27q39 0 67 21q23 18 39 46zM147 267h195q-6 35 -30 57q-26 24 -66 24q-42 0 -69 -27
q-23 -19 -30 -54zM271 485l-156 144l90 46l120 -156z" />
    <glyph glyph-name="eacute" unicode="&#xe9;" horiz-adv-x="482" 
d="M357 142l82 -46q-31 -52 -71 -77q-49 -32 -124 -32q-88 0 -142 54q-62 62 -62 161q0 104 67 173q57 57 141 57t135 -55q59 -62 59 -178v-12h-302q5 -54 36 -85q27 -27 75 -27q39 0 67 21q23 18 39 46zM147 267h195q-6 35 -30 57q-26 24 -66 24q-42 0 -69 -27
q-23 -19 -30 -54zM286 675l90 -46l-156 -144l-54 34z" />
    <glyph glyph-name="ecircumflex" unicode="&#xea;" horiz-adv-x="482" 
d="M357 142l82 -46q-31 -52 -71 -77q-49 -32 -124 -32q-88 0 -142 54q-62 62 -62 161q0 104 67 173q57 57 141 57t135 -55q59 -62 59 -178v-12h-302q5 -54 36 -85q27 -27 75 -27q39 0 67 21q23 18 39 46zM147 267h195q-6 35 -30 57q-26 24 -66 24q-42 0 -69 -27
q-23 -19 -30 -54zM237 571l-88 -86l-66 52l154 138l154 -138l-66 -52z" />
    <glyph glyph-name="edieresis" unicode="&#xeb;" horiz-adv-x="482" 
d="M357 142l82 -46q-31 -52 -71 -77q-49 -32 -124 -32q-88 0 -142 54q-62 62 -62 161q0 104 67 173q57 57 141 57t135 -55q59 -62 59 -178v-12h-302q5 -54 36 -85q27 -27 75 -27q39 0 67 21q23 18 39 46zM147 267h195q-6 35 -30 57q-26 24 -66 24q-42 0 -69 -27
q-23 -19 -30 -54zM93 569q0 26 18 44t44 18t44 -18t18 -44t-18 -44t-44 -18t-44 18t-18 44zM273 569q0 26 18 44t44 18t44 -18t18 -44t-18 -44t-44 -18t-44 18t-18 44z" />
    <glyph glyph-name="igrave" unicode="&#xec;" horiz-adv-x="222" 
d="M62 421h98v-421h-98v421zM110 475l-115 178l101 23l74 -183z" />
    <glyph glyph-name="iacute" unicode="&#xed;" horiz-adv-x="222" 
d="M62 421h98v-421h-98v421zM126 676l101 -23l-115 -178l-60 18z" />
    <glyph glyph-name="icircumflex" unicode="&#xee;" horiz-adv-x="222" 
d="M62 421h98v-421h-98v421zM111 568l-70 -73l-54 46l124 125l124 -125l-54 -46z" />
    <glyph glyph-name="idieresis" unicode="&#xef;" horiz-adv-x="222" 
d="M62 421h98v-421h-98v421zM-40 569q0 26 18 44t44 18t44 -18t18 -44t-18 -44t-44 -18t-44 18t-18 44zM140 569q0 26 18 44t44 18t44 -18t18 -44t-18 -44t-44 -18t-44 18t-18 44z" />
    <glyph glyph-name="eth" unicode="&#xf0;" horiz-adv-x="530" 
d="M85 601l29 72q112 -13 203 -69l131 43l20 -61l-98 -30q47 -36 75 -94q45 -85 45 -213q0 -104 -37 -165q-65 -97 -186 -97q-98 0 -159 59q-68 62 -68 168q0 96 64 160q58 58 150 58q69 0 123 -47q-22 84 -101 139l-178 -59l-20 60l126 41q-54 28 -119 35zM265 75
q55 0 89 34q36 36 36 100q0 65 -35 100t-90 35q-52 0 -86 -32q-39 -37 -39 -103q0 -64 36 -100q34 -34 89 -34z" />
    <glyph glyph-name="ntilde" unicode="&#xf1;" horiz-adv-x="485" 
d="M61 0v421h98v-39q45 50 114 50q83 0 124 -57q26 -37 26 -117v-258h-98v234q0 38 -6.5 62t-19.5 33.5t-23 12t-28 2.5q-21 0 -33.5 -3.5t-27 -16t-21.5 -43t-7 -79.5v-202h-98zM366 622l58 -46q-39 -86 -116 -86q-21 0 -55 16q-30 17 -42 22q-22 10 -37 10t-27 -9.5
t-17 -19t-7 -17.5l-59 41q19 34 42 54q32 27 70 27q26 0 49 -10q28 -12 46 -23q24 -15 41 -15q36 0 54 56z" />
    <glyph glyph-name="ograve" unicode="&#xf2;" horiz-adv-x="530" 
d="M265 432q96 0 160.5 -62.5t64.5 -159.5q0 -96 -64.5 -159.5t-160.5 -63.5t-160.5 63.5t-64.5 159.5q0 97 64.5 159.5t160.5 62.5zM265 75q57 0 91 36.5t34 97.5q0 67 -37 101t-88 34t-88 -34t-37 -101q0 -61 34 -97.5t91 -36.5zM271 485l-156 144l90 46l120 -156z" />
    <glyph glyph-name="oacute" unicode="&#xf3;" horiz-adv-x="530" 
d="M265 432q96 0 160.5 -62.5t64.5 -159.5q0 -96 -64.5 -159.5t-160.5 -63.5t-160.5 63.5t-64.5 159.5q0 97 64.5 159.5t160.5 62.5zM265 75q57 0 91 36.5t34 97.5q0 67 -37 101t-88 34t-88 -34t-37 -101q0 -61 34 -97.5t91 -36.5zM321 675l90 -46l-156 -144l-54 34z" />
    <glyph glyph-name="ocircumflex" unicode="&#xf4;" horiz-adv-x="530" 
d="M265 432q96 0 160.5 -62.5t64.5 -159.5q0 -96 -64.5 -159.5t-160.5 -63.5t-160.5 63.5t-64.5 159.5q0 97 64.5 159.5t160.5 62.5zM265 75q57 0 91 36.5t34 97.5q0 67 -37 101t-88 34t-88 -34t-37 -101q0 -61 34 -97.5t91 -36.5zM265 571l-88 -86l-66 52l154 138l154 -138
l-66 -52z" />
    <glyph glyph-name="otilde" unicode="&#xf5;" horiz-adv-x="530" 
d="M265 432q96 0 160.5 -62.5t64.5 -159.5q0 -96 -64.5 -159.5t-160.5 -63.5t-160.5 63.5t-64.5 159.5q0 97 64.5 159.5t160.5 62.5zM265 75q57 0 91 36.5t34 97.5q0 67 -37 101t-88 34t-88 -34t-37 -101q0 -61 34 -97.5t91 -36.5zM387 622l58 -46q-39 -86 -116 -86
q-21 0 -55 16q-30 17 -42 22q-22 10 -37 10t-27 -9.5t-17 -19t-7 -17.5l-59 41q19 34 42 54q32 27 70 27q26 0 49 -10q28 -12 46 -23q24 -15 41 -15q37 0 54 56z" />
    <glyph glyph-name="odieresis" unicode="&#xf6;" horiz-adv-x="530" 
d="M265 432q96 0 160.5 -62.5t64.5 -159.5q0 -96 -64.5 -159.5t-160.5 -63.5t-160.5 63.5t-64.5 159.5q0 97 64.5 159.5t160.5 62.5zM265 75q57 0 91 36.5t34 97.5q0 67 -37 101t-88 34t-88 -34t-37 -101q0 -61 34 -97.5t91 -36.5zM113 569q0 26 18 44t44 18t44 -18t18 -44
t-18 -44t-44 -18t-44 18t-18 44zM293 569q0 26 18 44t44 18t44 -18t18 -44t-18 -44t-44 -18t-44 18t-18 44z" />
    <glyph glyph-name="divide" unicode="&#xf7;" 
d="M190 513q0 25 17.5 42.5t42.5 17.5t42.5 -17.5t17.5 -42.5t-17.5 -42.5t-42.5 -17.5t-42.5 17.5t-17.5 42.5zM190 159q0 25 17.5 42.5t42.5 17.5t42.5 -17.5t17.5 -42.5t-17.5 -42.5t-42.5 -17.5t-42.5 17.5t-17.5 42.5zM33 291v90h434v-90h-434z" />
    <glyph glyph-name="oslash" unicode="&#xf8;" horiz-adv-x="530" 
d="M10 7l71 73q-41 54 -41 130q0 97 64 159.5t161 62.5q81 0 132 -41l71 70l44 -46l-68 -66q46 -62 46 -139q0 -96 -64.5 -159.5t-160.5 -63.5q-83 0 -138 46l-67 -72zM374 281l-181 -186q29 -20 72 -20q51 0 88 33.5t37 100.5q0 40 -16 72zM152 145l177 184q-30 15 -64 15
q-51 0 -88 -34t-37 -101q0 -31 12 -64z" />
    <glyph glyph-name="ugrave" unicode="&#xf9;" horiz-adv-x="484" 
d="M62 421h98v-241q0 -52 18 -76q22 -29 64 -29t64 29q18 24 18 76v241h98v-244q0 -47 -9 -79t-36 -59q-52 -52 -137 -52q-81 0 -133 52q-27 27 -36 59t-9 79v244zM241 485l-156 144l90 46l120 -156z" />
    <glyph glyph-name="uacute" unicode="&#xfa;" horiz-adv-x="484" 
d="M62 421h98v-241q0 -52 18 -76q22 -29 64 -29t64 29q18 24 18 76v241h98v-244q0 -47 -9 -79t-36 -59q-52 -52 -137 -52q-81 0 -133 52q-27 27 -36 59t-9 79v244zM306 675l90 -46l-156 -144l-54 34z" />
    <glyph glyph-name="ucircumflex" unicode="&#xfb;" horiz-adv-x="484" 
d="M62 421h98v-241q0 -52 18 -76q22 -29 64 -29t64 29q18 24 18 76v241h98v-244q0 -47 -9 -79t-36 -59q-52 -52 -137 -52q-81 0 -133 52q-27 27 -36 59t-9 79v244zM243 571l-88 -86l-66 52l154 138l154 -138l-66 -52z" />
    <glyph glyph-name="udieresis" unicode="&#xfc;" horiz-adv-x="484" 
d="M62 421h98v-241q0 -52 18 -76q22 -29 64 -29t64 29q18 24 18 76v241h98v-244q0 -47 -9 -79t-36 -59q-52 -52 -137 -52q-81 0 -133 52q-27 27 -36 59t-9 79v244zM91 569q0 26 18 44t44 18t44 -18t18 -44t-18 -44t-44 -18t-44 18t-18 44zM271 569q0 26 18 44t44 18t44 -18
t18 -44t-18 -44t-44 -18t-44 18t-18 44z" />
    <glyph glyph-name="yacute" unicode="&#xfd;" horiz-adv-x="482" 
d="M31 -229l155 295l-180 355h118l120 -246l122 246h110l-335 -650h-110zM317 675l90 -46l-156 -144l-54 34z" />
    <glyph glyph-name="thorn" unicode="&#xfe;" horiz-adv-x="530" 
d="M160 47v-276h-98v958h98v-354q48 57 125 57q86 0 145.5 -61t59.5 -160q0 -93 -55 -158.5t-149 -65.5q-77 0 -126 60zM273 75q52 0 84.5 39t32.5 95q0 57 -32.5 96t-84.5 39q-49 0 -84 -35.5t-35 -100.5q0 -63 35 -98t84 -35z" />
    <glyph glyph-name="ydieresis" unicode="&#xff;" horiz-adv-x="482" 
d="M31 -229l155 295l-180 355h118l120 -246l122 246h110l-335 -650h-110zM90 569q0 26 18 44t44 18t44 -18t18 -44t-18 -44t-44 -18t-44 18t-18 44zM270 569q0 26 18 44t44 18t44 -18t18 -44t-18 -44t-44 -18t-44 18t-18 44z" />
    <glyph glyph-name="Amacron" unicode="&#x100;" horiz-adv-x="656" 
d="M542 0l-70 161h-285l-73 -161h-110l332 706l316 -706h-110zM229 257h202l-99 226zM154 733v80h360v-80h-360z" />
    <glyph glyph-name="amacron" unicode="&#x101;" horiz-adv-x="530" 
d="M370 372v49h98v-421h-98v44q-48 -57 -126 -57q-94 0 -149 66t-55 158q0 99 59.5 160t145.5 61q77 0 125 -60zM257 344q-52 0 -84.5 -39t-32.5 -96q0 -56 32.5 -95t84.5 -39q49 0 84 35t35 98q0 65 -35 100.5t-84 35.5zM85 508v78h330v-78h-330z" />
    <glyph glyph-name="Abreve" unicode="&#x102;" horiz-adv-x="656" 
d="M542 0l-70 161h-285l-73 -161h-110l332 706l316 -706h-110zM229 257h202l-99 226zM422 874h82q-12 -52 -40 -86q-45 -58 -130 -58t-130 58q-28 34 -40 86h82q9 -33 34 -49q22 -15 54 -15t54 15q25 16 34 49z" />
    <glyph glyph-name="abreve" unicode="&#x103;" horiz-adv-x="530" 
d="M370 372v49h98v-421h-98v44q-48 -57 -126 -57q-94 0 -149 66t-55 158q0 99 59.5 160t145.5 61q77 0 125 -60zM257 344q-52 0 -84.5 -39t-32.5 -96q0 -56 32.5 -95t84.5 -39q49 0 84 35t35 98q0 65 -35 100.5t-84 35.5zM333 638h79q-14 -61 -38 -85q-41 -50 -122 -50
q-83 0 -125 49q-27 33 -39 86h79q10 -33 30 -49t52 -16q33 0 53 15q23 20 31 50z" />
    <glyph glyph-name="Aogonek" unicode="&#x104;" horiz-adv-x="656" 
d="M334 709l318 -709h-32q-30 -17 -47 -34q-25 -23 -25 -50q0 -14 10 -24q10 -9 33 -9q25 0 49 9l-9 -70q-31 -15 -62 -15q-50 0 -79 28q-24 24 -24 60q0 33 26 64q18 22 50 41l-70 161h-285l-73 -161h-110zM229 257h202l-99 226z" />
    <glyph glyph-name="aogonek" unicode="&#x105;" horiz-adv-x="530" 
d="M370 372v49h98v-421h-25q-30 -17 -51 -38q-21 -23 -21 -45q0 -14 11 -25q10 -9 30 -9q27 0 51 9l-9 -62q-30 -19 -64 -19q-46 0 -75 29q-22 22 -22 55q0 36 26 64q20 23 51 41v44q-48 -57 -126 -57q-84 0 -141 57q-63 66 -63 167q0 103 67 168q53 53 135 53q80 0 128 -60
zM257 344q-48 0 -80 -34q-37 -40 -37 -101q0 -62 37 -101q33 -33 82 -33q50 0 82 34q35 38 35 102q0 56 -36 100q-33 33 -83 33z" />
    <glyph glyph-name="Cacute" unicode="&#x106;" horiz-adv-x="620" 
d="M574 631v-120q-83 74 -181 74q-108 0 -175.5 -71.5t-67.5 -182.5q0 -107 69 -178.5t175 -71.5q103 0 180 77v-121q-85 -50 -183 -50q-137 0 -236 92q-107 99 -107 252q0 160 107 261q92 87 241 87q101 0 178 -48zM364 727l-48 40l138 139l86 -60z" />
    <glyph glyph-name="cacute" unicode="&#x107;" horiz-adv-x="420" 
d="M388 402v-110q-53 52 -119 52q-56 0 -93 -37q-36 -36 -36 -97q0 -63 38 -101q37 -34 89 -34q73 0 121 54v-109q-53 -33 -128 -33q-102 0 -160 62q-60 60 -60 158q0 99 64 163q62 62 169 62q61 0 115 -30zM306 675l90 -46l-156 -144l-54 34z" />
    <glyph glyph-name="Ccircumflex" unicode="&#x108;" horiz-adv-x="620" 
d="M574 631v-120q-83 74 -181 74q-108 0 -175.5 -71.5t-67.5 -182.5q0 -107 69 -178.5t175 -71.5q103 0 180 77v-121q-85 -50 -183 -50q-137 0 -236 92q-107 99 -107 252q0 160 107 261q92 87 241 87q101 0 178 -48zM390 812l-99 -82l-66 56l165 134l165 -134l-66 -56z" />
    <glyph glyph-name="ccircumflex" unicode="&#x109;" horiz-adv-x="420" 
d="M388 402v-110q-53 52 -119 52q-56 0 -93 -37q-36 -36 -36 -97q0 -63 38 -101q37 -34 89 -34q73 0 121 54v-109q-53 -33 -128 -33q-102 0 -160 62q-60 60 -60 158q0 99 64 163q62 62 169 62q61 0 115 -30zM260 571l-88 -86l-66 52l154 138l154 -138l-66 -52z" />
    <glyph glyph-name="Cdotaccent" unicode="&#x10a;" horiz-adv-x="620" 
d="M574 631v-120q-83 74 -181 74q-108 0 -175.5 -71.5t-67.5 -182.5q0 -107 69 -178.5t175 -71.5q103 0 180 77v-121q-85 -50 -183 -50q-137 0 -236 92q-107 99 -107 252q0 160 107 261q92 87 241 87q101 0 178 -48zM322 801q0 29 19 48t48 19t48 -19t19 -48t-19 -48
t-48 -19t-48 19t-19 48z" />
    <glyph glyph-name="cdotaccent" unicode="&#x10b;" horiz-adv-x="420" 
d="M388 402v-110q-53 52 -119 52q-56 0 -93 -37q-36 -36 -36 -97q0 -63 38 -101q37 -34 89 -34q73 0 121 54v-109q-53 -33 -128 -33q-102 0 -160 62q-60 60 -60 158q0 99 64 163q62 62 169 62q61 0 115 -30zM199 550q0 27 19 46t46 19t46 -19t19 -46t-19 -46t-46 -19t-46 19
t-19 46z" />
    <glyph glyph-name="Ccaron" unicode="&#x10c;" horiz-adv-x="620" 
d="M574 631v-120q-83 74 -181 74q-108 0 -175.5 -71.5t-67.5 -182.5q0 -107 69 -178.5t175 -71.5q103 0 180 77v-121q-85 -50 -183 -50q-137 0 -236 92q-107 99 -107 252q0 160 107 261q92 87 241 87q101 0 178 -48zM390 838l99 82l66 -56l-165 -134l-165 134l66 56z" />
    <glyph glyph-name="ccaron" unicode="&#x10d;" horiz-adv-x="420" 
d="M388 402v-110q-53 52 -119 52q-56 0 -93 -37q-36 -36 -36 -97q0 -63 38 -101q37 -34 89 -34q73 0 121 54v-109q-53 -33 -128 -33q-102 0 -160 62q-60 60 -60 158q0 99 64 163q62 62 169 62q61 0 115 -30zM260 589l88 86l66 -52l-154 -138l-154 138l66 52z" />
    <glyph glyph-name="Dcaron" unicode="&#x10e;" horiz-adv-x="644" 
d="M80 667h140q79 0 137.5 -13.5t110.5 -51.5q61 -46 94.5 -116t33.5 -153q0 -173 -134 -269q-53 -39 -109 -51.5t-135 -12.5h-138v667zM182 571v-475h44q113 0 177 47q91 71 91 190q0 62 -25.5 113t-64.5 79q-64 46 -178 46h-44zM250 838l99 82l66 -56l-165 -134l-165 134
l66 56z" />
    <glyph glyph-name="dcaron" unicode="&#x10f;" horiz-adv-x="640" 
d="M370 372v357h98v-729h-98v44q-48 -57 -126 -57q-94 0 -149 66t-55 158q0 99 59.5 160t145.5 61q77 0 125 -60zM257 344q-52 0 -84.5 -39t-32.5 -96q0 -56 32.5 -95t84.5 -39q49 0 84 35t35 98q0 65 -35 100.5t-84 35.5zM501 478l82 212l88 -34l-104 -206z" />
    <glyph glyph-name="Dcroat" unicode="&#x110;" horiz-adv-x="644" 
d="M80 667h140q79 0 137.5 -13.5t110.5 -51.5q61 -46 94.5 -116t33.5 -153q0 -170 -134 -269q-56 -42 -107 -53t-137 -11h-138v324h-80v86h80v257zM182 571v-161h140v-86h-140v-228h44q113 0 177 47q91 71 91 190q0 62 -25.5 113t-64.5 79q-64 46 -178 46h-44z" />
    <glyph glyph-name="dslash" unicode="&#x111;" horiz-adv-x="530" 
d="M370 372v180h-220v76h220v101h98v-101h72v-76h-72v-552h-98v44q-48 -57 -126 -57q-94 0 -149 66t-55 158q0 99 59.5 160t145.5 61q77 0 125 -60zM257 344q-52 0 -84.5 -39t-32.5 -96q0 -56 32.5 -95t84.5 -39q51 0 85 35t34 98q0 67 -35 101.5t-84 34.5z" />
    <glyph glyph-name="Emacron" unicode="&#x112;" 
d="M448 667v-96h-266v-169h258v-96h-258v-210h266v-96h-368v667h368zM80 733v80h360v-80h-360z" />
    <glyph glyph-name="emacron" unicode="&#x113;" horiz-adv-x="482" 
d="M357 142l82 -46q-31 -52 -71 -77q-49 -32 -124 -32q-88 0 -142 54q-62 62 -62 161q0 104 67 173q57 57 141 57t135 -55q59 -62 59 -178v-12h-302q5 -54 36 -85q27 -27 75 -27q39 0 67 21q23 18 39 46zM147 267h195q-6 35 -30 57q-26 24 -66 24q-42 0 -69 -27
q-23 -19 -30 -54zM80 508v78h330v-78h-330z" />
    <glyph glyph-name="Edotaccent" unicode="&#x116;" 
d="M448 667v-96h-266v-169h258v-96h-258v-210h266v-96h-368v667h368zM203 801q0 29 19 48t48 19t48 -19t19 -48t-19 -48t-48 -19t-48 19t-19 48z" />
    <glyph glyph-name="edotaccent" unicode="&#x117;" horiz-adv-x="482" 
d="M357 142l82 -46q-31 -52 -71 -77q-49 -32 -124 -32q-88 0 -142 54q-62 62 -62 161q0 104 67 173q57 57 141 57t135 -55q59 -62 59 -178v-12h-302q5 -54 36 -85q27 -27 75 -27q39 0 67 21q23 18 39 46zM147 267h195q-6 35 -30 57q-26 24 -66 24q-42 0 -69 -27
q-23 -19 -30 -54zM180 550q0 27 19 46t46 19t46 -19t19 -46t-19 -46t-46 -19t-46 19t-19 46z" />
    <glyph glyph-name="Eogonek" unicode="&#x118;" 
d="M448 667v-96h-266v-159h258v-96h-258v-220h266v-96h-40q-30 -17 -47 -34q-25 -23 -25 -50q0 -14 10 -24q10 -9 33 -9q25 0 49 9l-9 -70q-31 -15 -62 -15q-50 0 -79 28q-24 24 -24 60q0 33 26 64q18 22 50 41h-250v667h368z" />
    <glyph glyph-name="eogonek" unicode="&#x119;" horiz-adv-x="482" 
d="M357 142l82 -46q-21 -39 -56 -65q-29 -21 -62 -39t-46 -33q-20 -22 -20 -42q0 -14 11 -25q10 -9 30 -9q27 0 51 9l-9 -62q-30 -19 -61 -19q-51 0 -78 29q-22 22 -22 55q0 27 20 56q14 21 38 36q-83 4 -133 54q-62 60 -62 161q0 106 67 173q57 57 141 57t135 -55
q59 -62 59 -178v-12h-302q5 -54 36 -85q27 -27 75 -27q39 0 67 21q23 18 39 46zM147 267h195q-6 35 -30 57q-26 24 -66 24q-42 0 -69 -27q-23 -19 -30 -54z" />
    <glyph glyph-name="Ecaron" unicode="&#x11a;" 
d="M448 667v-96h-266v-169h258v-96h-258v-210h266v-96h-368v667h368zM270 838l99 82l66 -56l-165 -134l-165 134l66 56z" />
    <glyph glyph-name="ecaron" unicode="&#x11b;" horiz-adv-x="482" 
d="M357 142l82 -46q-31 -52 -71 -77q-49 -32 -124 -32q-88 0 -142 54q-62 62 -62 161q0 104 67 173q57 57 141 57t135 -55q59 -62 59 -178v-12h-302q5 -54 36 -85q27 -27 75 -27q39 0 67 21q23 18 39 46zM147 267h195q-6 35 -30 57q-26 24 -66 24q-42 0 -69 -27
q-23 -19 -30 -54zM245 589l88 86l66 -52l-154 -138l-154 138l66 52z" />
    <glyph glyph-name="Gcircumflex" unicode="&#x11c;" horiz-adv-x="748" 
d="M425 253v94h275v-5q0 -173 -99 -270q-88 -85 -227 -85q-140 0 -227 91q-99 104 -99 252q0 75 26.5 140t70.5 109q44 46 109.5 73t141.5 27q99 0 174 -42q71 -39 108 -100l-81 -57q-34 47 -82 76q-47 29 -118 29q-107 0 -176 -69q-33 -33 -52 -83t-19 -104q0 -107 69 -181
q64 -67 167 -67q90 0 149 59q49 48 56 113h-166zM394 812l-99 -82l-66 56l165 134l165 -134l-66 -56z" />
    <glyph glyph-name="gcircumflex" unicode="&#x11d;" horiz-adv-x="530" 
d="M370 375v46h98v-387q0 -81 -14.5 -132.5t-54.5 -86.5q-53 -45 -140 -45q-86 0 -138 52q-51 51 -62 131h95q7 -40 31 -66q27 -29 76 -29t77 28q32 31 32 106v55q-48 -60 -128 -60q-86 0 -139 57q-63 65 -63 167q0 101 62 163q58 58 143 58q77 0 125 -57zM257 344
q-43 0 -74 -28q-43 -40 -43 -107q0 -70 42 -106q33 -28 75 -28q49 0 82 34q37 40 37 99q0 68 -40 106q-30 30 -79 30zM250 571l-88 -86l-66 52l154 138l154 -138l-66 -52z" />
    <glyph glyph-name="Gbreve" unicode="&#x11e;" horiz-adv-x="748" 
d="M425 253v94h275v-5q0 -173 -99 -270q-88 -85 -227 -85q-140 0 -227 91q-99 104 -99 252q0 75 26.5 140t70.5 109q44 46 109.5 73t141.5 27q99 0 174 -42q71 -39 108 -100l-81 -57q-34 47 -82 76q-47 29 -118 29q-107 0 -176 -69q-33 -33 -52 -83t-19 -104q0 -107 69 -181
q64 -67 167 -67q90 0 149 59q49 48 56 113h-166zM482 874h82q-12 -52 -40 -86q-45 -58 -130 -58t-130 58q-28 34 -40 86h82q9 -33 34 -49q22 -15 54 -15t54 15q25 16 34 49z" />
    <glyph glyph-name="gbreve" unicode="&#x11f;" horiz-adv-x="530" 
d="M370 375v46h98v-387q0 -81 -14.5 -132.5t-54.5 -86.5q-53 -45 -140 -45q-86 0 -138 52q-51 51 -62 131h95q7 -40 31 -66q27 -29 76 -29t77 28q32 31 32 106v55q-48 -60 -128 -60q-86 0 -139 57q-63 65 -63 167q0 101 62 163q58 58 143 58q77 0 125 -57zM257 344
q-43 0 -74 -28q-43 -40 -43 -107q0 -70 42 -106q33 -28 75 -28q49 0 82 34q37 40 37 99q0 68 -40 106q-30 30 -79 30zM333 638h79q-14 -61 -38 -85q-41 -50 -122 -50q-83 0 -125 49q-27 33 -39 86h79q10 -33 30 -49t52 -16q33 0 53 15q23 20 31 50z" />
    <glyph glyph-name="Gdotaccent" unicode="&#x120;" horiz-adv-x="748" 
d="M425 253v94h275v-5q0 -173 -99 -270q-88 -85 -227 -85q-140 0 -227 91q-99 104 -99 252q0 75 26.5 140t70.5 109q44 46 109.5 73t141.5 27q99 0 174 -42q71 -39 108 -100l-81 -57q-34 47 -82 76q-47 29 -118 29q-107 0 -176 -69q-33 -33 -52 -83t-19 -104q0 -107 69 -181
q64 -67 167 -67q90 0 149 59q49 48 56 113h-166zM328 801q0 29 19 48t48 19t48 -19t19 -48t-19 -48t-48 -19t-48 19t-19 48z" />
    <glyph glyph-name="gdotaccent" unicode="&#x121;" horiz-adv-x="530" 
d="M370 375v46h98v-387q0 -81 -14.5 -132.5t-54.5 -86.5q-53 -45 -140 -45q-86 0 -138 52q-51 51 -62 131h95q7 -40 31 -66q27 -29 76 -29t77 28q32 31 32 106v55q-48 -60 -128 -60q-86 0 -139 57q-63 65 -63 167q0 101 62 163q58 58 143 58q77 0 125 -57zM257 344
q-43 0 -74 -28q-43 -40 -43 -107q0 -70 42 -106q33 -28 75 -28q49 0 82 34q37 40 37 99q0 68 -40 106q-30 30 -79 30zM186 550q0 27 19 46t46 19t46 -19t19 -46t-19 -46t-46 -19t-46 19t-19 46z" />
    <glyph glyph-name="Gcommaaccent" unicode="&#x122;" horiz-adv-x="748" 
d="M425 253v94h275v-5q0 -173 -99 -270q-88 -85 -227 -85q-140 0 -227 91q-99 104 -99 252q0 75 26.5 140t70.5 109q44 46 109.5 73t141.5 27q99 0 174 -42q71 -39 108 -100l-81 -57q-34 47 -82 76q-47 29 -118 29q-107 0 -176 -69q-33 -33 -52 -83t-19 -104q0 -107 69 -181
q64 -67 167 -67q90 0 149 59q49 48 56 113h-166zM280 -242l72 192l88 -34l-90 -186z" />
    <glyph glyph-name="gcommaaccent" unicode="&#x123;" horiz-adv-x="530" 
d="M370 375v46h98v-387q0 -81 -14.5 -132.5t-54.5 -86.5q-53 -45 -140 -45q-86 0 -138 52q-51 51 -62 131h95q7 -40 31 -66q27 -29 76 -29t77 28q32 31 32 106v55q-48 -60 -128 -60q-86 0 -139 57q-63 65 -63 167q0 101 62 163q58 58 143 58q77 0 125 -57zM257 344
q-43 0 -74 -28q-43 -40 -43 -107q0 -70 42 -106q33 -28 75 -28q49 0 82 34q37 40 37 99q0 68 -40 106q-30 30 -79 30zM365 671l-72 -192l-88 34l90 186z" />
    <glyph glyph-name="Hcircumflex" unicode="&#x124;" horiz-adv-x="650" 
d="M182 667v-256h286v256h102v-667h-102v315h-286v-315h-102v667h102zM325 812l-99 -82l-66 56l165 134l165 -134l-66 -56z" />
    <glyph glyph-name="hcircumflex" unicode="&#x125;" horiz-adv-x="486" 
d="M62 0v729h98v-344q47 47 113 47q77 0 124 -57q27 -39 27 -117v-258h-98v249q0 52 -19 73q-20 22 -55 22q-48 0 -72 -35q-20 -27 -20 -106v-203h-98zM111 811l-88 -86l-66 52l154 138l154 -138l-66 -52z" />
    <glyph glyph-name="Hbar" unicode="&#x126;" horiz-adv-x="650" 
d="M182 667v-53h286v53h102v-53h60v-84h-60v-530h-102v307h-286v-307h-102v530h-60v84h60v53h102zM468 530h-286v-127h286v127z" />
    <glyph glyph-name="hbar" unicode="&#x127;" horiz-adv-x="486" 
d="M62 0v552h-72v76h72v101h98v-101h200v-76h-200v-167q47 47 113 47q77 0 124 -57q27 -39 27 -117v-258h-98v249q0 52 -19 73q-20 22 -55 22q-48 0 -72 -35q-20 -27 -20 -106v-203h-98z" />
    <glyph glyph-name="Imacron" unicode="&#x12a;" horiz-adv-x="262" 
d="M80 667h102v-667h-102v667zM-10 733v80h282v-80h-282z" />
    <glyph glyph-name="imacron" unicode="&#x12b;" horiz-adv-x="222" 
d="M62 421h98v-421h-98v421zM-10 508v78h242v-78h-242z" />
    <glyph glyph-name="Iogonek" unicode="&#x12e;" horiz-adv-x="262" 
d="M80 667h102v-667q-32 -18 -51 -39q-21 -23 -21 -45q0 -31 40 -31q25 0 52 7l-9 -70q-31 -15 -65 -15q-43 0 -71.5 24t-28.5 64q0 36 26 64q18 22 50 41h-24v667z" />
    <glyph glyph-name="iogonek" unicode="&#x12f;" horiz-adv-x="222" 
d="M62 421h98v-421q-32 -18 -51 -39q-21 -23 -21 -45q0 -31 40 -31q28 0 52 7l-9 -62q-25 -19 -62 -19q-41 0 -70 23.5t-29 60.5q0 36 26 64q20 23 51 41h-25v421zM48 595q0 27 18 45t45 18t45 -18t18 -45t-18 -45t-45 -18t-45 18t-18 45z" />
    <glyph glyph-name="Idot" unicode="&#x130;" horiz-adv-x="262" 
d="M80 667h102v-667h-102v667zM65 801q0 29 19 48t48 19t48 -19t19 -48t-19 -48t-48 -19t-48 19t-19 48z" />
    <glyph glyph-name="dotlessi" unicode="&#x131;" horiz-adv-x="222" 
d="M62 421h98v-421h-98v421z" />
    <glyph glyph-name="Jcircumflex" unicode="&#x134;" horiz-adv-x="362" 
d="M180 667h102v-432q0 -101 -25 -152q-47 -96 -157 -96q-66 0 -118 34l50 86q28 -24 70 -24q50 0 67 45q11 24 11 107v432zM231 812l-99 -82l-66 56l165 134l165 -134l-66 -56z" />
    <glyph glyph-name="jcircumflex" unicode="&#x135;" horiz-adv-x="222" 
d="M62 421h98v-650h-98v650zM111 571l-88 -86l-66 52l154 138l154 -138l-66 -52z" />
    <glyph glyph-name="Kcommaaccent" unicode="&#x136;" horiz-adv-x="586" 
d="M182 667v-266l258 266h134l-301 -302l303 -365h-136l-238 296l-20 -20v-276h-102v667h102zM190 -242l72 192l88 -34l-90 -186z" />
    <glyph glyph-name="kcommaaccent" unicode="&#x137;" horiz-adv-x="442" 
d="M62 729h98v-449l137 141h130l-181 -175l194 -246h-124l-138 180l-18 -18v-162h-98v729zM131 -242l72 192l88 -34l-90 -186z" />
    <glyph glyph-name="Lacute" unicode="&#x139;" horiz-adv-x="394" 
d="M80 667h102v-571h196v-96h-298v667zM155 727l-48 40l138 139l86 -60z" />
    <glyph glyph-name="lacute" unicode="&#x13a;" horiz-adv-x="222" 
d="M62 729h98v-729h-98v729zM176 935l90 -46l-156 -144l-54 34z" />
    <glyph glyph-name="Lcommaaccent" unicode="&#x13b;" horiz-adv-x="394" 
d="M80 667h102v-571h196v-96h-298v667zM131 -242l72 192l88 -34l-90 -186z" />
    <glyph glyph-name="lcommaaccent" unicode="&#x13c;" horiz-adv-x="222" 
d="M62 729h98v-729h-98v729zM21 -242l72 192l88 -34l-90 -186z" />
    <glyph glyph-name="Lcaron" unicode="&#x13d;" horiz-adv-x="394" 
d="M80 667h102v-571h196v-96h-298v667zM230 468l82 212l88 -34l-104 -206z" />
    <glyph glyph-name="lcaron" unicode="&#x13e;" horiz-adv-x="330" 
d="M62 729h98v-729h-98v729zM190 478l82 212l88 -34l-104 -206z" />
    <glyph glyph-name="Ldot" unicode="&#x13f;" horiz-adv-x="394" 
d="M80 667h102v-571h196v-96h-298v667zM255 335q0 29 19 48t48 19t48 -19t19 -48t-19 -48t-48 -19t-48 19t-19 48z" />
    <glyph glyph-name="ldot" unicode="&#x140;" horiz-adv-x="352" 
d="M62 729h98v-729h-98v729zM222 364q0 27 19 46t46 19t46 -19t19 -46t-19 -46t-46 -19t-46 19t-19 46z" />
    <glyph glyph-name="Lslash" unicode="&#x141;" horiz-adv-x="394" 
d="M80 667h102v-251l120 77v-84l-120 -77v-236h196v-96h-298v287l-80 -51v84l80 51v296z" />
    <glyph glyph-name="lslash" unicode="&#x142;" horiz-adv-x="222" 
d="M62 729h98v-215l62 48v-80l-62 -48v-434h-98v374l-62 -48v80l62 48v275z" />
    <glyph glyph-name="Nacute" unicode="&#x143;" horiz-adv-x="746" 
d="M182 0h-102v712l484 -507v462h102v-708l-484 507v-466zM357 727l-48 40l138 139l86 -60z" />
    <glyph glyph-name="nacute" unicode="&#x144;" horiz-adv-x="485" 
d="M61 0v421h98v-39q45 50 114 50q83 0 124 -57q26 -37 26 -117v-258h-98v234q0 38 -6.5 62t-19.5 33.5t-23 12t-28 2.5q-21 0 -33.5 -3.5t-27 -16t-21.5 -43t-7 -79.5v-202h-98zM319 675l90 -46l-156 -144l-54 34z" />
    <glyph glyph-name="Ncommaaccent" unicode="&#x145;" horiz-adv-x="746" 
d="M182 0h-102v712l484 -507v462h102v-708l-484 507v-466zM280 -242l72 192l88 -34l-90 -186z" />
    <glyph glyph-name="ncommaaccent" unicode="&#x146;" horiz-adv-x="485" 
d="M61 0v421h98v-39q45 50 114 50q83 0 124 -57q26 -37 26 -117v-258h-98v234q0 38 -6.5 62t-19.5 33.5t-23 12t-28 2.5q-21 0 -33.5 -3.5t-27 -16t-21.5 -43t-7 -79.5v-202h-98zM141 -242l72 192l88 -34l-90 -186z" />
    <glyph glyph-name="Ncaron" unicode="&#x147;" horiz-adv-x="746" 
d="M182 0h-102v712l484 -507v462h102v-708l-484 507v-466zM373 838l99 82l66 -56l-165 -134l-165 134l66 56z" />
    <glyph glyph-name="ncaron" unicode="&#x148;" horiz-adv-x="485" 
d="M61 0v421h98v-39q45 50 114 50q83 0 124 -57q26 -37 26 -117v-258h-98v234q0 38 -6.5 62t-19.5 33.5t-23 12t-28 2.5q-21 0 -33.5 -3.5t-27 -16t-21.5 -43t-7 -79.5v-202h-98zM260 589l88 86l66 -52l-154 -138l-154 138l66 52z" />
    <glyph glyph-name="Omacron" unicode="&#x14c;" horiz-adv-x="790" 
d="M395 679q149 0 248 -99t99 -247t-99 -247t-248 -99t-248 99t-99 247t99 247t248 99zM395 81q108 0 176.5 70.5t68.5 181.5t-68.5 181.5t-176.5 70.5t-176.5 -70.5t-68.5 -181.5t68.5 -181.5t176.5 -70.5zM215 733v80h360v-80h-360z" />
    <glyph glyph-name="omacron" unicode="&#x14d;" horiz-adv-x="530" 
d="M265 432q96 0 160.5 -62.5t64.5 -159.5q0 -96 -64.5 -159.5t-160.5 -63.5t-160.5 63.5t-64.5 159.5q0 97 64.5 159.5t160.5 62.5zM265 75q57 0 91 36.5t34 97.5q0 67 -37 101t-88 34t-88 -34t-37 -101q0 -61 34 -97.5t91 -36.5zM100 508v78h330v-78h-330z" />
    <glyph glyph-name="Obreve" unicode="&#x14e;" horiz-adv-x="790" 
d="M395 679q149 0 248 -99t99 -247t-99 -247t-248 -99t-248 99t-99 247t99 247t248 99zM395 81q108 0 176.5 70.5t68.5 181.5t-68.5 181.5t-176.5 70.5t-176.5 -70.5t-68.5 -181.5t68.5 -181.5t176.5 -70.5zM483 874h82q-12 -52 -40 -86q-45 -58 -130 -58t-130 58
q-28 34 -40 86h82q9 -33 34 -49q22 -15 54 -15t54 15q25 16 34 49z" />
    <glyph glyph-name="obreve" unicode="&#x14f;" horiz-adv-x="530" 
d="M265 432q96 0 160.5 -62.5t64.5 -159.5q0 -96 -64.5 -159.5t-160.5 -63.5t-160.5 63.5t-64.5 159.5q0 97 64.5 159.5t160.5 62.5zM265 75q57 0 91 36.5t34 97.5q0 67 -37 101t-88 34t-88 -34t-37 -101q0 -61 34 -97.5t91 -36.5zM348 638h79q-14 -61 -38 -85
q-41 -50 -122 -50q-83 0 -125 49q-27 33 -39 86h79q10 -33 30 -49t52 -16q33 0 53 15q23 20 31 50z" />
    <glyph glyph-name="Ohungarumlaut" unicode="&#x150;" horiz-adv-x="790" 
d="M395 679q149 0 248 -99t99 -247t-99 -247t-248 -99t-248 99t-99 247t99 247t248 99zM395 81q108 0 176.5 70.5t68.5 181.5t-68.5 181.5t-176.5 70.5t-176.5 -70.5t-68.5 -181.5t68.5 -181.5t176.5 -70.5zM377 906l78 -52l-156 -127l-44 36zM577 906l78 -52l-156 -127
l-44 36z" />
    <glyph glyph-name="ohungarumlaut" unicode="&#x151;" horiz-adv-x="530" 
d="M265 432q96 0 160.5 -62.5t64.5 -159.5q0 -96 -64.5 -159.5t-160.5 -63.5t-160.5 63.5t-64.5 159.5q0 97 64.5 159.5t160.5 62.5zM265 75q57 0 91 36.5t34 97.5q0 67 -37 101t-88 34t-88 -34t-37 -101q0 -61 34 -97.5t91 -36.5zM247 675l82 -46l-146 -144l-42 34z
M427 675l82 -46l-146 -144l-42 34z" />
    <glyph glyph-name="OE" unicode="&#x152;" horiz-adv-x="1058" 
d="M1006 667v-96h-266v-159h258v-96h-258v-220h266v-96h-368v92q-89 -105 -243 -105q-149 0 -248 100t-99 246q0 148 99 247t248 99t243 -108v96h368zM395 585q-108 0 -176.5 -70.5t-68.5 -181.5t68.5 -181.5t176.5 -70.5t176.5 70.5t68.5 181.5t-68.5 181.5t-176.5 70.5z
" />
    <glyph glyph-name="oe" unicode="&#x153;" horiz-adv-x="838" 
d="M713 142l82 -46q-31 -52 -71 -77q-49 -32 -121 -32q-57 0 -100 22t-64 59q-33 -41 -76 -61q-45 -20 -104 -20q-93 0 -155 64q-64 66 -64 164q0 86 57 147q66 70 168 70q57 0 102 -21t72 -60q28 39 66 60q44 21 99 21q81 0 135 -55q59 -62 59 -178v-12h-302q5 -54 36 -85
q27 -27 75 -27q39 0 67 21q23 18 39 46zM265 75q54 0 87 33q38 35 38 101q0 63 -33 98q-34 37 -92 37q-54 0 -88 -34q-37 -37 -37 -102q0 -63 38 -101q32 -32 87 -32zM503 267h195q-6 35 -30 57q-26 24 -66 24q-42 0 -69 -27q-23 -19 -30 -54z" />
    <glyph glyph-name="Racute" unicode="&#x154;" horiz-adv-x="534" 
d="M80 667h119q118 0 176 -39q79 -53 79 -157q0 -71 -40.5 -121t-107.5 -65l208 -285h-123l-191 273h-18v-273h-102v667zM182 573v-212h32q18 0 35 2.5t45 11.5t45 33.5t17 61.5q0 103 -139 103h-35zM234 727l-48 40l138 139l86 -60z" />
    <glyph glyph-name="racute" unicode="&#x155;" horiz-adv-x="332" 
d="M62 0v421h98v-38q20 24 41 35q24 14 60 14q43 0 77 -20l-40 -89q-23 15 -50 15q-39 0 -61 -23q-27 -29 -27 -97v-218h-98zM286 675l90 -46l-156 -144l-54 34z" />
    <glyph glyph-name="Rcommaaccent" unicode="&#x156;" horiz-adv-x="534" 
d="M80 667h119q118 0 176 -39q79 -53 79 -157q0 -71 -40.5 -121t-107.5 -65l208 -285h-123l-191 273h-18v-273h-102v667zM182 573v-212h32q18 0 35 2.5t45 11.5t45 33.5t17 61.5q0 103 -139 103h-35zM180 -242l72 192l88 -34l-90 -186z" />
    <glyph glyph-name="rcommaaccent" unicode="&#x157;" horiz-adv-x="332" 
d="M62 0v421h98v-38q20 24 41 35q24 14 60 14q43 0 77 -20l-40 -89q-23 15 -50 15q-39 0 -61 -23q-27 -29 -27 -97v-218h-98zM71 -242l72 192l88 -34l-90 -186z" />
    <glyph glyph-name="Rcaron" unicode="&#x158;" horiz-adv-x="534" 
d="M80 667h119q118 0 176 -39q79 -53 79 -157q0 -71 -40.5 -121t-107.5 -65l208 -285h-123l-191 273h-18v-273h-102v667zM182 573v-212h32q18 0 35 2.5t45 11.5t45 33.5t17 61.5q0 103 -139 103h-35zM241 838l99 82l66 -56l-165 -134l-165 134l66 56z" />
    <glyph glyph-name="rcaron" unicode="&#x159;" horiz-adv-x="332" 
d="M62 0v421h98v-38q20 24 41 35q24 14 60 14q43 0 77 -20l-40 -89q-23 15 -50 15q-39 0 -61 -23q-27 -29 -27 -97v-218h-98zM211 589l88 86l66 -52l-154 -138l-154 138l66 52z" />
    <glyph glyph-name="Sacute" unicode="&#x15a;" horiz-adv-x="516" 
d="M450 567l-82 -48q-13 27 -30 42q-30 24 -72 24q-45 0 -69.5 -23t-24.5 -57q0 -51 72 -81l67 -27q87 -36 122 -84.5t35 -111.5q0 -95 -60.5 -154.5t-154.5 -59.5q-97 0 -157 67q-50 55 -56 130l101 22q0 -48 28 -85q32 -40 87 -40q48 0 79 31t31 81q0 24 -8 43t-24 32.5
t-30 21.5t-34 17l-64 27q-136 59 -136 169q0 72 52.5 124t142.5 52q84 0 134 -45q28 -23 51 -67zM242 727l-48 40l138 139l86 -60z" />
    <glyph glyph-name="sacute" unicode="&#x15b;" horiz-adv-x="360" 
d="M319 358l-73 -48q-25 36 -60 36q-19 0 -30 -11q-9 -9 -9 -22q0 -15 14 -24l13 -6.5t20 -10.5l50 -25q41 -19 59 -39q31 -31 31 -78q0 -56 -37 -96q-43 -47 -118 -47q-55 0 -91 27q-37 29 -54 77l80 38q9 -28 23 -40q16 -16 43 -16q26 0 40 14t14 33t-13 32q-14 14 -42 26
l-36 17q-42 20 -58 36q-30 27 -30 71q0 55 35 90q38 40 103 40q45 0 78 -22q29 -17 48 -52zM256 675l90 -46l-156 -144l-54 34z" />
    <glyph glyph-name="Scircumflex" unicode="&#x15c;" horiz-adv-x="516" 
d="M450 567l-82 -48q-13 27 -30 42q-30 24 -72 24q-45 0 -69.5 -23t-24.5 -57q0 -51 72 -81l67 -27q87 -36 122 -84.5t35 -111.5q0 -95 -60.5 -154.5t-154.5 -59.5q-97 0 -157 67q-50 55 -56 130l101 22q0 -48 28 -85q32 -40 87 -40q48 0 79 31t31 81q0 24 -8 43t-24 32.5
t-30 21.5t-34 17l-64 27q-136 59 -136 169q0 72 52.5 124t142.5 52q84 0 134 -45q28 -23 51 -67zM260 812l-99 -82l-66 56l165 134l165 -134l-66 -56z" />
    <glyph glyph-name="scircumflex" unicode="&#x15d;" horiz-adv-x="360" 
d="M319 358l-73 -48q-25 36 -60 36q-19 0 -30 -11q-9 -9 -9 -22q0 -15 14 -24l13 -6.5t20 -10.5l50 -25q41 -19 59 -39q31 -31 31 -78q0 -56 -37 -96q-43 -47 -118 -47q-55 0 -91 27q-37 29 -54 77l80 38q9 -28 23 -40q16 -16 43 -16q26 0 40 14t14 33t-13 32q-14 14 -42 26
l-36 17q-42 20 -58 36q-30 27 -30 71q0 55 35 90q38 40 103 40q45 0 78 -22q29 -17 48 -52zM181 571l-88 -86l-66 52l154 138l154 -138l-66 -52z" />
    <glyph glyph-name="Scedilla" unicode="&#x15e;" horiz-adv-x="516" 
d="M450 567l-82 -48q-13 27 -30 42q-30 24 -72 24q-45 0 -69.5 -23t-24.5 -57q0 -51 72 -81l67 -27q87 -36 122 -84.5t35 -111.5q0 -95 -60.5 -154.5t-154.5 -59.5q-97 0 -157 67q-50 55 -56 130l101 22q0 -48 28 -85q32 -40 87 -40q48 0 79 31t31 81q0 24 -8 43t-24 32.5
t-30 21.5t-34 17l-64 27q-136 59 -136 169q0 72 52.5 124t142.5 52q84 0 134 -45q28 -23 51 -67zM241 -53l86 -38l-112 -133l-64 32z" />
    <glyph glyph-name="scedilla" unicode="&#x15f;" horiz-adv-x="360" 
d="M319 358l-73 -48q-25 36 -60 36q-19 0 -30 -11q-9 -9 -9 -22q0 -15 14 -24l13 -6.5t20 -10.5l50 -25q41 -19 59 -39q31 -31 31 -78q0 -56 -37 -96q-43 -47 -118 -47q-55 0 -91 27q-37 29 -54 77l80 38q9 -28 23 -40q16 -16 43 -16q26 0 40 14t14 33t-13 32q-14 14 -42 26
l-36 17q-42 20 -58 36q-30 27 -30 71q0 55 35 90q38 40 103 40q45 0 78 -22q29 -17 48 -52zM169 -53l82 -32l-102 -134l-64 32z" />
    <glyph glyph-name="Scaron" unicode="&#x160;" horiz-adv-x="516" 
d="M450 567l-82 -48q-13 27 -30 42q-30 24 -72 24q-45 0 -69.5 -23t-24.5 -57q0 -51 72 -81l67 -27q87 -36 122 -84.5t35 -111.5q0 -95 -60.5 -154.5t-154.5 -59.5q-97 0 -157 67q-50 55 -56 130l101 22q0 -48 28 -85q32 -40 87 -40q48 0 79 31t31 81q0 24 -8 43t-24 32.5
t-30 21.5t-34 17l-64 27q-136 59 -136 169q0 72 52.5 124t142.5 52q84 0 134 -45q28 -23 51 -67zM260 838l99 82l66 -56l-165 -134l-165 134l66 56z" />
    <glyph glyph-name="scaron" unicode="&#x161;" horiz-adv-x="360" 
d="M319 358l-73 -48q-25 36 -60 36q-19 0 -30 -11q-9 -9 -9 -22q0 -15 14 -24l13 -6.5t20 -10.5l50 -25q41 -19 59 -39q31 -31 31 -78q0 -56 -37 -96q-43 -47 -118 -47q-55 0 -91 27q-37 29 -54 77l80 38q9 -28 23 -40q16 -16 43 -16q26 0 40 14t14 33t-13 32q-14 14 -42 26
l-36 17q-42 20 -58 36q-30 27 -30 71q0 55 35 90q38 40 103 40q45 0 78 -22q29 -17 48 -52zM181 589l88 86l66 -52l-154 -138l-154 138l66 52z" />
    <glyph glyph-name="Tcedilla" unicode="&#x162;" horiz-adv-x="428" 
d="M418 571h-153v-571h-102v571h-153v96h408v-96zM201 -53l86 -38l-112 -133l-64 32z" />
    <glyph glyph-name="tcedilla" unicode="&#x163;" horiz-adv-x="242" 
d="M238 331h-75v-331h-98v331h-41v90h41v154h98v-154h75v-90zM99 -53l82 -32l-102 -134l-64 32z" />
    <glyph glyph-name="Tcaron" unicode="&#x164;" horiz-adv-x="428" 
d="M418 571h-153v-571h-102v571h-153v96h408v-96zM215 838l99 82l66 -56l-165 -134l-165 134l66 56z" />
    <glyph glyph-name="tcaron" unicode="&#x165;" horiz-adv-x="340" 
d="M238 331h-75v-331h-98v331h-41v90h41v154h98v-154h75v-90zM200 478l82 212l88 -34l-104 -206z" />
    <glyph glyph-name="Utilde" unicode="&#x168;" horiz-adv-x="654" 
d="M80 667h102v-402q0 -78 21 -115q17 -29 49.5 -49t74.5 -20t74.5 20t49.5 49q21 37 21 115v402h102v-429q0 -105 -62 -173q-72 -78 -185 -78t-185 78q-62 68 -62 173v429zM449 832l58 -46q-39 -86 -116 -86q-21 0 -55 16q-30 17 -42 22q-22 10 -37 10t-27 -9.5t-17 -19
t-7 -17.5l-59 41q19 34 42 54q32 27 70 27q26 0 49 -10q28 -12 46 -23q24 -15 41 -15q37 0 54 56z" />
    <glyph glyph-name="utilde" unicode="&#x169;" horiz-adv-x="484" 
d="M62 421h98v-241q0 -52 18 -76q22 -29 64 -29t64 29q18 24 18 76v241h98v-244q0 -47 -9 -79t-36 -59q-52 -52 -137 -52q-81 0 -133 52q-27 27 -36 59t-9 79v244zM365 622l58 -46q-39 -86 -116 -86q-21 0 -55 16q-30 17 -42 22q-22 10 -37 10t-27 -9.5t-17 -19t-7 -17.5
l-59 41q19 34 42 54q32 27 70 27q26 0 49 -10q28 -12 46 -23q24 -15 41 -15q37 0 54 56z" />
    <glyph glyph-name="Umacron" unicode="&#x16a;" horiz-adv-x="654" 
d="M80 667h102v-402q0 -78 21 -115q17 -29 49.5 -49t74.5 -20t74.5 20t49.5 49q21 37 21 115v402h102v-429q0 -105 -62 -173q-72 -78 -185 -78t-185 78q-62 68 -62 173v429zM147 733v80h360v-80h-360z" />
    <glyph glyph-name="umacron" unicode="&#x16b;" horiz-adv-x="484" 
d="M62 421h98v-241q0 -52 18 -76q22 -29 64 -29t64 29q18 24 18 76v241h98v-244q0 -47 -9 -79t-36 -59q-52 -52 -137 -52q-81 0 -133 52q-27 27 -36 59t-9 79v244zM78 508v78h330v-78h-330z" />
    <glyph glyph-name="Ubreve" unicode="&#x16c;" horiz-adv-x="654" 
d="M80 667h102v-402q0 -78 21 -115q17 -29 49.5 -49t74.5 -20t74.5 20t49.5 49q21 37 21 115v402h102v-429q0 -105 -62 -173q-72 -78 -185 -78t-185 78q-62 68 -62 173v429zM415 874h82q-12 -52 -40 -86q-45 -58 -130 -58t-130 58q-28 34 -40 86h82q9 -33 34 -49
q22 -15 54 -15t54 15q25 16 34 49z" />
    <glyph glyph-name="ubreve" unicode="&#x16d;" horiz-adv-x="484" 
d="M62 421h98v-241q0 -52 18 -76q22 -29 64 -29t64 29q18 24 18 76v241h98v-244q0 -47 -9 -79t-36 -59q-52 -52 -137 -52q-81 0 -133 52q-27 27 -36 59t-9 79v244zM326 638h79q-14 -61 -38 -85q-41 -50 -122 -50q-83 0 -125 49q-27 33 -39 86h79q10 -33 30 -49t52 -16
q33 0 53 15q23 20 31 50z" />
    <glyph glyph-name="Uring" unicode="&#x16e;" horiz-adv-x="654" 
d="M80 667h102v-402q0 -78 21 -115q17 -29 49.5 -49t74.5 -20t74.5 20t49.5 49q21 37 21 115v402h102v-429q0 -105 -62 -173q-72 -78 -185 -78t-185 78q-62 68 -62 173v429zM230 823q0 41 28.5 69t68.5 28q41 0 69 -28t28 -69q0 -40 -28 -68.5t-69 -28.5q-40 0 -68.5 28.5
t-28.5 68.5zM284 823q0 -18 12.5 -30.5t30.5 -12.5t30.5 12.5t12.5 30.5t-12.5 30.5t-30.5 12.5t-30.5 -12.5t-12.5 -30.5z" />
    <glyph glyph-name="uring" unicode="&#x16f;" horiz-adv-x="484" 
d="M62 421h98v-241q0 -52 18 -76q22 -29 64 -29t64 29q18 24 18 76v241h98v-244q0 -47 -9 -79t-36 -59q-52 -52 -137 -52q-81 0 -133 52q-27 27 -36 59t-9 79v244zM149 579q0 38 28 66t66 28t66 -28t28 -66t-28 -66t-66 -28t-66 28t-28 66zM200 579q0 -18 12.5 -30.5
t30.5 -12.5t30.5 12.5t12.5 30.5t-12.5 30.5t-30.5 12.5t-30.5 -12.5t-12.5 -30.5z" />
    <glyph glyph-name="Uhungarumlaut" unicode="&#x170;" horiz-adv-x="654" 
d="M80 667h102v-402q0 -78 21 -115q17 -29 49.5 -49t74.5 -20t74.5 20t49.5 49q21 37 21 115v402h102v-429q0 -105 -62 -173q-72 -78 -185 -78t-185 78q-62 68 -62 173v429zM309 906l78 -52l-156 -127l-44 36zM509 906l78 -52l-156 -127l-44 36z" />
    <glyph glyph-name="uhungarumlaut" unicode="&#x171;" horiz-adv-x="484" 
d="M62 421h98v-241q0 -52 18 -76q22 -29 64 -29t64 29q18 24 18 76v241h98v-244q0 -47 -9 -79t-36 -59q-52 -52 -137 -52q-81 0 -133 52q-27 27 -36 59t-9 79v244zM225 675l82 -46l-146 -144l-42 34zM405 675l82 -46l-146 -144l-42 34z" />
    <glyph glyph-name="Uogonek" unicode="&#x172;" horiz-adv-x="654" 
d="M80 667h102v-402q0 -79 21 -115q17 -29 49.5 -49t74.5 -20t74.5 20t49.5 49q21 37 21 115v402h102v-429q0 -96 -46 -155q-31 -39 -91 -75q-9 -5 -25 -13.5t-26.5 -15t-19.5 -13.5q-27 -22 -27 -50q0 -16 12 -25q10 -8 28 -8q28 0 52 9l-9 -70q-32 -15 -65 -15
q-51 0 -79 31q-21 23 -21 57q0 31 22 59q8 11 38 36q-108 0 -175 75q-62 68 -62 173v429z" />
    <glyph glyph-name="uogonek" unicode="&#x173;" horiz-adv-x="484" 
d="M62 421h98v-242q0 -52 18 -76q22 -28 64 -28t64 28q18 24 18 76v242h98v-244q0 -28 -2 -47t-12.5 -45t-30.5 -46q-17 -17 -64 -45q-39 -24 -49 -35q-20 -21 -20 -42q0 -18 10 -25q11 -9 34 -9q24 0 48 9l-9 -62q-30 -19 -61 -19q-51 0 -78 29q-22 22 -22 55q0 29 19 54
q23 27 39 39q-71 5 -117 51q-29 29 -37 61.5t-8 76.5v244z" />
    <glyph glyph-name="Ydieresis" unicode="&#x178;" horiz-adv-x="540" 
d="M219 0v288l-219 379h116l154 -267l154 267h116l-219 -379v-288h-102zM110 795q0 26 18 44t44 18t44 -18t18 -44t-18 -44t-44 -18t-44 18t-18 44zM306 795q0 26 18 44t44 18t44 -18t18 -44t-18 -44t-44 -18t-44 18t-18 44z" />
    <glyph glyph-name="Zacute" unicode="&#x179;" horiz-adv-x="554" 
d="M524 667l-328 -571h320v-96h-486l328 571h-274v96h440zM274 727l-48 40l138 139l86 -60z" />
    <glyph glyph-name="zacute" unicode="&#x17a;" horiz-adv-x="480" 
d="M472 421l-271 -331h250v-90h-443l273 331h-215v90h406zM316 675l90 -46l-156 -144l-54 34z" />
    <glyph glyph-name="Zdotaccent" unicode="&#x17b;" horiz-adv-x="554" 
d="M524 667l-328 -571h320v-96h-486l328 571h-274v96h440zM223 801q0 29 19 48t48 19t48 -19t19 -48t-19 -48t-48 -19t-48 19t-19 48z" />
    <glyph glyph-name="zdotaccent" unicode="&#x17c;" horiz-adv-x="480" 
d="M472 421l-271 -331h250v-90h-443l273 331h-215v90h406zM195 550q0 27 19 46t46 19t46 -19t19 -46t-19 -46t-46 -19t-46 19t-19 46z" />
    <glyph glyph-name="Zcaron" unicode="&#x17d;" horiz-adv-x="554" 
d="M524 667l-328 -571h320v-96h-486l328 571h-274v96h440zM290 838l99 82l66 -56l-165 -134l-165 134l66 56z" />
    <glyph glyph-name="zcaron" unicode="&#x17e;" horiz-adv-x="480" 
d="M472 421l-271 -331h250v-90h-443l273 331h-215v90h406zM260 589l88 86l66 -52l-154 -138l-154 138l66 52z" />
    <glyph glyph-name="uni018F" unicode="&#x18f;" horiz-adv-x="748" 
d="M149 478l-72 66q33 44 73 71q91 64 203 64q154 0 252 -102q95 -101 95 -244q0 -147 -102 -249q-97 -97 -239 -97q-160 0 -248 124q-63 90 -63 215v31h549q-8 103 -78 165.5t-166 62.5q-124 0 -204 -107zM589 263h-432q6 -64 44 -111q60 -71 159 -71q109 0 177 77
q39 45 52 105z" />
    <glyph glyph-name="florin" unicode="&#x192;" horiz-adv-x="568" 
d="M508 731l-18 -93q-21 10 -44 10q-32 0 -51 -21q-15 -16 -28 -74l-24 -132h112l-14 -78h-112l-51 -279q-9 -50 -14.5 -72.5t-21 -58.5t-36.5 -56q-64 -64 -186 -53l16 93h6q63 0 90 27t44 119l51 280h-85l14 78h85l26 144q19 93 58 132q43 43 115 43q36 0 68 -9z" />
    <glyph glyph-name="uni01CF" unicode="&#x1cf;" horiz-adv-x="262" 
d="M80 667h102v-667h-102v667zM131 838l79 77l59 -49l-138 -131l-138 131l59 49z" />
    <glyph glyph-name="uni01D0" unicode="&#x1d0;" horiz-adv-x="222" 
d="M62 421h98v-421h-98v421zM111 593l70 73l54 -46l-124 -125l-124 125l54 46z" />
    <glyph glyph-name="uni01DD" unicode="&#x1dd;" horiz-adv-x="488" 
d="M133 292l-89 30q25 52 73 80q48 30 117 30q91 0 149 -52q65 -61 65 -174q0 -102 -64 -166q-56 -53 -142 -53q-84 0 -135 50q-67 67 -67 180v25h306q-5 51 -35 76q-28 26 -78 26q-36 0 -63 -16q-17 -9 -37 -36zM339 162h-195q6 -45 30 -68q23 -23 66 -23q42 0 68 26
q27 27 31 65z" />
    <glyph glyph-name="Gcaron" unicode="&#x1e6;" horiz-adv-x="748" 
d="M425 253v94h275v-5q0 -173 -99 -270q-88 -85 -227 -85q-140 0 -227 91q-99 104 -99 252q0 75 26.5 140t70.5 109q44 46 109.5 73t141.5 27q99 0 174 -42q71 -39 108 -100l-81 -57q-34 47 -82 76q-47 29 -118 29q-107 0 -176 -69q-33 -33 -52 -83t-19 -104q0 -107 69 -181
q64 -67 167 -67q90 0 149 59q49 48 56 113h-166zM374 838l99 82l66 -56l-165 -134l-165 134l66 56z" />
    <glyph glyph-name="gcaron" unicode="&#x1e7;" horiz-adv-x="530" 
d="M370 375v46h98v-387q0 -81 -14.5 -132.5t-54.5 -86.5q-53 -45 -140 -45q-86 0 -138 52q-51 51 -62 131h95q7 -40 31 -66q27 -29 76 -29t77 28q32 31 32 106v55q-48 -60 -128 -60q-86 0 -139 57q-63 65 -63 167q0 101 62 163q58 58 143 58q77 0 125 -57zM257 344
q-43 0 -74 -28q-43 -40 -43 -107q0 -70 42 -106q33 -28 75 -28q49 0 82 34q37 40 37 99q0 68 -40 106q-30 30 -79 30zM265 589l88 86l66 -52l-154 -138l-154 138l66 52z" />
    <glyph glyph-name="AEacute" unicode="&#x1fc;" horiz-adv-x="926" 
d="M546 0l-70 159h-283l-73 -159h-110l320 667h295l42 -96h-265l70 -159h258l42 -96h-258l95 -220h265l42 -96h-263h-107zM238 255h198l-95 217zM447 727l-48 40l138 139l86 -60z" />
    <glyph glyph-name="aeacute" unicode="&#x1fd;" horiz-adv-x="756" 
d="M99 328v91q57 13 119 13q53 0 87 -13q36 -13 63 -47q23 29 58 43q35 17 87 17q90 0 144 -55q59 -62 59 -178v-12h-302q5 -54 36 -85q27 -27 75 -27q39 0 67 21q23 18 39 46l82 -46q-31 -52 -71 -77q-50 -32 -126 -32q-51 0 -88 18q-36 17 -60 50q-29 -35 -68 -52
q-35 -16 -89 -16q-82 0 -129 45q-42 39 -42 96q0 60 40 98q46 45 128 45q59 0 108 -28q0 51 -28 76q-29 25 -86 25q-48 0 -103 -16zM220 187q-47 0 -69 -21q-17 -16 -17 -37q0 -22 20 -39q23 -19 66 -19q38 0 63 16q27 17 27 44q0 26 -31 43q-22 13 -59 13zM421 267h195
q-6 35 -30 57q-28 24 -66 24q-39 0 -69 -27q-22 -22 -30 -54zM453 675l90 -46l-156 -144l-54 34z" />
    <glyph glyph-name="Scommaaccent" unicode="&#x218;" horiz-adv-x="516" 
d="M450 567l-82 -48q-13 27 -30 42q-30 24 -72 24q-45 0 -69.5 -23t-24.5 -57q0 -51 72 -81l67 -27q87 -36 122 -84.5t35 -111.5q0 -95 -60.5 -154.5t-154.5 -59.5q-97 0 -157 67q-50 55 -56 130l101 22q0 -48 28 -85q32 -40 87 -40q48 0 79 31t31 81q0 24 -8 43t-24 32.5
t-30 21.5t-34 17l-64 27q-136 59 -136 169q0 72 52.5 124t142.5 52q84 0 134 -45q28 -23 51 -67zM161 -242l72 192l88 -34l-90 -186z" />
    <glyph glyph-name="scommaaccent" unicode="&#x219;" horiz-adv-x="360" 
d="M319 358l-73 -48q-25 36 -60 36q-19 0 -30 -11q-9 -9 -9 -22q0 -15 14 -24l13 -6.5t20 -10.5l50 -25q41 -19 59 -39q31 -31 31 -78q0 -56 -37 -96q-43 -47 -118 -47q-55 0 -91 27q-37 29 -54 77l80 38q9 -28 23 -40q16 -16 43 -16q26 0 40 14t14 33t-13 32q-14 14 -42 26
l-36 17q-42 20 -58 36q-30 27 -30 71q0 55 35 90q38 40 103 40q45 0 78 -22q29 -17 48 -52zM81 -242l72 192l88 -34l-90 -186z" />
    <glyph glyph-name="Tcommaaccent" unicode="&#x21a;" horiz-adv-x="428" 
d="M418 571h-153v-571h-102v571h-153v96h408v-96zM131 -242l72 192l88 -34l-90 -186z" />
    <glyph glyph-name="tcommaaccent" unicode="&#x21b;" horiz-adv-x="242" 
d="M238 331h-75v-331h-98v331h-41v90h41v154h98v-154h75v-90zM31 -242l72 192l88 -34l-90 -186z" />
    <glyph glyph-name="uni0228" unicode="&#x228;" 
d="M448 667v-96h-266v-169h258v-96h-258v-210h266v-96h-368v667h368zM261 -53l86 -38l-112 -133l-64 32z" />
    <glyph glyph-name="uni0229" unicode="&#x229;" horiz-adv-x="482" 
d="M357 142l82 -46q-31 -52 -71 -77q-49 -32 -124 -32q-88 0 -142 54q-62 62 -62 161q0 104 67 173q57 57 141 57t135 -55q59 -62 59 -178v-12h-302q5 -54 36 -85q27 -27 75 -27q39 0 67 21q23 18 39 46zM147 267h195q-6 35 -30 57q-26 24 -66 24q-42 0 -69 -27
q-23 -19 -30 -54zM250 -53l82 -32l-102 -134l-64 32z" />
    <glyph glyph-name="uni0237" unicode="&#x237;" horiz-adv-x="222" 
d="M62 421h98v-650h-98v650z" />
    <glyph glyph-name="uni0259" unicode="&#x259;" horiz-adv-x="488" 
d="M133 292l-89 30q25 52 73 80q48 30 117 30q91 0 149 -52q65 -61 65 -174q0 -102 -64 -166q-56 -53 -142 -53q-84 0 -135 50q-67 67 -67 180v25h306q-5 51 -35 76q-28 26 -78 26q-36 0 -63 -16q-17 -9 -37 -36zM339 162h-195q6 -45 30 -68q23 -23 66 -23q42 0 68 26
q27 27 31 65z" />
    <glyph glyph-name="afii57929" unicode="&#x2bc;" 
d="M160 478l82 212l88 -34l-104 -206z" />
    <glyph glyph-name="circumflex" unicode="&#x2c6;" 
d="M250 571l-88 -86l-66 52l154 138l154 -138l-66 -52z" />
    <glyph glyph-name="caron" unicode="&#x2c7;" 
d="M250 589l88 86l66 -52l-154 -138l-154 138l66 52z" />
    <glyph glyph-name="uni02C9" unicode="&#x2c9;" 
d="M85 508v78h330v-78h-330z" />
    <glyph glyph-name="breve" unicode="&#x2d8;" 
d="M333 638h79q-14 -61 -38 -85q-41 -50 -122 -50q-83 0 -125 49q-27 33 -39 86h79q10 -33 30 -49t52 -16q33 0 53 15q23 20 31 50z" />
    <glyph glyph-name="dotaccent" unicode="&#x2d9;" 
d="M185 550q0 27 19 46t46 19t46 -19t19 -46t-19 -46t-46 -19t-46 19t-19 46z" />
    <glyph glyph-name="ring" unicode="&#x2da;" 
d="M156 579q0 38 28 66t66 28t66 -28t28 -66t-28 -66t-66 -28t-66 28t-28 66zM207 579q0 -18 12.5 -30.5t30.5 -12.5t30.5 12.5t12.5 30.5t-12.5 30.5t-30.5 12.5t-30.5 -12.5t-12.5 -30.5z" />
    <glyph glyph-name="ogonek" unicode="&#x2db;" 
d="M249 0h73q-32 -18 -51 -39q-21 -23 -21 -45q0 -31 40 -31q33 0 52 7l-9 -62q-30 -19 -62 -19q-41 0 -70 23t-29 61q0 36 26 64q20 23 51 41z" />
    <glyph glyph-name="tilde" unicode="&#x2dc;" 
d="M372 622l58 -46q-39 -86 -116 -86q-21 0 -55 16q-30 17 -42 22q-22 10 -37 10t-27 -9.5t-17 -19t-7 -17.5l-59 41q19 34 42 54q32 27 70 27q26 0 49 -10q28 -12 46 -23q24 -15 41 -15q36 0 54 56z" />
    <glyph glyph-name="hungarumlaut" unicode="&#x2dd;" 
d="M232 675l82 -46l-146 -144l-42 34zM412 675l82 -46l-146 -144l-42 34z" />
    <glyph glyph-name="acutecomb" unicode="&#x301;" horiz-adv-x="2" 
d="M-173 675l90 -46l-156 -144l-54 34z" />
    <glyph glyph-name="uni0394" unicode="&#x394;" horiz-adv-x="668" 
d="M644 0h-620l256 667h104zM332 529l-160 -433h320z" />
    <glyph glyph-name="uni0394" unicode="&#x2206;" horiz-adv-x="668" 
d="M644 0h-620l256 667h104zM332 529l-160 -433h320z" />
    <glyph glyph-name="uni03A9" unicode="&#x3a9;" horiz-adv-x="666" 
d="M374 0v108q71 29 114 90q48 65 48 153q0 110 -69 179q-59 55 -134 55t-134 -55q-69 -67 -69 -179q0 -88 48 -153q43 -61 114 -90v-108h-264v96h161q-79 38 -124 117q-37 63 -37 144q0 148 93 241q81 81 212 81t212 -81q93 -93 93 -241q0 -81 -37 -144q-45 -79 -124 -117
h161v-96h-264z" />
    <glyph glyph-name="uni03A9" unicode="&#x2126;" horiz-adv-x="666" 
d="M374 0v108q71 29 114 90q48 65 48 153q0 110 -69 179q-59 55 -134 55t-134 -55q-69 -67 -69 -179q0 -88 48 -153q43 -61 114 -90v-108h-264v96h161q-79 38 -124 117q-37 63 -37 144q0 148 93 241q81 81 212 81t212 -81q93 -93 93 -241q0 -81 -37 -144q-45 -79 -124 -117
h161v-96h-264z" />
    <glyph glyph-name="pi" unicode="&#x3c0;" horiz-adv-x="554" 
d="M195 0h-98v331h-75v90h510v-90h-75v-331h-98v331h-164v-331z" />
    <glyph glyph-name="afii10023" unicode="&#x401;" 
d="M448 667v-96h-266v-169h258v-96h-258v-210h266v-96h-368v667h368zM104 795q0 26 18 44t44 18t44 -18t18 -44t-18 -44t-44 -18t-44 18t-18 44zM300 795q0 26 18 44t44 18t44 -18t18 -44t-18 -44t-44 -18t-44 18t-18 44z" />
    <glyph glyph-name="afii10051" unicode="&#x402;" horiz-adv-x="668" 
d="M486 571h-220v-186q72 23 137 23q80 0 130 -30q87 -51 87 -179q0 -118 -73 -168q-51 -37 -140 -37q-27 0 -67 6v94q27 -6 64 -6q51 0 78 21q34 28 34 89q0 71 -53 100q-29 16 -77 16q-51 0 -120 -23v-291h-102v571h-154v96h476v-96z" />
    <glyph glyph-name="afii10052" unicode="&#x403;" horiz-adv-x="428" 
d="M80 0v667h334v-96h-232v-571h-102zM234 727l-48 40l138 139l86 -60z" />
    <glyph glyph-name="afii10053" unicode="&#x404;" horiz-adv-x="620" 
d="M574 631v-120q-83 74 -181 74q-119 0 -178 -70q-47 -51 -59 -125h328v-96h-331q8 -80 61 -139q67 -74 180 -74q103 0 180 77v-121q-85 -50 -183 -50q-137 0 -236 92q-107 99 -107 252q0 160 107 261q92 87 241 87q101 0 178 -48z" />
    <glyph glyph-name="afii10054" unicode="&#x405;" horiz-adv-x="516" 
d="M450 567l-82 -48q-13 27 -30 42q-30 24 -72 24q-45 0 -69.5 -23t-24.5 -57q0 -51 72 -81l67 -27q87 -36 122 -84.5t35 -111.5q0 -95 -60.5 -154.5t-154.5 -59.5q-97 0 -157 67q-50 55 -56 130l101 22q0 -48 28 -85q32 -40 87 -40q48 0 79 31t31 81q0 24 -8 43t-24 32.5
t-30 21.5t-34 17l-64 27q-136 59 -136 169q0 72 52.5 124t142.5 52q84 0 134 -45q28 -23 51 -67z" />
    <glyph glyph-name="afii10055" unicode="&#x406;" horiz-adv-x="262" 
d="M80 667h102v-667h-102v667z" />
    <glyph glyph-name="afii10056" unicode="&#x407;" horiz-adv-x="262" 
d="M80 667h102v-667h-102v667zM14 795q0 23 15 39.5t35 16.5t35.5 -16.5t15.5 -39.5t-15.5 -39.5t-35.5 -16.5t-35 16.5t-15 39.5zM148 795q0 23 15 39.5t35 16.5t35 -16.5t15 -39.5t-15 -39.5t-35 -16.5t-35 16.5t-15 39.5z" />
    <glyph glyph-name="afii10057" unicode="&#x408;" horiz-adv-x="362" 
d="M180 667h102v-432q0 -101 -25 -152q-47 -96 -157 -96q-66 0 -118 34l50 86q28 -24 70 -24q50 0 67 45q11 24 11 107v432z" />
    <glyph glyph-name="afii10058" unicode="&#x409;" horiz-adv-x="900" 
d="M144 667h426v-269h76q108 0 167 -53q63 -53 63 -147q0 -48 -21.5 -91.5t-61.5 -70.5q-54 -36 -146 -36h-179v571h-222v-332q0 -48 -3 -77.5t-18.5 -67t-44.5 -60.5q-50 -40 -121 -40q-21 0 -45 6v94q22 -6 37 -6q37 0 60 23q16 15 23.5 45.5t8.5 51t1 61.5v398zM570 302
v-206h72q134 0 134 101q0 44 -29.5 74.5t-102.5 30.5h-74z" />
    <glyph glyph-name="afii10059" unicode="&#x40a;" horiz-adv-x="900" 
d="M182 667v-264h286v264h102v-264h76q108 0 167 -53q63 -55 63 -147q0 -114 -83 -167q-54 -36 -146 -36h-179v307h-286v-307h-102v667h102zM570 307v-211h72q76 0 108 32q26 26 26 74t-28 74q-33 31 -104 31h-74z" />
    <glyph glyph-name="afii10060" unicode="&#x40b;" horiz-adv-x="690" 
d="M486 571h-220v-178q62 7 129 7q117 0 170 -41q65 -51 65 -162v-197h-102v182q0 72 -36 103q-25 21 -106 21q-55 0 -120 -7v-299h-102v571h-154v96h476v-96z" />
    <glyph glyph-name="afii10061" unicode="&#x40c;" horiz-adv-x="586" 
d="M182 667v-266l258 266h134l-301 -302l303 -365h-136l-238 296l-20 -20v-276h-102v667h102zM277 727l-48 40l138 139l86 -60z" />
    <glyph glyph-name="afii10062" unicode="&#x40e;" horiz-adv-x="570" 
d="M6 667h124l172 -356l156 356h106l-301 -667h-106l86 189zM129 832l80 36q6 -19 18.5 -31.5t28 -17t23.5 -6t15 -1.5t15 1.5t23.5 6t28 17t18.5 31.5l80 -36q-24 -56 -70 -79t-95 -23t-95 23t-70 79z" />
    <glyph glyph-name="afii10145" unicode="&#x40f;" horiz-adv-x="640" 
d="M80 0v667h102v-571h276v571h102v-667h-192v-166h-96v166h-192z" />
    <glyph glyph-name="afii10017" unicode="&#x410;" horiz-adv-x="656" 
d="M542 0l-70 161h-285l-73 -161h-110l332 706l316 -706h-110zM229 257h202l-99 226z" />
    <glyph glyph-name="afii10018" unicode="&#x411;" horiz-adv-x="526" 
d="M80 0v667h334v-96h-232v-173h66q108 0 167 -53q63 -53 63 -147q0 -48 -21.5 -91.5t-61.5 -70.5q-54 -36 -146 -36h-169zM182 302v-206h62q134 0 134 101q0 44 -29.5 74.5t-102.5 30.5h-64z" />
    <glyph glyph-name="afii10019" unicode="&#x412;" horiz-adv-x="526" 
d="M80 667h101q68 0 110 -11t74 -41q53 -50 53 -132q0 -45 -20 -79q-17 -31 -50 -46q53 -13 86 -48q44 -48 44 -125q0 -72 -44 -120q-62 -65 -187 -65h-167v667zM182 571v-191h31q56 0 83 26q26 26 26 76q0 41 -24 64q-25 25 -81 25h-35zM182 296v-200h62q68 0 101 26t33 74
q0 43 -27 70q-31 30 -105 30h-64z" />
    <glyph glyph-name="afii10020" unicode="&#x413;" horiz-adv-x="428" 
d="M80 0v667h334v-96h-232v-571h-102z" />
    <glyph glyph-name="afii10021" unicode="&#x414;" horiz-adv-x="650" 
d="M144 667h416v-571h76v-246h-96v150h-430v-150h-96v246q66 -4 106 90q24 61 24 175v306zM246 571v-210q0 -125 -23 -186q-18 -45 -52 -79h287v475h-212z" />
    <glyph glyph-name="afii10022" unicode="&#x415;" 
d="M448 667v-96h-266v-169h258v-96h-258v-210h266v-96h-368v667h368z" />
    <glyph glyph-name="afii10024" unicode="&#x416;" horiz-adv-x="846" 
d="M372 667h102v-269l238 269h124l-275 -306l281 -361h-126l-226 294l-16 -18v-276h-102v276l-16 18l-226 -294h-126l281 361l-275 306h124l238 -269v269z" />
    <glyph glyph-name="afii10025" unicode="&#x417;" horiz-adv-x="570" 
d="M137 516l-67 65q37 49 86 72q50 25 121 25q98 0 155 -53q48 -47 48 -117q0 -48 -22 -83q-21 -36 -60 -58q54 -14 90 -59q34 -42 34 -113q0 -89 -67 -149q-68 -58 -180 -58q-95 0 -164 52q-52 41 -85 108l90 46q18 -48 62 -81q45 -31 110 -31q66 0 102 36q32 32 32 82
q0 52 -39 78q-37 26 -121 26h-60v96h54q64 0 96 27q30 26 30 68q0 45 -32 69q-24 20 -77 20q-47 0 -81 -19q-9 -5 -17 -10.5t-14 -12t-10 -10.5t-9 -10z" />
    <glyph glyph-name="afii10026" unicode="&#x418;" horiz-adv-x="712" 
d="M530 0v449l-450 -479v697h102v-451l450 479v-695h-102z" />
    <glyph glyph-name="afii10027" unicode="&#x419;" horiz-adv-x="712" 
d="M530 0v449l-450 -479v697h102v-451l450 479v-695h-102zM191 832l80 36q6 -19 18.5 -31.5t28 -17t23.5 -6t15 -1.5t15 1.5t23.5 6t28 17t18.5 31.5l80 -36q-24 -56 -70 -79t-95 -23t-95 23t-70 79z" />
    <glyph glyph-name="afii10028" unicode="&#x41a;" horiz-adv-x="586" 
d="M182 667v-266l258 266h134l-301 -302l303 -365h-136l-238 296l-20 -20v-276h-102v667h102z" />
    <glyph glyph-name="afii10029" unicode="&#x41b;" horiz-adv-x="650" 
d="M144 667h426v-667h-102v571h-222v-332q0 -48 -3 -77.5t-18.5 -67t-44.5 -60.5q-50 -40 -121 -40q-21 0 -45 6v94q22 -6 37 -6q37 0 60 23q16 15 23.5 45.5t8.5 51t1 61.5v398z" />
    <glyph glyph-name="afii10030" unicode="&#x41c;" horiz-adv-x="852" 
d="M164 0h-104l140 717l232 -518l234 518l126 -717h-104l-68 402l-194 -433l-192 434z" />
    <glyph glyph-name="afii10031" unicode="&#x41d;" horiz-adv-x="650" 
d="M182 667v-256h286v256h102v-667h-102v315h-286v-315h-102v667h102z" />
    <glyph glyph-name="afii10032" unicode="&#x41e;" horiz-adv-x="790" 
d="M395 679q149 0 248 -99t99 -247t-99 -247t-248 -99t-248 99t-99 247t99 247t248 99zM395 81q108 0 176.5 70.5t68.5 181.5t-68.5 181.5t-176.5 70.5t-176.5 -70.5t-68.5 -181.5t68.5 -181.5t176.5 -70.5z" />
    <glyph glyph-name="afii10033" unicode="&#x41f;" horiz-adv-x="650" 
d="M80 667h490v-667h-102v571h-286v-571h-102v667z" />
    <glyph glyph-name="afii10034" unicode="&#x420;" horiz-adv-x="480" 
d="M80 667h147q92 0 146 -36q40 -27 61.5 -70.5t21.5 -91.5q0 -90 -65 -146q-61 -52 -163 -52h-46v-271h-102v667zM182 573v-208h46q64 0 97 28t33 77q0 17 -4.5 32t-17 32.5t-40.5 28t-69 10.5h-45z" />
    <glyph glyph-name="afii10035" unicode="&#x421;" horiz-adv-x="620" 
d="M574 631v-120q-83 74 -181 74q-108 0 -175.5 -71.5t-67.5 -182.5q0 -107 69 -178.5t175 -71.5q103 0 180 77v-121q-85 -50 -183 -50q-137 0 -236 92q-107 99 -107 252q0 160 107 261q92 87 241 87q101 0 178 -48z" />
    <glyph glyph-name="afii10036" unicode="&#x422;" horiz-adv-x="428" 
d="M418 571h-153v-571h-102v571h-153v96h408v-96z" />
    <glyph glyph-name="afii10037" unicode="&#x423;" horiz-adv-x="570" 
d="M6 667h124l172 -356l156 356h106l-301 -667h-106l86 189z" />
    <glyph glyph-name="afii10038" unicode="&#x424;" horiz-adv-x="826" 
d="M362 0v94h-18q-148 0 -222 72.5t-74 187.5t74 187.5t222 72.5h18v80h102v-80h18q148 0 222 -72.5t74 -187.5t-74 -187.5t-222 -72.5h-18v-94h-102zM362 188v332h-20q-95 0 -143.5 -46t-48.5 -120t48.5 -120t143.5 -46h20zM464 520v-332h20q95 0 143.5 46t48.5 120
t-48.5 120t-143.5 46h-20z" />
    <glyph glyph-name="afii10039" unicode="&#x425;" horiz-adv-x="546" 
d="M10 0l210 348l-184 319h114l130 -226l133 226h114l-192 -319l201 -348h-114l-146 255l-152 -255h-114z" />
    <glyph glyph-name="afii10040" unicode="&#x426;" horiz-adv-x="660" 
d="M80 0v667h102v-571h276v571h102v-571h86v-246h-96v150h-470z" />
    <glyph glyph-name="afii10041" unicode="&#x427;" horiz-adv-x="606" 
d="M424 0v274q-93 -7 -136 -7q-110 0 -163 41q-65 50 -65 162v197h102v-182q0 -78 36 -103q25 -21 106 -21q57 0 120 7v299h102v-667h-102z" />
    <glyph glyph-name="afii10042" unicode="&#x428;" horiz-adv-x="938" 
d="M80 0v667h102v-571h236v571h102v-571h236v571h102v-667h-778z" />
    <glyph glyph-name="afii10043" unicode="&#x429;" horiz-adv-x="958" 
d="M80 0v667h102v-571h236v571h102v-571h236v571h102v-571h86v-246h-96v150h-768z" />
    <glyph glyph-name="afii10044" unicode="&#x42a;" horiz-adv-x="592" 
d="M160 0v571h-150v96h252v-269h76q108 0 167 -53q63 -53 63 -147q0 -48 -21.5 -91.5t-61.5 -70.5q-54 -36 -146 -36h-179zM262 302v-206h72q134 0 134 101q0 44 -29.5 74.5t-102.5 30.5h-74z" />
    <glyph glyph-name="afii10045" unicode="&#x42b;" horiz-adv-x="740" 
d="M80 0v667h102v-269h76q108 0 167 -53q63 -53 63 -147q0 -48 -21.5 -91.5t-61.5 -70.5q-54 -36 -146 -36h-179zM182 302v-206h72q134 0 134 101q0 44 -29.5 74.5t-102.5 30.5h-74zM558 667h102v-667h-102v667z" />
    <glyph glyph-name="afii10046" unicode="&#x42c;" horiz-adv-x="512" 
d="M80 0v667h102v-269h76q108 0 167 -53q63 -53 63 -147q0 -48 -21.5 -91.5t-61.5 -70.5q-54 -36 -146 -36h-179zM182 302v-206h72q134 0 134 101q0 44 -29.5 74.5t-102.5 30.5h-74z" />
    <glyph glyph-name="afii10047" unicode="&#x42d;" horiz-adv-x="622" 
d="M48 511v120q84 48 193 48q146 0 234 -87q99 -99 99 -258q0 -157 -99 -256q-91 -91 -237 -91q-104 0 -190 50v121q77 -77 190 -77q102 0 162 60q59 59 68 149h-330v96h328q-10 83 -61 135q-62 64 -166 64q-110 0 -191 -74z" />
    <glyph glyph-name="afii10048" unicode="&#x42e;" horiz-adv-x="1000" 
d="M182 402h100q19 106 89 178q99 99 244 99q146 0 241.5 -99t95.5 -247t-96 -247t-241 -99q-91 0 -156.5 34t-104.5 83q-68 86 -72 202h-100v-306h-102v667h102v-265zM615 81q104 0 169.5 70.5t65.5 181.5t-65.5 181.5t-169.5 70.5t-169.5 -70.5t-65.5 -181.5t65.5 -181.5
t169.5 -70.5z" />
    <glyph glyph-name="afii10049" unicode="&#x42f;" horiz-adv-x="534" 
d="M20 0l198 278q-59 7 -103 45q-57 50 -57 142q0 83 51 139q27 29 64 44t60 17t57 2h164v-667h-102v267h-24l-182 -267h-126zM352 573h-50q-83 0 -114 -31q-32 -29 -32 -77q0 -54 38 -80q34 -24 102 -24h56v212z" />
    <glyph glyph-name="afii10065" unicode="&#x430;" horiz-adv-x="530" 
d="M370 372v49h98v-421h-98v44q-48 -57 -126 -57q-94 0 -149 66t-55 158q0 99 59.5 160t145.5 61q77 0 125 -60zM257 344q-52 0 -84.5 -39t-32.5 -96q0 -56 32.5 -95t84.5 -39q49 0 84 35t35 98q0 65 -35 100.5t-84 35.5z" />
    <glyph glyph-name="afii10066" unicode="&#x431;" horiz-adv-x="530" 
d="M380 710h100q-11 -52 -46 -90t-86 -52l-66 -18q-26 -7 -40 -12t-34.5 -18.5t-34.5 -32.5q-33 -44 -35 -114h1q44 59 143 59q89 0 147 -60q61 -63 61 -160q0 -98 -64.5 -161.5t-160.5 -63.5t-154 56q-32 29 -49 74t-19.5 73t-2.5 69q0 194 64 289q45 69 126 90l70 17
q68 18 80 55zM265 75q57 0 91 36.5t34 97.5q0 67 -37 101t-88 34t-88 -34t-37 -101q0 -61 34 -97.5t91 -36.5z" />
    <glyph glyph-name="afii10067" unicode="&#x432;" horiz-adv-x="442" 
d="M62 421h165q63 0 96 -25q39 -31 39 -81q0 -58 -50 -82q32 -6 57 -28q33 -30 33 -81q0 -61 -46 -96q-37 -28 -97 -28h-197v421zM160 257h50q30 0 39 9q19 13 19 34t-17 33q-12 8 -43 8h-48v-84zM160 80h73q35 0 51 12q20 16 20 37q0 25 -19 37q-15 11 -49 11h-76v-97z" />
    <glyph glyph-name="afii10068" unicode="&#x433;" horiz-adv-x="328" 
d="M62 0v421h258v-90h-160v-331h-98z" />
    <glyph glyph-name="afii10069" unicode="&#x434;" horiz-adv-x="486" 
d="M98 421h316v-331h64v-210h-90v120h-294v-120h-90v210q52 4 77 55q17 39 17 111v165zM316 90v241h-124v-112q0 -93 -49 -129h173z" />
    <glyph glyph-name="afii10070" unicode="&#x435;" horiz-adv-x="482" 
d="M357 142l82 -46q-31 -52 -71 -77q-49 -32 -124 -32q-88 0 -142 54q-62 62 -62 161q0 104 67 173q57 57 141 57t135 -55q59 -62 59 -178v-12h-302q5 -54 36 -85q27 -27 75 -27q39 0 67 21q23 18 39 46zM147 267h195q-6 35 -30 57q-26 24 -66 24q-42 0 -69 -27
q-23 -19 -30 -54z" />
    <glyph glyph-name="afii10072" unicode="&#x436;" horiz-adv-x="624" 
d="M263 421h98v-156l127 156h118l-163 -192l179 -229h-122l-127 169l-12 -14v-155h-98v155l-12 14l-127 -169h-122l179 229l-163 192h118l127 -156v156z" />
    <glyph glyph-name="afii10073" unicode="&#x437;" horiz-adv-x="440" 
d="M119 312l-63 55q27 30 64 47q42 18 99 18q65 0 107 -29q44 -32 44 -86q0 -35 -18 -58q-15 -20 -40 -30q38 -8 61 -31q27 -27 27 -70q0 -57 -36 -93q-48 -48 -148 -48q-68 0 -110 25q-46 29 -66 75l78 40q13 -27 37 -44q25 -16 63 -16q46 0 67 21q15 16 15 37t-13 34
q-16 18 -70 18h-44v80h37q32 0 48 11q18 16 18 37q0 22 -18 36q-15 11 -47 11q-30 0 -55 -12q-24 -14 -37 -28z" />
    <glyph glyph-name="afii10074" unicode="&#x438;" horiz-adv-x="510" 
d="M62 421h98v-239l288 277v-459h-98v245l-288 -277v453z" />
    <glyph glyph-name="afii10075" unicode="&#x439;" horiz-adv-x="510" 
d="M62 421h98v-239l288 277v-459h-98v245l-288 -277v453zM94 603l80 23q18 -65 82 -65q62 0 82 65l80 -23q-17 -57 -64.5 -87.5t-97.5 -30.5t-97.5 30.5t-64.5 87.5z" />
    <glyph glyph-name="afii10076" unicode="&#x43a;" horiz-adv-x="442" 
d="M62 421h98v-150l140 150h130l-184 -184l194 -237h-124l-140 173l-16 -16v-157h-98v421z" />
    <glyph glyph-name="afii10077" unicode="&#x43b;" horiz-adv-x="470" 
d="M408 421v-421h-98v331h-124v-167q0 -76 -40 -121q-51 -56 -138 -43v90q43 -10 69 19q15 18 15 55v257h316z" />
    <glyph glyph-name="afii10078" unicode="&#x43c;" horiz-adv-x="580" 
d="M14 0l102 459l174 -321l174 321l102 -459h-100l-42 211l-134 -243l-134 243l-42 -211h-100z" />
    <glyph glyph-name="afii10079" unicode="&#x43d;" horiz-adv-x="494" 
d="M62 0v421h98v-156h174v156h98v-421h-98v175h-174v-175h-98z" />
    <glyph glyph-name="afii10080" unicode="&#x43e;" horiz-adv-x="530" 
d="M265 432q96 0 160.5 -62.5t64.5 -159.5q0 -96 -64.5 -159.5t-160.5 -63.5t-160.5 63.5t-64.5 159.5q0 97 64.5 159.5t160.5 62.5zM265 75q57 0 91 36.5t34 97.5q0 67 -37 101t-88 34t-88 -34t-37 -101q0 -61 34 -97.5t91 -36.5z" />
    <glyph glyph-name="afii10081" unicode="&#x43f;" horiz-adv-x="490" 
d="M62 421h366v-421h-98v331h-170v-331h-98v421z" />
    <glyph glyph-name="afii10082" unicode="&#x440;" horiz-adv-x="530" 
d="M160 49v-278h-98v650h98v-46q48 57 125 57q86 0 145.5 -61t59.5 -158q0 -101 -62 -163.5t-142 -62.5q-76 0 -126 62zM273 344q-49 0 -84 -35.5t-35 -100.5q0 -63 35 -98t84 -35q52 0 84.5 39t32.5 95q0 57 -32.5 96t-84.5 39z" />
    <glyph glyph-name="afii10083" unicode="&#x441;" horiz-adv-x="420" 
d="M388 402v-110q-53 52 -119 52q-56 0 -93 -37q-36 -36 -36 -97q0 -63 38 -101q37 -34 89 -34q73 0 121 54v-109q-53 -33 -128 -33q-102 0 -160 62q-60 60 -60 158q0 99 64 163q62 62 169 62q61 0 115 -30z" />
    <glyph glyph-name="afii10084" unicode="&#x442;" horiz-adv-x="360" 
d="M352 331h-123v-331h-98v331h-123v90h344v-90z" />
    <glyph glyph-name="afii10085" unicode="&#x443;" horiz-adv-x="482" 
d="M31 -229l155 295l-180 355h118l120 -246l122 246h110l-335 -650h-110z" />
    <glyph glyph-name="afii10086" unicode="&#x444;" horiz-adv-x="670" 
d="M286 -229v222q-108 -1 -173 55q-71 58 -71 163t70 162q64 55 174 55v239h98v-239q110 0 174 -55q70 -65 70 -162q0 -105 -71 -163q-65 -56 -173 -55v-222h-98zM286 81v259q-57 0 -92 -22q-18 -9 -35 -36t-17 -71q0 -70 49 -105q38 -27 95 -25zM384 340v-259q57 -2 95 25
q49 35 49 105q0 44 -17 71t-35 36q-35 22 -92 22z" />
    <glyph glyph-name="afii10087" unicode="&#x445;" horiz-adv-x="496" 
d="M6 0l186 228l-150 193h116l93 -123l94 123h120l-155 -193l180 -228h-118l-121 157l-125 -157h-120z" />
    <glyph glyph-name="afii10088" unicode="&#x446;" horiz-adv-x="502" 
d="M62 0v421h98v-331h166v331h98v-331h70v-210h-90v120h-342z" />
    <glyph glyph-name="afii10089" unicode="&#x447;" horiz-adv-x="450" 
d="M290 0v163q-45 -9 -86 -9q-71 0 -111 31q-41 33 -41 101v135h98v-115q0 -43 25 -58q17 -10 49 -10q36 0 66 11v172h98v-421h-98z" />
    <glyph glyph-name="afii10090" unicode="&#x448;" horiz-adv-x="698" 
d="M62 0v421h98v-331h140v331h98v-331h140v331h98v-421h-574z" />
    <glyph glyph-name="afii10091" unicode="&#x449;" horiz-adv-x="714" 
d="M62 0v421h98v-331h140v331h98v-331h140v331h98v-331h70v-210h-90v120h-554z" />
    <glyph glyph-name="afii10092" unicode="&#x44a;" horiz-adv-x="436" 
d="M98 0v331h-90v90h188v-149h56q27 0 44 -1.5t41.5 -12t41.5 -29.5q33 -37 33 -92q0 -63 -38 -101q-17 -17 -40 -25.5t-38.5 -9.5t-44.5 -1h-153zM196 84h45q36 0 51 9q22 16 22 43q0 28 -21 42q-15 10 -51 10h-46v-104z" />
    <glyph glyph-name="afii10093" unicode="&#x44b;" horiz-adv-x="580" 
d="M62 0v421h98v-149h56q27 0 44 -1.5t41.5 -12t41.5 -29.5q33 -37 33 -92q0 -63 -38 -101q-17 -17 -40 -25.5t-38.5 -9.5t-44.5 -1h-153zM160 84h45q36 0 51 9q22 16 22 43q0 28 -21 42q-15 10 -51 10h-46v-104zM420 0v421h98v-421h-98z" />
    <glyph glyph-name="afii10094" unicode="&#x44c;" horiz-adv-x="400" 
d="M62 0v421h98v-149h56q27 0 44 -1.5t41.5 -12t41.5 -29.5q33 -37 33 -92q0 -63 -38 -101q-17 -17 -40 -25.5t-38.5 -9.5t-44.5 -1h-153zM160 84h45q36 0 51 9q22 16 22 43q0 28 -21 42q-15 10 -51 10h-46v-104z" />
    <glyph glyph-name="afii10095" unicode="&#x44d;" horiz-adv-x="428" 
d="M40 317v93q56 22 119 22q106 0 168 -62q61 -61 61 -159t-62 -161q-59 -63 -157 -63q-70 0 -129 24v93q50 -29 115 -29q61 0 95 34q25 25 31 65h-195v82h192q-10 47 -42 67q-30 21 -81 21q-60 0 -115 -27z" />
    <glyph glyph-name="afii10096" unicode="&#x44e;" horiz-adv-x="700" 
d="M160 265h67q10 59 55 105q62 62 157 62q94 0 157.5 -62.5t63.5 -159.5q0 -96 -63.5 -159.5t-157.5 -63.5q-103 0 -162 67q-46 48 -52 121h-65v-175h-98v421h98v-156zM439 344q-50 0 -85.5 -34t-35.5 -101t35.5 -100.5t85.5 -33.5t85.5 33.5t35.5 100.5t-35.5 101
t-85.5 34z" />
    <glyph glyph-name="afii10097" unicode="&#x44f;" horiz-adv-x="418" 
d="M8 0l132 167q-39 6 -67 32q-35 35 -35 87q0 60 39 97q39 38 122 38h157v-421h-98v155h-20l-115 -155h-115zM258 235v102h-57q-34 0 -51 -9q-24 -15 -24 -42q0 -28 20 -41q15 -10 54 -10h58z" />
    <glyph glyph-name="afii10071" unicode="&#x451;" horiz-adv-x="482" 
d="M357 142l82 -46q-31 -52 -71 -77q-49 -32 -124 -32q-88 0 -142 54q-62 62 -62 161q0 104 67 173q57 57 141 57t135 -55q59 -62 59 -178v-12h-302q5 -54 36 -85q27 -27 75 -27q39 0 67 21q23 18 39 46zM147 267h195q-6 35 -30 57q-26 24 -66 24q-42 0 -69 -27
q-23 -19 -30 -54zM102 569q0 26 18 44t44 18t44 -18t18 -44t-18 -44t-44 -18t-44 18t-18 44zM282 569q0 26 18 44t44 18t44 -18t18 -44t-18 -44t-44 -18t-44 18t-18 44z" />
    <glyph glyph-name="afii10099" unicode="&#x452;" horiz-adv-x="486" 
d="M62 0v512h-72v76h72v141h98v-141h200v-76h-200v-167q47 47 113 47q77 0 124 -57q27 -39 27 -117v-304q0 -82 -44 -117q-33 -27 -90 -27q-42 0 -66 9v88q22 -9 47 -9q33 0 46 22q9 15 9 60v269q0 52 -19 73q-20 22 -55 22q-48 0 -72 -35q-20 -27 -20 -106v-163h-98z" />
    <glyph glyph-name="afii10100" unicode="&#x453;" horiz-adv-x="328" 
d="M62 0v421h258v-90h-160v-331h-98zM266 675l90 -46l-156 -144l-54 34z" />
    <glyph glyph-name="afii10101" unicode="&#x454;" horiz-adv-x="428" 
d="M388 404v-104q-47 44 -117 44q-50 0 -82 -27q-27 -23 -39 -60h192v-80h-195q4 -44 35 -71q35 -31 91 -31q66 0 115 46v-104q-46 -30 -128 -30q-96 0 -160 64q-60 61 -60 159q0 102 68 165q61 57 161 57q69 0 119 -28z" />
    <glyph glyph-name="afii10102" unicode="&#x455;" horiz-adv-x="360" 
d="M319 358l-73 -48q-25 36 -60 36q-19 0 -30 -11q-9 -9 -9 -22q0 -15 14 -24l13 -6.5t20 -10.5l50 -25q41 -19 59 -39q31 -31 31 -78q0 -56 -37 -96q-43 -47 -118 -47q-55 0 -91 27q-37 29 -54 77l80 38q9 -28 23 -40q16 -16 43 -16q26 0 40 14t14 33t-13 32q-14 14 -42 26
l-36 17q-42 20 -58 36q-30 27 -30 71q0 55 35 90q38 40 103 40q45 0 78 -22q29 -17 48 -52z" />
    <glyph glyph-name="afii10103" unicode="&#x456;" horiz-adv-x="222" 
d="M62 421h98v-421h-98v421zM48 595q0 27 18 45t45 18t45 -18t18 -45t-18 -45t-45 -18t-45 18t-18 45z" />
    <glyph glyph-name="afii10104" unicode="&#x457;" horiz-adv-x="232" 
d="M67 421h98v-421h-98v421zM176 658q19 0 34 -16.5t15 -45.5t-15 -45.5t-34 -16.5t-34 16.5t-15 45.5t15 45.5t34 16.5zM56 658q19 0 34 -16.5t15 -45.5t-15 -45.5t-34 -16.5t-34 16.5t-15 45.5t15 45.5t34 16.5z" />
    <glyph glyph-name="afii10105" unicode="&#x458;" horiz-adv-x="222" 
d="M62 421h98v-650h-98v650zM48 595q0 27 18 45t45 18t45 -18t18 -45t-18 -45t-45 -18t-45 18t-18 45z" />
    <glyph glyph-name="afii10106" unicode="&#x459;" horiz-adv-x="648" 
d="M408 421v-149h56q27 0 44 -1.5t41.5 -12t41.5 -29.5q33 -37 33 -92q0 -63 -38 -101q-17 -17 -40 -25.5t-38.5 -9.5t-44.5 -1h-153v331h-124v-167q0 -76 -40 -121q-42 -45 -113 -45q-9 0 -25 2v90q14 -2 19 -2q31 0 50 21q15 18 15 55v257h316zM408 84h45q36 0 51 9
q22 16 22 43q0 28 -21 42q-15 10 -51 10h-46v-104z" />
    <glyph glyph-name="afii10107" unicode="&#x45a;" horiz-adv-x="672" 
d="M62 0v421h98v-149h174v149h98v-149h56q27 0 44 -1.5t41.5 -12t41.5 -29.5q33 -37 33 -92q0 -63 -38 -101q-17 -17 -40 -25.5t-38.5 -9.5t-44.5 -1h-153v188h-174v-188h-98zM432 84h45q36 0 51 9q22 16 22 43q0 28 -21 42q-15 10 -51 10h-46v-104z" />
    <glyph glyph-name="afii10108" unicode="&#x45b;" horiz-adv-x="486" 
d="M62 0v512h-72v76h72v141h98v-141h200v-76h-200v-167q47 47 113 47q77 0 124 -57q27 -39 27 -117v-218h-98v209q0 52 -19 73q-20 22 -55 22q-48 0 -72 -35q-20 -27 -20 -106v-163h-98z" />
    <glyph glyph-name="afii10109" unicode="&#x45c;" horiz-adv-x="442" 
d="M62 421h98v-150l140 150h130l-184 -184l194 -237h-124l-140 173l-16 -16v-157h-98v421zM297 675l90 -46l-156 -144l-54 34z" />
    <glyph glyph-name="afii10110" unicode="&#x45e;" horiz-adv-x="482" 
d="M31 -229l155 295l-180 355h118l120 -246l122 246h110l-335 -650h-110zM84 603l80 23q18 -65 82 -65q62 0 82 65l80 -23q-17 -57 -64.5 -87.5t-97.5 -30.5t-97.5 30.5t-64.5 87.5z" />
    <glyph glyph-name="afii10193" unicode="&#x45f;" horiz-adv-x="486" 
d="M62 0v421h98v-331h166v331h98v-421h-136v-130h-90v130h-136z" />
    <glyph glyph-name="afii10146" unicode="&#x462;" horiz-adv-x="592" 
d="M160 0v503h-150v94h150v97h102v-97h180v-94h-180v-105h76q108 0 167 -53q63 -57 63 -146q0 -49 -21 -92.5t-62 -70.5q-54 -36 -146 -36h-179zM262 302v-206h72q75 0 108 33q26 26 26 68q0 47 -28 73q-34 32 -104 32h-74z" />
    <glyph glyph-name="afii10194" unicode="&#x463;" horiz-adv-x="436" 
d="M8 421h90v246h98v-246h120v-84h-120v-65h56q27 0 44 -1.5t41.5 -12t41.5 -29.5q33 -37 33 -92q0 -63 -38 -101q-17 -17 -40 -25.5t-38.5 -9.5t-44.5 -1h-153v337h-90v84zM196 84h45q36 0 51 9q22 16 22 43q0 28 -21 42q-15 10 -51 10h-46v-104z" />
    <glyph glyph-name="afii10147" unicode="&#x472;" horiz-adv-x="790" 
d="M395 679q149 0 248 -99t99 -247t-99 -247t-248 -99t-248 99t-99 247t99 247t248 99zM637 287h-484q12 -89 78.5 -147.5t163.5 -58.5t163.5 58.5t78.5 147.5zM153 383h484q-12 85 -78.5 143.5t-163.5 58.5t-163.5 -58.5t-78.5 -143.5z" />
    <glyph glyph-name="afii10195" unicode="&#x473;" horiz-adv-x="530" 
d="M265 432q96 0 160.5 -62.5t64.5 -159.5q0 -96 -64.5 -159.5t-160.5 -63.5t-160.5 63.5t-64.5 159.5q0 97 64.5 159.5t160.5 62.5zM386 173h-242q8 -47 41 -72.5t80 -25.5t80 25.5t41 72.5zM144 253h242q-9 41 -40.5 66t-80.5 25t-80.5 -25t-40.5 -66z" />
    <glyph glyph-name="afii10148" unicode="&#x474;" horiz-adv-x="600" 
d="M4 667h110l186 -465l186 465h110l-296 -710z" />
    <glyph glyph-name="afii10196" unicode="&#x475;" horiz-adv-x="448" 
d="M6 421h110l108 -240l108 240h110l-218 -451z" />
    <glyph glyph-name="afii10050" unicode="&#x490;" horiz-adv-x="428" 
d="M80 0v667h238v150h96v-246h-232v-571h-102z" />
    <glyph glyph-name="afii10098" unicode="&#x491;" horiz-adv-x="328" 
d="M62 0v421h168v120h90v-210h-160v-331h-98z" />
    <glyph glyph-name="uni0492" unicode="&#x492;" horiz-adv-x="428" 
d="M80 0v322h-90v86h90v259h334v-96h-232v-163h150v-86h-150v-322h-102z" />
    <glyph glyph-name="uni0493" unicode="&#x493;" horiz-adv-x="328" 
d="M62 0v168h-72v80h72v173h258v-90h-160v-83h100v-80h-100v-168h-98z" />
    <glyph glyph-name="uni0494" unicode="&#x494;" horiz-adv-x="584" 
d="M402 571h-220v-186q72 23 137 23q80 0 130 -30q87 -51 87 -179q0 -118 -73 -168q-51 -37 -140 -37q-27 0 -67 6v94q27 -6 64 -6q51 0 78 21q34 28 34 89q0 71 -53 100q-29 16 -77 16q-51 0 -120 -23v-291h-102v667h322v-96z" />
    <glyph glyph-name="uni0495" unicode="&#x495;" horiz-adv-x="440" 
d="M62 0v421h258v-90h-160v-95h30q98 0 153 -52q57 -51 57 -147q0 -109 -77 -180q-62 -55 -143 -65v90q48 7 78 41q42 44 42 113q0 58 -33 86q-31 26 -86 26h-21v-148h-98z" />
    <glyph glyph-name="uni0496" unicode="&#x496;" horiz-adv-x="856" 
d="M372 667h102v-269l238 269h124l-275 -306l206 -265h75v-246h-96v150h-30l-226 294l-16 -18v-276h-102v276l-16 18l-226 -294h-126l281 361l-275 306h124l238 -269v269z" />
    <glyph glyph-name="uni0497" unicode="&#x497;" horiz-adv-x="630" 
d="M263 421h98v-156l127 156h118l-163 -192l109 -139h70v-210h-90v120h-32l-127 169l-12 -14v-155h-98v155l-12 14l-127 -169h-122l179 229l-163 192h118l127 -156v156z" />
    <glyph glyph-name="uni0498" unicode="&#x498;" horiz-adv-x="570" 
d="M137 516l-67 65q37 49 86 72q50 25 121 25q98 0 155 -53q48 -47 48 -117q0 -48 -22 -83q-21 -36 -60 -58q54 -14 90 -59q34 -42 34 -113q0 -89 -67 -149q-48 -42 -112 -52v-160h-96v156q-79 5 -136 50q-55 42 -85 108l90 46q18 -48 62 -81q45 -31 110 -31q66 0 102 36
q32 32 32 82q0 52 -39 78q-37 26 -121 26h-60v96h54q64 0 96 27q30 26 30 68q0 45 -32 69q-24 20 -77 20q-47 0 -81 -19q-9 -5 -17 -10.5t-14 -12t-10 -10.5t-9 -10z" />
    <glyph glyph-name="uni0499" unicode="&#x499;" horiz-adv-x="440" 
d="M119 312l-63 55q27 30 64 47q42 18 99 18q65 0 107 -29q44 -32 44 -86q0 -35 -18 -58q-15 -20 -40 -30q38 -8 61 -31q27 -27 27 -70q0 -57 -36 -93t-88 -42v-123h-90v121q-50 1 -91 29q-37 24 -55 67l78 40q13 -27 37 -44q25 -16 63 -16q46 0 67 21q15 16 15 37t-13 34
q-16 18 -70 18h-44v80h37q32 0 48 11q18 16 18 37q0 22 -18 36q-15 11 -47 11q-30 0 -55 -12q-24 -14 -37 -28z" />
    <glyph glyph-name="uni049A" unicode="&#x49a;" horiz-adv-x="590" 
d="M80 667h102v-266l258 266h134l-301 -302l223 -269h80v-246h-96v150h-40l-238 296l-20 -20v-276h-102v667z" />
    <glyph glyph-name="uni049B" unicode="&#x49b;" horiz-adv-x="448" 
d="M62 421h98v-150l140 150h130l-184 -184l121 -147h73v-210h-90v120h-34l-140 173l-16 -16v-157h-98v421z" />
    <glyph glyph-name="uni049C" unicode="&#x49c;" horiz-adv-x="680" 
d="M80 667h102v-264h86v140h90v-140l192 264h120l-227 -302l227 -365h-120l-192 313v-150h-90v150h-86v-313h-102v667z" />
    <glyph glyph-name="uni049D" unicode="&#x49d;" horiz-adv-x="526" 
d="M62 421h98v-152h60v100h80v-106l114 158h110l-138 -186l138 -235h-110l-114 195v-116h-80v110h-60v-189h-98v421z" />
    <glyph glyph-name="uni04A0" unicode="&#x4a0;" horiz-adv-x="700" 
d="M194 0v571h-184v96h286v-266l258 266h134l-301 -302l303 -365h-136l-238 296l-20 -20v-276h-102z" />
    <glyph glyph-name="uni04A1" unicode="&#x4a1;" horiz-adv-x="510" 
d="M130 0v331h-122v90h220v-150l140 150h130l-184 -184l194 -237h-124l-140 173l-16 -16v-157h-98z" />
    <glyph glyph-name="uni04A2" unicode="&#x4a2;" horiz-adv-x="670" 
d="M80 0v667h102v-264h286v264h102v-571h86v-246h-96v150h-92v307h-286v-307h-102z" />
    <glyph glyph-name="uni04A3" unicode="&#x4a3;" horiz-adv-x="510" 
d="M62 0v421h98v-156h174v156h98v-331h70v-210h-90v120h-78v175h-174v-175h-98z" />
    <glyph glyph-name="uni04A4" unicode="&#x4a4;" horiz-adv-x="816" 
d="M80 0v667h102v-264h286v264h334v-96h-232v-571h-102v307h-286v-307h-102z" />
    <glyph glyph-name="uni04A5" unicode="&#x4a5;" horiz-adv-x="600" 
d="M62 0v421h98v-156h174v156h258v-90h-160v-331h-98v175h-174v-175h-98z" />
    <glyph glyph-name="uni04AA" unicode="&#x4aa;" horiz-adv-x="620" 
d="M574 631v-120q-74 74 -181 74q-105 0 -166 -61q-36 -35 -56.5 -86.5t-20.5 -106.5q0 -107 67 -177q67 -73 177 -73q101 0 180 77v-121q-60 -37 -131 -46v-157h-96v159q-109 9 -192 86q-107 98 -107 252q0 160 107 261q92 87 240 87q101 0 179 -48z" />
    <glyph glyph-name="uni04AB" unicode="&#x4ab;" horiz-adv-x="420" 
d="M388 402v-110q-53 52 -119 52q-56 0 -93 -37q-36 -36 -36 -97q0 -63 38 -101q37 -34 89 -34q73 0 121 54v-109q-37 -25 -79 -28v-122h-90v120q-68 7 -119 59q-60 60 -60 158q0 99 64 163q62 62 169 62q61 0 115 -30z" />
    <glyph glyph-name="uni04AE" unicode="&#x4ae;" horiz-adv-x="540" 
d="M219 0v288l-219 379h116l154 -267l154 267h116l-219 -379v-288h-102z" />
    <glyph glyph-name="uni04AF" unicode="&#x4af;" horiz-adv-x="448" 
d="M6 421h110l108 -237l108 237h110l-169 -350v-300h-98v300z" />
    <glyph glyph-name="uni04B0" unicode="&#x4b0;" horiz-adv-x="540" 
d="M219 0v202h-190v86h190l-219 379h116l154 -267l154 267h116l-219 -379h190v-86h-190v-202h-102z" />
    <glyph glyph-name="uni04B1" unicode="&#x4b1;" horiz-adv-x="448" 
d="M6 421h110l108 -237l108 237h110l-169 -350v-51h130v-86h-130v-163h-98v163h-130v86h130v51z" />
    <glyph glyph-name="uni04B2" unicode="&#x4b2;" horiz-adv-x="570" 
d="M10 0l210 348l-184 319h114l130 -226l133 226h114l-192 -319l145 -252h76v-246h-96v150h-38l-146 255l-152 -255h-114z" />
    <glyph glyph-name="uni04B3" unicode="&#x4b3;" horiz-adv-x="498" 
d="M6 0l186 228l-150 193h116l93 -123l94 123h120l-155 -193l109 -138h71v-210h-90v120h-28l-121 157l-125 -157h-120z" />
    <glyph glyph-name="uni04B6" unicode="&#x4b6;" horiz-adv-x="626" 
d="M424 0v274q-93 -7 -136 -7q-110 0 -163 41q-65 50 -65 162v197h102v-182q0 -78 36 -103q25 -21 106 -21q57 0 120 7v299h102v-571h86v-246h-96v150h-92z" />
    <glyph glyph-name="uni04B7" unicode="&#x4b7;" horiz-adv-x="466" 
d="M290 0v163q-45 -9 -86 -9q-71 0 -111 31q-41 33 -41 101v135h98v-115q0 -43 25 -58q17 -10 49 -10q36 0 66 11v172h98v-331h70v-210h-90v120h-78z" />
    <glyph glyph-name="uni04B8" unicode="&#x4b8;" horiz-adv-x="640" 
d="M458 0v274q-48 -6 -98 -6v-138h-90v138q-85 0 -139 40q-71 52 -71 162v197h102v-182q0 -22 1.5 -35t11 -33.5t28.5 -34.5q24 -18 67 -20v148h90v-148q50 0 98 6v299h102v-667h-102z" />
    <glyph glyph-name="uni04B9" unicode="&#x4b9;" horiz-adv-x="530" 
d="M370 0v161q-39 -7 -68 -8v-88h-80v88q-84 0 -124 30q-46 34 -46 103v135h98v-115q0 -45 32 -58q17 -7 40 -7v114h80v-114q31 0 68 8v172h98v-421h-98z" />
    <glyph glyph-name="uni04BA" unicode="&#x4ba;" horiz-adv-x="606" 
d="M182 667v-264q62 7 129 7q117 0 170 -41q65 -51 65 -162v-207h-102v192q0 72 -36 103q-25 21 -106 21q-55 0 -120 -7v-309h-102v667h102z" />
    <glyph glyph-name="uni04BB" unicode="&#x4bb;" horiz-adv-x="486" 
d="M62 0v729h98v-344q47 47 113 47q77 0 124 -57q27 -39 27 -117v-258h-98v249q0 52 -19 73q-20 22 -55 22q-48 0 -72 -35q-20 -27 -20 -106v-203h-98z" />
    <glyph glyph-name="uni04C0" unicode="&#x4c0;" horiz-adv-x="262" 
d="M80 667h102v-667h-102v667z" />
    <glyph glyph-name="uni04C1" unicode="&#x4c1;" horiz-adv-x="846" 
d="M372 667h102v-269l238 269h124l-275 -306l281 -361h-126l-226 294l-16 -18v-276h-102v276l-16 18l-226 -294h-126l281 361l-275 306h124l238 -269v269zM256 832l80 36q6 -19 18.5 -31.5t28 -17t23.5 -6t15 -1.5t15 1.5t23.5 6t28 17t18.5 31.5l80 -36q-24 -56 -70 -79
t-95 -23t-95 23t-70 79z" />
    <glyph glyph-name="uni04C2" unicode="&#x4c2;" horiz-adv-x="624" 
d="M263 421h98v-156l127 156h118l-163 -192l179 -229h-122l-127 169l-12 -14v-155h-98v155l-12 14l-127 -169h-122l179 229l-163 192h118l127 -156v156zM148 603l80 23q18 -65 82 -65q62 0 82 65l80 -23q-17 -57 -64.5 -87.5t-97.5 -30.5t-97.5 30.5t-64.5 87.5z" />
    <glyph glyph-name="uni04C3" unicode="&#x4c3;" horiz-adv-x="616" 
d="M80 667h102v-274l258 274h134l-267 -268q51 0 103 -19t89 -56q69 -69 69 -208q0 -147 -63 -217q-52 -59 -158 -59q-55 0 -105 21l24 93q38 -20 79 -20q48 0 78 30q43 43 43 145q0 103 -51 154q-47 49 -145 49q-42 0 -88 -11v-301h-102v667z" />
    <glyph glyph-name="uni04C4" unicode="&#x4c4;" horiz-adv-x="440" 
d="M62 421h98v-150l140 150h130l-190 -192q69 -7 111 -53q49 -51 49 -141q0 -109 -77 -178q-62 -54 -143 -65v90q48 7 78 41q42 44 42 113q0 51 -29 82q-30 30 -92 30h-19v-148h-98v421z" />
    <glyph glyph-name="uni04C7" unicode="&#x4c7;" horiz-adv-x="650" 
d="M80 0v667h102v-264h286v264h102v-753q0 -82 -44 -117q-33 -27 -94 -27q-36 0 -66 9v92q23 -9 47 -9q33 0 46 22q9 15 9 60v363h-286v-307h-102z" />
    <glyph glyph-name="uni04C8" unicode="&#x4c8;" horiz-adv-x="494" 
d="M62 0v421h98v-156h174v156h98v-507q0 -82 -44 -117q-33 -27 -90 -27q-42 0 -66 9v88q23 -9 47 -9q33 0 46 22q9 15 9 60v235h-174v-175h-98z" />
    <glyph glyph-name="uni04D0" unicode="&#x4d0;" horiz-adv-x="656" 
d="M542 0l-70 161h-285l-73 -161h-110l332 706l316 -706h-110zM229 257h202l-99 226zM167 832l80 36q6 -19 18.5 -31.5t28 -17t23.5 -6t15 -1.5t15 1.5t23.5 6t28 17t18.5 31.5l80 -36q-24 -56 -70 -79t-95 -23t-95 23t-70 79z" />
    <glyph glyph-name="uni04D1" unicode="&#x4d1;" horiz-adv-x="530" 
d="M370 372v49h98v-421h-98v44q-48 -57 -126 -57q-94 0 -149 66t-55 158q0 99 59.5 160t145.5 61q77 0 125 -60zM257 344q-52 0 -84.5 -39t-32.5 -96q0 -56 32.5 -95t84.5 -39q49 0 84 35t35 98q0 65 -35 100.5t-84 35.5zM88 603l80 23q18 -65 82 -65q62 0 82 65l80 -23
q-17 -57 -64.5 -87.5t-97.5 -30.5t-97.5 30.5t-64.5 87.5z" />
    <glyph glyph-name="uni04D2" unicode="&#x4d2;" horiz-adv-x="656" 
d="M542 0l-70 161h-285l-73 -161h-110l332 706l316 -706h-110zM229 257h202l-99 226zM172 795q0 26 18 44t44 18t44 -18t18 -44t-18 -44t-44 -18t-44 18t-18 44zM368 795q0 26 18 44t44 18t44 -18t18 -44t-18 -44t-44 -18t-44 18t-18 44z" />
    <glyph glyph-name="uni04D3" unicode="&#x4d3;" horiz-adv-x="530" 
d="M370 372v49h98v-421h-98v44q-48 -57 -126 -57q-94 0 -149 66t-55 158q0 99 59.5 160t145.5 61q77 0 125 -60zM257 344q-52 0 -84.5 -39t-32.5 -96q0 -56 32.5 -95t84.5 -39q49 0 84 35t35 98q0 65 -35 100.5t-84 35.5zM98 569q0 26 18 44t44 18t44 -18t18 -44t-18 -44
t-44 -18t-44 18t-18 44zM278 569q0 26 18 44t44 18t44 -18t18 -44t-18 -44t-44 -18t-44 18t-18 44z" />
    <glyph glyph-name="uni04D4" unicode="&#x4d4;" horiz-adv-x="926" 
d="M546 0l-70 159h-283l-73 -159h-110l320 667h295l42 -96h-265l70 -159h258l42 -96h-258l95 -220h265l42 -96h-263h-107zM238 255h198l-95 217z" />
    <glyph glyph-name="uni04D5" unicode="&#x4d5;" horiz-adv-x="756" 
d="M99 328v91q57 13 119 13q53 0 87 -13q36 -13 63 -47q23 29 58 43q35 17 87 17q90 0 144 -55q59 -62 59 -178v-12h-302q5 -54 36 -85q27 -27 75 -27q39 0 67 21q23 18 39 46l82 -46q-31 -52 -71 -77q-50 -32 -126 -32q-51 0 -88 18q-36 17 -60 50q-29 -35 -68 -52
q-35 -16 -89 -16q-82 0 -129 45q-42 39 -42 96q0 60 40 98q46 45 128 45q59 0 108 -28q0 51 -28 76q-29 25 -86 25q-48 0 -103 -16zM220 187q-47 0 -69 -21q-17 -16 -17 -37q0 -22 20 -39q23 -19 66 -19q38 0 63 16q27 17 27 44q0 26 -31 43q-22 13 -59 13zM421 267h195
q-6 35 -30 57q-28 24 -66 24q-39 0 -69 -27q-22 -22 -30 -54z" />
    <glyph glyph-name="uni04D6" unicode="&#x4d6;" 
d="M448 667v-96h-266v-169h258v-96h-258v-210h266v-96h-368v667h368zM100 832l80 36q6 -19 18.5 -31.5t28 -17t23.5 -6t15 -1.5t15 1.5t23.5 6t28 17t18.5 31.5l80 -36q-24 -56 -70 -79t-95 -23t-95 23t-70 79z" />
    <glyph glyph-name="uni04D7" unicode="&#x4d7;" horiz-adv-x="482" 
d="M357 142l82 -46q-31 -52 -71 -77q-49 -32 -124 -32q-88 0 -142 54q-62 62 -62 161q0 104 67 173q57 57 141 57t135 -55q59 -62 59 -178v-12h-302q5 -54 36 -85q27 -27 75 -27q39 0 67 21q23 18 39 46zM147 267h195q-6 35 -30 57q-26 24 -66 24q-42 0 -69 -27
q-23 -19 -30 -54zM80 603l80 23q18 -65 82 -65q62 0 82 65l80 -23q-17 -57 -64.5 -87.5t-97.5 -30.5t-97.5 30.5t-64.5 87.5z" />
    <glyph glyph-name="uni04D8" unicode="&#x4d8;" horiz-adv-x="748" 
d="M149 478l-72 66q33 44 73 71q91 64 203 64q154 0 252 -102q95 -101 95 -244q0 -147 -102 -249q-97 -97 -239 -97q-160 0 -248 124q-63 90 -63 215v31h549q-8 103 -78 165.5t-166 62.5q-124 0 -204 -107zM589 263h-432q6 -64 44 -111q60 -71 159 -71q109 0 177 77
q39 45 52 105z" />
    <glyph glyph-name="afii10846" unicode="&#x4d9;" horiz-adv-x="488" 
d="M133 292l-89 30q25 52 73 80q48 30 117 30q91 0 149 -52q65 -61 65 -174q0 -102 -64 -166q-56 -53 -142 -53q-84 0 -135 50q-67 67 -67 180v25h306q-5 51 -35 76q-28 26 -78 26q-36 0 -63 -16q-17 -9 -37 -36zM339 162h-195q6 -45 30 -68q23 -23 66 -23q42 0 68 26
q27 27 31 65z" />
    <glyph glyph-name="uni04DA" unicode="&#x4da;" horiz-adv-x="748" 
d="M149 478l-72 66q33 44 73 71q91 64 203 64q154 0 252 -102q95 -101 95 -244q0 -147 -102 -249q-97 -97 -239 -97q-160 0 -248 124q-63 90 -63 215v31h549q-8 103 -78 165.5t-166 62.5q-124 0 -204 -107zM589 263h-432q6 -64 44 -111q60 -71 159 -71q109 0 177 77
q39 45 52 105zM214 795q0 26 18 44t44 18t44 -18t18 -44t-18 -44t-44 -18t-44 18t-18 44zM410 795q0 26 18 44t44 18t44 -18t18 -44t-18 -44t-44 -18t-44 18t-18 44z" />
    <glyph glyph-name="uni04DB" unicode="&#x4db;" horiz-adv-x="488" 
d="M133 292l-89 30q25 52 73 80q48 30 117 30q91 0 149 -52q65 -61 65 -174q0 -102 -64 -166q-56 -53 -142 -53q-84 0 -135 50q-67 67 -67 180v25h306q-5 51 -35 76q-28 26 -78 26q-36 0 -63 -16q-17 -9 -37 -36zM339 162h-195q6 -45 30 -68q23 -23 66 -23q42 0 68 26
q27 27 31 65zM93 569q0 26 18 44t44 18t44 -18t18 -44t-18 -44t-44 -18t-44 18t-18 44zM273 569q0 26 18 44t44 18t44 -18t18 -44t-18 -44t-44 -18t-44 18t-18 44z" />
    <glyph glyph-name="uni04DC" unicode="&#x4dc;" horiz-adv-x="846" 
d="M372 667h102v-269l238 269h124l-275 -306l281 -361h-126l-226 294l-16 -18v-276h-102v276l-16 18l-226 -294h-126l281 361l-275 306h124l238 -269v269zM263 795q0 26 18 44t44 18t44 -18t18 -44t-18 -44t-44 -18t-44 18t-18 44zM459 795q0 26 18 44t44 18t44 -18t18 -44
t-18 -44t-44 -18t-44 18t-18 44z" />
    <glyph glyph-name="uni04DD" unicode="&#x4dd;" horiz-adv-x="624" 
d="M263 421h98v-156l127 156h118l-163 -192l179 -229h-122l-127 169l-12 -14v-155h-98v155l-12 14l-127 -169h-122l179 229l-163 192h118l127 -156v156zM160 569q0 26 18 44t44 18t44 -18t18 -44t-18 -44t-44 -18t-44 18t-18 44zM340 569q0 26 18 44t44 18t44 -18t18 -44
t-18 -44t-44 -18t-44 18t-18 44z" />
    <glyph glyph-name="uni04DE" unicode="&#x4de;" horiz-adv-x="570" 
d="M137 516l-67 65q37 49 86 72q50 25 121 25q98 0 155 -53q48 -47 48 -117q0 -48 -22 -83q-21 -36 -60 -58q54 -14 90 -59q34 -42 34 -113q0 -89 -67 -149q-68 -58 -180 -58q-95 0 -164 52q-52 41 -85 108l90 46q18 -48 62 -81q45 -31 110 -31q66 0 102 36q32 32 32 82
q0 52 -39 78q-37 26 -121 26h-60v96h54q64 0 96 27q30 26 30 68q0 45 -32 69q-24 20 -77 20q-47 0 -81 -19q-9 -5 -17 -10.5t-14 -12t-10 -10.5t-9 -10zM120 795q0 26 18 44t44 18t44 -18t18 -44t-18 -44t-44 -18t-44 18t-18 44zM316 795q0 26 18 44t44 18t44 -18t18 -44
t-18 -44t-44 -18t-44 18t-18 44z" />
    <glyph glyph-name="uni04DF" unicode="&#x4df;" horiz-adv-x="440" 
d="M119 312l-63 55q27 30 64 47q42 18 99 18q65 0 107 -29q44 -32 44 -86q0 -35 -18 -58q-15 -20 -40 -30q38 -8 61 -31q27 -27 27 -70q0 -57 -36 -93q-48 -48 -148 -48q-68 0 -110 25q-46 29 -66 75l78 40q13 -27 37 -44q25 -16 63 -16q46 0 67 21q15 16 15 37t-13 34
q-16 18 -70 18h-44v80h37q32 0 48 11q18 16 18 37q0 22 -18 36q-15 11 -47 11q-30 0 -55 -12q-24 -14 -37 -28zM79 569q0 26 18 44t44 18t44 -18t18 -44t-18 -44t-44 -18t-44 18t-18 44zM259 569q0 26 18 44t44 18t44 -18t18 -44t-18 -44t-44 -18t-44 18t-18 44z" />
    <glyph glyph-name="uni04E2" unicode="&#x4e2;" horiz-adv-x="712" 
d="M530 0v449l-450 -479v697h102v-451l450 479v-695h-102zM184 733v80h360v-80h-360z" />
    <glyph glyph-name="uni04E3" unicode="&#x4e3;" horiz-adv-x="510" 
d="M62 421h98v-239l288 277v-459h-98v245l-288 -277v453zM90 508v78h330v-78h-330z" />
    <glyph glyph-name="uni04E4" unicode="&#x4e4;" horiz-adv-x="712" 
d="M530 0v449l-450 -479v697h102v-451l450 479v-695h-102zM204 795q0 26 18 44t44 18t44 -18t18 -44t-18 -44t-44 -18t-44 18t-18 44zM400 795q0 26 18 44t44 18t44 -18t18 -44t-18 -44t-44 -18t-44 18t-18 44z" />
    <glyph glyph-name="uni04E5" unicode="&#x4e5;" horiz-adv-x="510" 
d="M62 421h98v-239l288 277v-459h-98v245l-288 -277v453zM103 569q0 26 18 44t44 18t44 -18t18 -44t-18 -44t-44 -18t-44 18t-18 44zM283 569q0 26 18 44t44 18t44 -18t18 -44t-18 -44t-44 -18t-44 18t-18 44z" />
    <glyph glyph-name="uni04E6" unicode="&#x4e6;" horiz-adv-x="790" 
d="M395 679q149 0 248 -99t99 -247t-99 -247t-248 -99t-248 99t-99 247t99 247t248 99zM395 81q108 0 176.5 70.5t68.5 181.5t-68.5 181.5t-176.5 70.5t-176.5 -70.5t-68.5 -181.5t68.5 -181.5t176.5 -70.5zM235 795q0 26 18 44t44 18t44 -18t18 -44t-18 -44t-44 -18t-44 18
t-18 44zM431 795q0 26 18 44t44 18t44 -18t18 -44t-18 -44t-44 -18t-44 18t-18 44z" />
    <glyph glyph-name="uni04E7" unicode="&#x4e7;" horiz-adv-x="530" 
d="M265 432q96 0 160.5 -62.5t64.5 -159.5q0 -96 -64.5 -159.5t-160.5 -63.5t-160.5 63.5t-64.5 159.5q0 97 64.5 159.5t160.5 62.5zM265 75q57 0 91 36.5t34 97.5q0 67 -37 101t-88 34t-88 -34t-37 -101q0 -61 34 -97.5t91 -36.5zM113 569q0 26 18 44t44 18t44 -18t18 -44
t-18 -44t-44 -18t-44 18t-18 44zM293 569q0 26 18 44t44 18t44 -18t18 -44t-18 -44t-44 -18t-44 18t-18 44z" />
    <glyph glyph-name="uni04E8" unicode="&#x4e8;" horiz-adv-x="790" 
d="M395 679q149 0 248 -99t99 -247t-99 -247t-248 -99t-248 99t-99 247t99 247t248 99zM637 287h-484q12 -89 78.5 -147.5t163.5 -58.5t163.5 58.5t78.5 147.5zM153 383h484q-12 85 -78.5 143.5t-163.5 58.5t-163.5 -58.5t-78.5 -143.5z" />
    <glyph glyph-name="uni04E9" unicode="&#x4e9;" horiz-adv-x="530" 
d="M265 432q96 0 160.5 -62.5t64.5 -159.5q0 -96 -64.5 -159.5t-160.5 -63.5t-160.5 63.5t-64.5 159.5q0 97 64.5 159.5t160.5 62.5zM386 173h-242q8 -47 41 -72.5t80 -25.5t80 25.5t41 72.5zM144 253h242q-9 41 -40.5 66t-80.5 25t-80.5 -25t-40.5 -66z" />
    <glyph glyph-name="uni04EA" unicode="&#x4ea;" horiz-adv-x="790" 
d="M395 679q149 0 248 -99t99 -247t-99 -247t-248 -99t-248 99t-99 247t99 247t248 99zM637 287h-484q12 -89 78.5 -147.5t163.5 -58.5t163.5 58.5t78.5 147.5zM153 383h484q-12 85 -78.5 143.5t-163.5 58.5t-163.5 -58.5t-78.5 -143.5zM235 795q0 26 18 44t44 18t44 -18
t18 -44t-18 -44t-44 -18t-44 18t-18 44zM431 795q0 26 18 44t44 18t44 -18t18 -44t-18 -44t-44 -18t-44 18t-18 44z" />
    <glyph glyph-name="uni04EB" unicode="&#x4eb;" horiz-adv-x="530" 
d="M265 432q96 0 160.5 -62.5t64.5 -159.5q0 -96 -64.5 -159.5t-160.5 -63.5t-160.5 63.5t-64.5 159.5q0 97 64.5 159.5t160.5 62.5zM386 173h-242q8 -47 41 -72.5t80 -25.5t80 25.5t41 72.5zM144 253h242q-9 41 -40.5 66t-80.5 25t-80.5 -25t-40.5 -66zM113 569q0 26 18 44
t44 18t44 -18t18 -44t-18 -44t-44 -18t-44 18t-18 44zM293 569q0 26 18 44t44 18t44 -18t18 -44t-18 -44t-44 -18t-44 18t-18 44z" />
    <glyph glyph-name="uni04EE" unicode="&#x4ee;" horiz-adv-x="570" 
d="M6 667h124l172 -356l156 356h106l-301 -667h-106l86 189zM114 733v80h360v-80h-360z" />
    <glyph glyph-name="uni04EF" unicode="&#x4ef;" horiz-adv-x="482" 
d="M31 -229l155 295l-180 355h118l120 -246l122 246h110l-335 -650h-110zM77 508v78h330v-78h-330z" />
    <glyph glyph-name="uni04F0" unicode="&#x4f0;" horiz-adv-x="570" 
d="M6 667h124l172 -356l156 356h106l-301 -667h-106l86 189zM134 795q0 26 18 44t44 18t44 -18t18 -44t-18 -44t-44 -18t-44 18t-18 44zM330 795q0 26 18 44t44 18t44 -18t18 -44t-18 -44t-44 -18t-44 18t-18 44z" />
    <glyph glyph-name="uni04F1" unicode="&#x4f1;" horiz-adv-x="482" 
d="M31 -229l155 295l-180 355h118l120 -246l122 246h110l-335 -650h-110zM90 569q0 26 18 44t44 18t44 -18t18 -44t-18 -44t-44 -18t-44 18t-18 44zM270 569q0 26 18 44t44 18t44 -18t18 -44t-18 -44t-44 -18t-44 18t-18 44z" />
    <glyph glyph-name="uni04F2" unicode="&#x4f2;" horiz-adv-x="570" 
d="M6 667h124l172 -356l156 356h106l-301 -667h-106l86 189zM276 906l78 -52l-156 -127l-44 36zM476 906l78 -52l-156 -127l-44 36z" />
    <glyph glyph-name="uni04F3" unicode="&#x4f3;" horiz-adv-x="482" 
d="M31 -229l155 295l-180 355h118l120 -246l122 246h110l-335 -650h-110zM224 675l82 -46l-146 -144l-42 34zM404 675l82 -46l-146 -144l-42 34z" />
    <glyph glyph-name="uni04F4" unicode="&#x4f4;" horiz-adv-x="606" 
d="M424 0v274q-93 -7 -136 -7q-110 0 -163 41q-65 50 -65 162v197h102v-182q0 -78 36 -103q25 -21 106 -21q57 0 120 7v299h102v-667h-102zM143 795q0 26 18 44t44 18t44 -18t18 -44t-18 -44t-44 -18t-44 18t-18 44zM339 795q0 26 18 44t44 18t44 -18t18 -44t-18 -44
t-44 -18t-44 18t-18 44z" />
    <glyph glyph-name="uni04F5" unicode="&#x4f5;" horiz-adv-x="450" 
d="M290 0v163q-45 -9 -86 -9q-71 0 -111 31q-41 33 -41 101v135h98v-115q0 -43 25 -58q17 -10 49 -10q36 0 66 11v172h98v-421h-98zM74 569q0 26 18 44t44 18t44 -18t18 -44t-18 -44t-44 -18t-44 18t-18 44zM254 569q0 26 18 44t44 18t44 -18t18 -44t-18 -44t-44 -18t-44 18
t-18 44z" />
    <glyph glyph-name="uni04F8" unicode="&#x4f8;" horiz-adv-x="740" 
d="M80 0v667h102v-269h76q108 0 167 -53q63 -53 63 -147q0 -48 -21.5 -91.5t-61.5 -70.5q-54 -36 -146 -36h-179zM182 302v-206h72q134 0 134 101q0 44 -29.5 74.5t-102.5 30.5h-74zM558 667h102v-667h-102v667zM205 795q0 26 18 44t44 18t44 -18t18 -44t-18 -44t-44 -18
t-44 18t-18 44zM401 795q0 26 18 44t44 18t44 -18t18 -44t-18 -44t-44 -18t-44 18t-18 44z" />
    <glyph glyph-name="uni04F9" unicode="&#x4f9;" horiz-adv-x="580" 
d="M62 0v421h98v-149h56q27 0 44 -1.5t41.5 -12t41.5 -29.5q33 -37 33 -92q0 -63 -38 -101q-17 -17 -40 -25.5t-38.5 -9.5t-44.5 -1h-153zM160 84h45q36 0 51 9q22 16 22 43q0 28 -21 42q-15 10 -51 10h-46v-104zM420 0v421h98v-421h-98zM143 569q0 26 18 44t44 18t44 -18
t18 -44t-18 -44t-44 -18t-44 18t-18 44zM323 569q0 26 18 44t44 18t44 -18t18 -44t-18 -44t-44 -18t-44 18t-18 44z" />
    <glyph glyph-name="uni1E9E" unicode="&#x1e9e;" horiz-adv-x="567" 
d="M80 0v480q0 91 69 151q56 48 135 48q74 0 124 -37q69 -51 73 -137l-116 -115q71 -18 110 -60q44 -47 44 -127q0 -90 -80 -153q-63 -50 -172 -64v96q67 2 108 37q44 36 44 91q0 58 -46 89q-35 25 -106 31v60l106 114q-6 41 -27 60q-26 23 -68 23q-41 0 -67 -26
q-29 -29 -29 -75v-486h-102z" />
    <glyph glyph-name="uni2010" unicode="&#x2010;" horiz-adv-x="340" 
d="M50 162v102h240v-102h-240z" />
    <glyph glyph-name="uni2011" unicode="&#x2011;" horiz-adv-x="340" 
d="M50 162v102h240v-102h-240z" />
    <glyph glyph-name="figuredash" unicode="&#x2012;" horiz-adv-x="620" 
d="M70 294v90h480v-90h-480z" />
    <glyph glyph-name="endash" unicode="&#x2013;" horiz-adv-x="620" 
d="M70 168v90h480v-90h-480z" />
    <glyph glyph-name="emdash" unicode="&#x2014;" horiz-adv-x="840" 
d="M70 168v90h700v-90h-700z" />
    <glyph glyph-name="afii00208" unicode="&#x2015;" horiz-adv-x="840" 
d="M70 168v90h700v-90h-700z" />
    <glyph glyph-name="quoteleft" unicode="&#x2018;" horiz-adv-x="290" 
d="M240 667l-102 -254l-88 34l124 247z" />
    <glyph glyph-name="quoteright" unicode="&#x2019;" horiz-adv-x="290" 
d="M50 447l102 254l88 -34l-124 -247z" />
    <glyph glyph-name="quotesinglbase" unicode="&#x201a;" horiz-adv-x="340" 
d="M50 -129l102 254l88 -34l-124 -247z" />
    <glyph glyph-name="quotedblleft" unicode="&#x201c;" horiz-adv-x="462" 
d="M412 667l-102 -254l-86 34l123 247zM238 667l-102 -254l-86 34l123 247z" />
    <glyph glyph-name="quotedblright" unicode="&#x201d;" horiz-adv-x="462" 
d="M50 447l102 254l86 -34l-123 -247zM224 447l102 254l86 -34l-123 -247z" />
    <glyph glyph-name="quotedblbase" unicode="&#x201e;" horiz-adv-x="512" 
d="M50 -129l102 254l86 -34l-123 -247zM224 -129l102 254l86 -34l-123 -247z" />
    <glyph glyph-name="dagger" unicode="&#x2020;" horiz-adv-x="568" 
d="M235 516v213h98v-213h138v-94h-138v-599h-98v599h-138v94h138z" />
    <glyph glyph-name="daggerdbl" unicode="&#x2021;" horiz-adv-x="568" 
d="M235 516v213h98v-213h138v-94h-138v-251h138v-94h-138v-254h-98v254h-138v94h138v251h-138v94h138z" />
    <glyph glyph-name="bullet" unicode="&#x2022;" horiz-adv-x="1000" 
d="M360 340q0 58 41 99t99 41t99 -41t41 -99t-41 -99t-99 -41t-99 41t-41 99z" />
    <glyph glyph-name="ellipsis" unicode="&#x2026;" horiz-adv-x="800" 
d="M80 48q0 25 17.5 42.5t42.5 17.5t42.5 -17.5t17.5 -42.5t-17.5 -42.5t-42.5 -17.5t-42.5 17.5t-17.5 42.5zM340 48q0 25 17.5 42.5t42.5 17.5t42.5 -17.5t17.5 -42.5t-17.5 -42.5t-42.5 -17.5t-42.5 17.5t-17.5 42.5zM600 48q0 25 17.5 42.5t42.5 17.5t42.5 -17.5
t17.5 -42.5t-17.5 -42.5t-42.5 -17.5t-42.5 17.5t-17.5 42.5z" />
    <glyph glyph-name="perthousand" unicode="&#x2030;" horiz-adv-x="1200" 
d="M194 673q66 0 113.5 -46.5t47.5 -110.5t-47.5 -110.5t-113.5 -46.5t-113.5 46.5t-47.5 110.5t47.5 110.5t113.5 46.5zM194 431q39 0 61 26t22 59t-22 59t-61 26t-61 -26t-22 -59t22 -59t61 -26zM191 18l381 660l47 -27l-381 -662zM616 307q66 0 113.5 -46.5t47.5 -110.5
t-47.5 -110.5t-113.5 -46.5t-113.5 46.5t-47.5 110.5t47.5 110.5t113.5 46.5zM616 65q39 0 61 26t22 59t-22 59t-61 26t-61 -26t-22 -59t22 -59t61 -26zM1006 307q66 0 113.5 -46.5t47.5 -110.5t-47.5 -110.5t-113.5 -46.5t-113.5 46.5t-47.5 110.5t47.5 110.5t113.5 46.5z
M1006 65q39 0 61 26t22 59t-22 59t-61 26t-61 -26t-22 -59t22 -59t61 -26z" />
    <glyph glyph-name="guilsinglleft" unicode="&#x2039;" horiz-adv-x="321" 
d="M140 219l127 -165l-65 -47l-162 212l162 212l65 -47z" />
    <glyph glyph-name="guilsinglright" unicode="&#x203a;" horiz-adv-x="321" 
d="M181 219l-127 165l65 47l162 -212l-162 -212l-65 47z" />
    <glyph glyph-name="fraction" unicode="&#x2044;" horiz-adv-x="230" 
d="M-100 17l382 661l48 -28l-382 -661z" />
    <glyph glyph-name="uni2070" unicode="&#x2070;" horiz-adv-x="370" 
d="M185 260q-58 0 -98 44q-55 59 -55 163t55 163q40 44 98 44t98 -44q55 -59 55 -163t-55 -163q-40 -44 -98 -44zM185 608q-31 0 -53 -30q-28 -38 -28 -111t28 -111q22 -30 53 -30t53 30q28 38 28 111t-28 111q-23 30 -53 30z" />
    <glyph glyph-name="uni2074" unicode="&#x2074;" horiz-adv-x="370" 
d="M295 697v-288h43v-66h-43v-76h-72v76h-209zM145 405h78v103z" />
    <glyph glyph-name="uni2075" unicode="&#x2075;" horiz-adv-x="370" 
d="M299 667v-66h-126l-17 -61q7 1 19 1q56 0 95 -29q48 -38 48 -105q0 -66 -44.5 -106.5t-113.5 -40.5q-92 0 -140 85l56 39q25 -58 85 -58q40 0 62.5 22t22.5 56q0 35 -22.5 56t-62.5 21q-46 0 -76 -34h-27l66 220h175z" />
    <glyph glyph-name="uni2076" unicode="&#x2076;" horiz-adv-x="370" 
d="M212 691l61 -43l-89 -128q7 1 18 1q52 0 90 -30.5t38 -92.5q0 -60 -40 -99t-105 -39q-69 0 -107 38.5t-38 90.5q0 54 33 102zM184 457q-31 0 -51.5 -18.5t-20.5 -47.5t20.5 -48t52.5 -19t52.5 19t20.5 48t-21 47.5t-53 18.5z" />
    <glyph glyph-name="uni2077" unicode="&#x2077;" horiz-adv-x="370" 
d="M34 283l194 318h-192v66h318l-41 -67l-211 -347z" />
    <glyph glyph-name="uni2078" unicode="&#x2078;" horiz-adv-x="370" 
d="M185 674q58 0 92 -33.5t34 -80.5q0 -53 -44 -85q55 -28 55 -94q0 -55 -40 -88t-97 -33t-97 33t-40 88q0 68 55 94q-44 32 -44 85q0 47 34 80.5t92 33.5zM185 610q-28 0 -43 -15.5t-15 -37.5q0 -20 15 -35.5t43 -15.5q27 0 42.5 15t15.5 36q0 22 -15 37.5t-43 15.5z
M185 442q-31 0 -48 -17t-17 -42q0 -23 17 -41t48 -18t48 18t17 41q0 25 -17 42t-48 17z" />
    <glyph glyph-name="uni2079" unicode="&#x2079;" horiz-adv-x="370" 
d="M158 243l-61 43l89 128q-7 -1 -17 -1q-51 0 -90 32t-39 90q0 61 40 100t105 39q69 0 107 -38.5t38 -90.5q0 -54 -33 -102zM186 477q31 0 51.5 18.5t20.5 47.5t-20.5 48t-52.5 19t-52.5 -19t-20.5 -48t21 -47.5t53 -18.5z" />
    <glyph glyph-name="uni2080" unicode="&#x2080;" horiz-adv-x="370" 
d="M185 -7q-58 0 -98 44q-55 59 -55 163t55 163q40 44 98 44t98 -44q55 -59 55 -163t-55 -163q-40 -44 -98 -44zM185 341q-31 0 -53 -30q-28 -38 -28 -111t28 -111q22 -30 53 -30t53 30q28 38 28 111t-28 111q-23 30 -53 30z" />
    <glyph glyph-name="uni2081" unicode="&#x2081;" horiz-adv-x="370" 
d="M162 0v334h-78l42 66h110v-400h-74z" />
    <glyph glyph-name="uni2082" unicode="&#x2082;" horiz-adv-x="370" 
d="M314 66v-66h-290l146 162q34 38 50 62q21 30 21 57t-17.5 43.5t-45.5 16.5q-33 0 -51.5 -22t-21.5 -51h-70q5 58 37 96q39 43 103 43q65 0 101.5 -36t36.5 -88q0 -36 -30 -85q-23 -37 -55 -70l-55 -62h141z" />
    <glyph glyph-name="uni2083" unicode="&#x2083;" horiz-adv-x="370" 
d="M115 286h-70q6 45 23 70q33 51 110 51q64 0 95.5 -32.5t31.5 -79.5q0 -63 -52 -84l7 -3q6 -3 9.5 -5.5t11 -8t12 -12t9.5 -15.5t7.5 -21t2.5 -26q0 -54 -36.5 -90.5t-104.5 -36.5q-93 0 -128 78q-10 20 -11 48h70q2 -27 19.5 -42t28 -16.5t21.5 -1.5q34 0 51.5 18
t17.5 44q0 12 -3.5 23t-20 23t-45.5 12h-24v66h24q63 0 63 47q0 49 -58 49q-56 0 -61 -55z" />
    <glyph glyph-name="uni2084" unicode="&#x2084;" horiz-adv-x="370" 
d="M295 430v-288h43v-66h-43v-76h-72v76h-209zM145 138h78v103z" />
    <glyph glyph-name="uni2085" unicode="&#x2085;" horiz-adv-x="370" 
d="M299 400v-66h-126l-17 -61q7 1 19 1q56 0 95 -29q48 -38 48 -105q0 -66 -44.5 -106.5t-113.5 -40.5q-92 0 -140 85l56 39q25 -58 85 -58q40 0 62.5 22t22.5 56q0 35 -22.5 56t-62.5 21q-46 0 -76 -34h-27l66 220h175z" />
    <glyph glyph-name="uni2086" unicode="&#x2086;" horiz-adv-x="370" 
d="M212 424l61 -43l-89 -128q7 1 18 1q52 0 90 -30.5t38 -92.5q0 -61 -40 -99.5t-105 -38.5q-69 0 -107 38.5t-38 90.5q0 54 33 102zM184 190q-31 0 -51.5 -18.5t-20.5 -47.5t20.5 -48t52.5 -19t52.5 19t20.5 48t-21 47.5t-53 18.5z" />
    <glyph glyph-name="uni2087" unicode="&#x2087;" horiz-adv-x="370" 
d="M34 16l194 318h-192v66h318l-41 -67l-211 -347z" />
    <glyph glyph-name="uni2088" unicode="&#x2088;" horiz-adv-x="370" 
d="M185 407q58 0 92 -33.5t34 -80.5q0 -53 -44 -85q55 -28 55 -94q0 -55 -40 -88t-97 -33t-97 33t-40 88q0 68 55 94q-44 32 -44 85q0 47 34 80.5t92 33.5zM185 343q-28 0 -43 -15.5t-15 -37.5q0 -20 15 -35.5t43 -15.5q27 0 42.5 15.5t15.5 35.5q0 22 -15 37.5t-43 15.5z
M185 175q-31 0 -48 -17t-17 -42q0 -23 17 -41t48 -18t48 18t17 41q0 25 -17 42t-48 17z" />
    <glyph glyph-name="uni2089" unicode="&#x2089;" horiz-adv-x="370" 
d="M158 -24l-61 43l89 128q-7 -1 -17 -1q-51 0 -90 32t-39 90q0 61 40 100t105 39q69 0 107 -38.5t38 -90.5q0 -54 -33 -102zM186 210q31 0 51.5 18.5t20.5 47.5t-20.5 48t-52.5 19t-52.5 -19t-20.5 -48t21 -47.5t53 -18.5z" />
    <glyph glyph-name="Euro" unicode="&#x20ac;" horiz-adv-x="568" 
d="M542 641l-43 -89q-46 33 -118 33q-78 0 -134.5 -36.5t-79.5 -102.5h291l-30 -70h-275q-5 -38 -1 -74h247l-30 -70h-207q18 -71 75 -111t135 -40q86 0 160 57v-109q-81 -42 -163 -42q-146 0 -229 82q-23 20 -48 62t-34 101h-68l30 70h30q-4 36 1 74h-61l30 70h41
q23 87 82 146q87 87 241 87q95 0 158 -38z" />
    <glyph glyph-name="uni20B4" unicode="&#x20b4;" horiz-adv-x="568" 
d="M162 519l-82 48q37 50 83 76q58 36 133 36q76 0 120 -36q44 -35 44 -90q0 -57 -47 -106h111v-70h-164l-72 -74h236v-70h-297q-41 -35 -41 -83q0 -31 22 -49q24 -20 68 -20q53 0 93 31q34 26 47 62l85 -40q-22 -54 -72 -95q-66 -52 -161 -52q-78 0 -124 33q-60 42 -60 114
q0 55 39 99h-83v70h138l72 74h-210v70h269q49 34 49 80q0 25 -16 41q-18 17 -55 17q-38 0 -73 -20q-30 -17 -52 -46z" />
    <glyph glyph-name="uni20B6" unicode="&#x20b6;" horiz-adv-x="568" 
d="M134 667h147q92 0 146 -36q41 -26 62 -69t21 -87q0 -84 -53 -137q-61 -61 -175 -61h-46v-74h158v-70h-158v-133h-102v133h-73v70h73v74h-73v88h73v302zM236 573v-208h46q70 0 104 34q26 26 26 71q0 44 -28 72q-32 31 -103 31h-45z" />
    <glyph glyph-name="uni20B6" unicode="&#x20cf;" horiz-adv-x="568" 
d="M134 667h147q92 0 146 -36q41 -26 62 -69t21 -87q0 -84 -53 -137q-61 -61 -175 -61h-46v-74h158v-70h-158v-133h-102v133h-73v70h73v74h-73v88h73v302zM236 573v-208h46q70 0 104 34q26 26 26 71q0 44 -28 72q-32 31 -103 31h-45z" />
    <glyph glyph-name="uni20B6" unicode="&#x20ce;" horiz-adv-x="568" 
d="M134 667h147q92 0 146 -36q41 -26 62 -69t21 -87q0 -84 -53 -137q-61 -61 -175 -61h-46v-74h158v-70h-158v-133h-102v133h-73v70h73v74h-73v88h73v302zM236 573v-208h46q70 0 104 34q26 26 26 71q0 44 -28 72q-32 31 -103 31h-45z" />
    <glyph glyph-name="uni20B6" unicode="&#x20cd;" horiz-adv-x="568" 
d="M134 667h147q92 0 146 -36q41 -26 62 -69t21 -87q0 -84 -53 -137q-61 -61 -175 -61h-46v-74h158v-70h-158v-133h-102v133h-73v70h73v74h-73v88h73v302zM236 573v-208h46q70 0 104 34q26 26 26 71q0 44 -28 72q-32 31 -103 31h-45z" />
    <glyph glyph-name="uni20B6" unicode="&#x20cc;" horiz-adv-x="568" 
d="M134 667h147q92 0 146 -36q41 -26 62 -69t21 -87q0 -84 -53 -137q-61 -61 -175 -61h-46v-74h158v-70h-158v-133h-102v133h-73v70h73v74h-73v88h73v302zM236 573v-208h46q70 0 104 34q26 26 26 71q0 44 -28 72q-32 31 -103 31h-45z" />
    <glyph glyph-name="uni20B6" unicode="&#x20cb;" horiz-adv-x="568" 
d="M134 667h147q92 0 146 -36q41 -26 62 -69t21 -87q0 -84 -53 -137q-61 -61 -175 -61h-46v-74h158v-70h-158v-133h-102v133h-73v70h73v74h-73v88h73v302zM236 573v-208h46q70 0 104 34q26 26 26 71q0 44 -28 72q-32 31 -103 31h-45z" />
    <glyph glyph-name="uni20B6" unicode="&#x20ca;" horiz-adv-x="568" 
d="M134 667h147q92 0 146 -36q41 -26 62 -69t21 -87q0 -84 -53 -137q-61 -61 -175 -61h-46v-74h158v-70h-158v-133h-102v133h-73v70h73v74h-73v88h73v302zM236 573v-208h46q70 0 104 34q26 26 26 71q0 44 -28 72q-32 31 -103 31h-45z" />
    <glyph glyph-name="uni20B6" unicode="&#x20c9;" horiz-adv-x="568" 
d="M134 667h147q92 0 146 -36q41 -26 62 -69t21 -87q0 -84 -53 -137q-61 -61 -175 -61h-46v-74h158v-70h-158v-133h-102v133h-73v70h73v74h-73v88h73v302zM236 573v-208h46q70 0 104 34q26 26 26 71q0 44 -28 72q-32 31 -103 31h-45z" />
    <glyph glyph-name="uni20B6" unicode="&#x20c8;" horiz-adv-x="568" 
d="M134 667h147q92 0 146 -36q41 -26 62 -69t21 -87q0 -84 -53 -137q-61 -61 -175 -61h-46v-74h158v-70h-158v-133h-102v133h-73v70h73v74h-73v88h73v302zM236 573v-208h46q70 0 104 34q26 26 26 71q0 44 -28 72q-32 31 -103 31h-45z" />
    <glyph glyph-name="uni20B6" unicode="&#x20c7;" horiz-adv-x="568" 
d="M134 667h147q92 0 146 -36q41 -26 62 -69t21 -87q0 -84 -53 -137q-61 -61 -175 -61h-46v-74h158v-70h-158v-133h-102v133h-73v70h73v74h-73v88h73v302zM236 573v-208h46q70 0 104 34q26 26 26 71q0 44 -28 72q-32 31 -103 31h-45z" />
    <glyph glyph-name="uni20B6" unicode="&#x20c6;" horiz-adv-x="568" 
d="M134 667h147q92 0 146 -36q41 -26 62 -69t21 -87q0 -84 -53 -137q-61 -61 -175 -61h-46v-74h158v-70h-158v-133h-102v133h-73v70h73v74h-73v88h73v302zM236 573v-208h46q70 0 104 34q26 26 26 71q0 44 -28 72q-32 31 -103 31h-45z" />
    <glyph glyph-name="uni20B6" unicode="&#x20c5;" horiz-adv-x="568" 
d="M134 667h147q92 0 146 -36q41 -26 62 -69t21 -87q0 -84 -53 -137q-61 -61 -175 -61h-46v-74h158v-70h-158v-133h-102v133h-73v70h73v74h-73v88h73v302zM236 573v-208h46q70 0 104 34q26 26 26 71q0 44 -28 72q-32 31 -103 31h-45z" />
    <glyph glyph-name="uni20B6" unicode="&#x20c4;" horiz-adv-x="568" 
d="M134 667h147q92 0 146 -36q41 -26 62 -69t21 -87q0 -84 -53 -137q-61 -61 -175 -61h-46v-74h158v-70h-158v-133h-102v133h-73v70h73v74h-73v88h73v302zM236 573v-208h46q70 0 104 34q26 26 26 71q0 44 -28 72q-32 31 -103 31h-45z" />
    <glyph glyph-name="uni20B6" unicode="&#x20c3;" horiz-adv-x="568" 
d="M134 667h147q92 0 146 -36q41 -26 62 -69t21 -87q0 -84 -53 -137q-61 -61 -175 -61h-46v-74h158v-70h-158v-133h-102v133h-73v70h73v74h-73v88h73v302zM236 573v-208h46q70 0 104 34q26 26 26 71q0 44 -28 72q-32 31 -103 31h-45z" />
    <glyph glyph-name="uni20B6" unicode="&#x20c2;" horiz-adv-x="568" 
d="M134 667h147q92 0 146 -36q41 -26 62 -69t21 -87q0 -84 -53 -137q-61 -61 -175 -61h-46v-74h158v-70h-158v-133h-102v133h-73v70h73v74h-73v88h73v302zM236 573v-208h46q70 0 104 34q26 26 26 71q0 44 -28 72q-32 31 -103 31h-45z" />
    <glyph glyph-name="uni20B6" unicode="&#x20c1;" horiz-adv-x="568" 
d="M134 667h147q92 0 146 -36q41 -26 62 -69t21 -87q0 -84 -53 -137q-61 -61 -175 -61h-46v-74h158v-70h-158v-133h-102v133h-73v70h73v74h-73v88h73v302zM236 573v-208h46q70 0 104 34q26 26 26 71q0 44 -28 72q-32 31 -103 31h-45z" />
    <glyph glyph-name="uni20B6" unicode="&#x20c0;" horiz-adv-x="568" 
d="M134 667h147q92 0 146 -36q41 -26 62 -69t21 -87q0 -84 -53 -137q-61 -61 -175 -61h-46v-74h158v-70h-158v-133h-102v133h-73v70h73v74h-73v88h73v302zM236 573v-208h46q70 0 104 34q26 26 26 71q0 44 -28 72q-32 31 -103 31h-45z" />
    <glyph glyph-name="uni20B6" unicode="&#x20bf;" horiz-adv-x="568" 
d="M134 667h147q92 0 146 -36q41 -26 62 -69t21 -87q0 -84 -53 -137q-61 -61 -175 -61h-46v-74h158v-70h-158v-133h-102v133h-73v70h73v74h-73v88h73v302zM236 573v-208h46q70 0 104 34q26 26 26 71q0 44 -28 72q-32 31 -103 31h-45z" />
    <glyph glyph-name="uni20B6" unicode="&#x20be;" horiz-adv-x="568" 
d="M134 667h147q92 0 146 -36q41 -26 62 -69t21 -87q0 -84 -53 -137q-61 -61 -175 -61h-46v-74h158v-70h-158v-133h-102v133h-73v70h73v74h-73v88h73v302zM236 573v-208h46q70 0 104 34q26 26 26 71q0 44 -28 72q-32 31 -103 31h-45z" />
    <glyph glyph-name="uni20B6" unicode="&#x20bd;" horiz-adv-x="568" 
d="M134 667h147q92 0 146 -36q41 -26 62 -69t21 -87q0 -84 -53 -137q-61 -61 -175 -61h-46v-74h158v-70h-158v-133h-102v133h-73v70h73v74h-73v88h73v302zM236 573v-208h46q70 0 104 34q26 26 26 71q0 44 -28 72q-32 31 -103 31h-45z" />
    <glyph glyph-name="uni20B6" unicode="&#x20bc;" horiz-adv-x="568" 
d="M134 667h147q92 0 146 -36q41 -26 62 -69t21 -87q0 -84 -53 -137q-61 -61 -175 -61h-46v-74h158v-70h-158v-133h-102v133h-73v70h73v74h-73v88h73v302zM236 573v-208h46q70 0 104 34q26 26 26 71q0 44 -28 72q-32 31 -103 31h-45z" />
    <glyph glyph-name="uni20B6" unicode="&#x20bb;" horiz-adv-x="568" 
d="M134 667h147q92 0 146 -36q41 -26 62 -69t21 -87q0 -84 -53 -137q-61 -61 -175 -61h-46v-74h158v-70h-158v-133h-102v133h-73v70h73v74h-73v88h73v302zM236 573v-208h46q70 0 104 34q26 26 26 71q0 44 -28 72q-32 31 -103 31h-45z" />
    <glyph glyph-name="uni20B6" unicode="&#x20ba;" horiz-adv-x="568" 
d="M134 667h147q92 0 146 -36q41 -26 62 -69t21 -87q0 -84 -53 -137q-61 -61 -175 -61h-46v-74h158v-70h-158v-133h-102v133h-73v70h73v74h-73v88h73v302zM236 573v-208h46q70 0 104 34q26 26 26 71q0 44 -28 72q-32 31 -103 31h-45z" />
    <glyph glyph-name="uni20B6" unicode="&#x20b9;" horiz-adv-x="568" 
d="M134 667h147q92 0 146 -36q41 -26 62 -69t21 -87q0 -84 -53 -137q-61 -61 -175 -61h-46v-74h158v-70h-158v-133h-102v133h-73v70h73v74h-73v88h73v302zM236 573v-208h46q70 0 104 34q26 26 26 71q0 44 -28 72q-32 31 -103 31h-45z" />
    <glyph glyph-name="uni20B6" unicode="&#x20b7;" horiz-adv-x="568" 
d="M134 667h147q92 0 146 -36q41 -26 62 -69t21 -87q0 -84 -53 -137q-61 -61 -175 -61h-46v-74h158v-70h-158v-133h-102v133h-73v70h73v74h-73v88h73v302zM236 573v-208h46q70 0 104 34q26 26 26 71q0 44 -28 72q-32 31 -103 31h-45z" />
    <glyph glyph-name="uni20B8" unicode="&#x20b8;" horiz-adv-x="568" 
d="M488 441h-153v-441h-102v441h-153v96h408v-96zM488 581h-408v86h408v-86z" />
    <glyph glyph-name="afii61352" unicode="&#x2116;" horiz-adv-x="1060" 
d="M182 0h-102v712l444 -483v438h102v-708l-444 483v-442zM857 667q66 0 113.5 -46.5t47.5 -110.5t-47.5 -110.5t-113.5 -46.5t-113.5 46.5t-47.5 110.5t47.5 110.5t113.5 46.5zM857 425q39 0 61 26t22 59t-22 59t-61 26t-61 -26t-22 -59t22 -59t61 -26zM716 203v80h282v-80
h-282z" />
    <glyph glyph-name="uni2117" unicode="&#x2117;" horiz-adv-x="758" 
d="M274 527h109q63 0 94 -31q30 -27 30 -80q0 -51 -28 -80q-33 -35 -112 -35h-22v-148h-71v374zM345 464v-104h14q40 0 60 15q18 15 18 41q0 25 -19 39q-12 9 -49 9h-24zM379 630q-122 0 -206 -84t-84 -213t84 -213t206 -84t206 84t84 213t-84 213t-206 84zM725 333
q0 -151 -98 -249t-248 -98t-248 98t-98 249t98 249t248 98t248 -98t98 -249z" />
    <glyph glyph-name="trademark" unicode="&#x2122;" horiz-adv-x="710" 
d="M238 601h-84v-314h-70v314h-84v66h238v-66zM331 287h-71l82 414l126 -280l127 280l81 -414h-71l-35 206l-102 -213l-102 213z" />
    <glyph glyph-name="partialdiff" unicode="&#x2202;" horiz-adv-x="530" 
d="M96 586l18 87q124 -15 213 -76q79 -55 118 -135q45 -89 45 -212q0 -137 -66 -204q-59 -59 -157 -59q-100 0 -162 63q-65 65 -65 160q0 100 64 164q58 58 142 58q78 0 131 -47q-27 96 -114 148q-73 46 -167 53zM265 75q56 0 86 30q39 39 39 104q0 64 -40 104
q-35 31 -85 31q-54 0 -85 -31q-40 -40 -40 -104q0 -69 40 -105q33 -29 85 -29z" />
    <glyph glyph-name="product" unicode="&#x220f;" horiz-adv-x="714" 
d="M38 654v96h638v-96h-80v-808h80v-96h-263v96h81v808h-273v-808h80v-96h-263v96h81v808h-81z" />
    <glyph glyph-name="summation" unicode="&#x2211;" horiz-adv-x="700" 
d="M32 750h598v-245h-94v149h-364l220 -382l-220 -426h372v147h94v-243h-606v46l252 476l-252 432v46z" />
    <glyph glyph-name="minus" unicode="&#x2212;" 
d="M33 291v90h434v-90h-434z" />
    <glyph glyph-name="uni2215" unicode="&#x2215;" horiz-adv-x="684" 
d="M0 -177l526 942l80 -36l-526 -942z" />
    <glyph glyph-name="uni2219" unicode="&#x2219;" horiz-adv-x="200" 
d="M22 340q0 33 22.5 55.5t55.5 22.5t55.5 -22.5t22.5 -55.5t-22.5 -55.5t-55.5 -22.5t-55.5 22.5t-22.5 55.5z" />
    <glyph glyph-name="radical" unicode="&#x221a;" horiz-adv-x="668" 
d="M394 827h274v-88h-190l-193 -739h-126l-71 286h-88v88h168l50 -251h8z" />
    <glyph glyph-name="infinity" unicode="&#x221e;" horiz-adv-x="670" 
d="M335 275q-70 -93 -162 -93q-68 0 -111.5 44t-43.5 113q0 70 43.5 114.5t112.5 44.5q98 0 161 -93q63 93 161 93q69 0 112.5 -44.5t43.5 -114.5q0 -69 -43.5 -113t-111.5 -44q-92 0 -162 93zM482 410q-28 0 -54 -20.5t-44 -49.5q41 -70 98 -70q31 0 51 20t20 50
q0 29 -21 49.5t-50 20.5zM188 270q57 0 98 70q-17 29 -44 49.5t-54 20.5q-29 0 -50 -20.5t-21 -49.5q0 -30 20 -50t51 -20z" />
    <glyph glyph-name="integral" unicode="&#x222b;" 
d="M75 -239l18 86q24 -13 53 -13q26 0 40 15q14 14 14 72v7v8v618q0 37 1 55.5t8.5 47.5t23.5 47q40 46 117 46q41 0 75 -11l-18 -86q-24 13 -53 13q-26 0 -40 -15q-14 -14 -14 -72v-7v-8v-618q0 -36 -1 -55.5t-9 -47.5t-23 -47q-40 -46 -117 -46q-41 0 -75 11z" />
    <glyph glyph-name="approxequal" unicode="&#x2248;" 
d="M435 505l57 -33q-24 -58 -66 -93q-36 -28 -83 -28q-40 0 -112 32q-61 26 -87 26q-31 0 -51 -22q-18 -18 -29 -45l-56 36q20 49 50 83q37 42 92 42q38 0 110 -31q65 -28 93 -28q31 0 49 18q19 16 33 43zM435 323l57 -33q-24 -58 -66 -93q-36 -28 -83 -28q-40 0 -112 32
q-61 26 -87 26q-31 0 -51 -22q-18 -18 -29 -45l-56 36q20 49 50 83q37 42 92 42q38 0 110 -31q65 -28 93 -28q31 0 49 18q19 16 33 43z" />
    <glyph glyph-name="notequal" unicode="&#x2260;" 
d="M33 380v84h238l52 110h78l-52 -110h118v-84h-158l-37 -78h195v-84h-235l-55 -116h-78l55 116h-121v84h161l37 78h-198z" />
    <glyph glyph-name="lessequal" unicode="&#x2264;" 
d="M137 391l330 -149v-92l-434 200v82l434 200v-92zM467 32h-434v90h434v-90z" />
    <glyph glyph-name="greaterequal" unicode="&#x2265;" 
d="M363 391l-330 149v92l434 -200v-82l-434 -200v92zM467 32h-434v90h434v-90z" />
    <glyph glyph-name="dotmath" unicode="&#x22c5;" horiz-adv-x="200" 
d="M22 340q0 33 22.5 55.5t55.5 22.5t55.5 -22.5t22.5 -55.5t-22.5 -55.5t-55.5 -22.5t-55.5 22.5t-22.5 55.5z" />
    <glyph glyph-name="lozenge" unicode="&#x25ca;" horiz-adv-x="700" 
d="M90 334l260 360l260 -360l-260 -360zM496 334l-146 202l-146 -202l146 -202z" />
    <glyph glyph-name="openbullet" unicode="&#x25e6;" 
d="M104 522q0 61 42 103t104 42t104 -42t42 -103t-42 -103t-104 -42t-104 42t-42 103zM166 522q0 -38 24 -62.5t60 -24.5t60 24.5t24 62.5t-24 62.5t-60 24.5t-60 -24.5t-24 -62.5z" />
    <glyph glyph-name="uniF400" unicode="&#xf400;" horiz-adv-x="2" 
d="M-173 675l90 -46l-156 -144l-54 34z" />
    <glyph glyph-name="uniF401" unicode="&#xf401;" horiz-adv-x="2" 
d="M-314 727l-48 40l138 139l86 -60z" />
    <glyph glyph-name="uniF406" unicode="&#xf406;" 
d="M338 874h82q-12 -52 -40 -86q-45 -58 -130 -58t-130 58q-28 34 -40 86h82q9 -33 34 -49q22 -15 54 -15t54 15q25 16 34 49z" />
    <glyph glyph-name="uniF407" unicode="&#xf407;" 
d="M290 -53l86 -38l-112 -133l-64 32z" />
    <glyph glyph-name="uniF408" unicode="&#xf408;" 
d="M250 812l-99 -82l-66 56l165 134l165 -134l-66 -56z" />
    <glyph glyph-name="uniF409" unicode="&#xf409;" 
d="M170 -242l72 192l88 -34l-90 -186z" />
    <glyph glyph-name="uniF40A" unicode="&#xf40a;" 
d="M150 468l82 212l88 -34l-104 -206z" />
    <glyph glyph-name="uniF40B" unicode="&#xf40b;" 
d="M183 801q0 29 19 48t48 19t48 -19t19 -48t-19 -48t-48 -19t-48 19t-19 48z" />
    <glyph glyph-name="uniF40C" unicode="&#xf40c;" 
d="M153 823q0 41 28.5 69t68.5 28q41 0 69 -28t28 -69q0 -40 -28 -68.5t-69 -28.5q-40 0 -68.5 28.5t-28.5 68.5zM207 823q0 -18 12.5 -30.5t30.5 -12.5t30.5 12.5t12.5 30.5t-12.5 30.5t-30.5 12.5t-30.5 -12.5t-12.5 -30.5z" />
    <glyph glyph-name="uniF40D" unicode="&#xf40d;" 
d="M372 863l58 -46q-41 -84 -116 -84q-27 0 -55 13q-12 6 -20.5 10t-12 6t-9.5 4q-25 9 -37 9q-35 0 -51 -42l-59 41q19 34 42 54q32 27 70 27q22 0 49 -9q32 -14 46 -21q24 -14 41 -14q38 0 54 52z" />
    <glyph glyph-name="uniF40E" unicode="&#xf40e;" 
d="M246 0h78q-32 -18 -51 -39q-21 -23 -21 -45q0 -31 40 -31q33 0 52 7l-9 -70q-29 -15 -66 -15q-41 0 -70 24t-29 64q0 36 26 64q18 22 50 41z" />
    <glyph glyph-name="uniF4C6" unicode="&#xf4c6;" horiz-adv-x="606" 
d="M60 667h102v-182q0 -78 36 -103q25 -21 106 -21q57 0 120 7v299h102v-753q0 -82 -44 -117q-33 -27 -94 -27q-36 0 -66 9v92q23 -9 47 -9q33 0 46 22q9 15 9 60v330q-93 -7 -136 -7q-110 0 -163 41q-65 50 -65 162v197z" />
    <glyph glyph-name="uniF4C7" unicode="&#xf4c7;" horiz-adv-x="450" 
d="M290 421h98v-507q0 -82 -44 -117q-33 -27 -90 -27q-42 0 -66 9v88q22 -9 47 -9q33 0 46 22q9 15 9 60v223q-45 -9 -86 -9q-71 0 -111 31q-41 33 -41 101v135h98v-115q0 -43 25 -58q17 -10 49 -10q36 0 66 11v172z" />
    <glyph glyph-name="uniF4CC" unicode="&#xf4cc;" horiz-adv-x="570" 
d="M6 667h124l172 -356l156 356h106l-301 -667h-106l86 189zM272 727l-48 40l138 139l86 -60z" />
    <glyph glyph-name="uniF4CD" unicode="&#xf4cd;" horiz-adv-x="482" 
d="M31 -229l155 295l-180 355h118l120 -246l122 246h110l-335 -650h-110zM317 675l90 -46l-156 -144l-54 34z" />
    <glyph glyph-name="dollar.fitted" unicode="&#xf5f5;" horiz-adv-x="455" 
d="M423 567l-82 -48q-13 27 -30 42q-29 24 -72 24q-47 0 -74 -27q-20 -20 -20 -51q0 -34 26 -56q25 -20 63 -34l50 -20q76 -31 111 -70q46 -51 46 -126q0 -89 -58 -152q-44 -47 -110 -58v-101h-74v98q-77 6 -130 66q-50 55 -56 130l101 22q0 -48 28 -85q32 -40 87 -40
q48 0 79 32q31 31 31 80q0 41 -29 73q-21 21 -67 41l-64 27q-57 24 -94 61q-42 43 -42 102q0 78 51 129q40 40 105 50v89h74v-88q51 -6 87 -33q38 -28 63 -77z" />
    <glyph glyph-name="Euro.fitted" unicode="&#xf5f6;" horiz-adv-x="598" 
d="M568 641l-43 -89q-46 33 -118 33q-78 0 -134.5 -36.5t-79.5 -102.5h291l-30 -70h-275q-5 -38 -1 -74h247l-30 -70h-207q18 -71 75 -111t135 -40q86 0 160 57v-109q-81 -42 -163 -42q-146 0 -229 82q-23 20 -48 62t-34 101h-68l30 70h30q-4 36 1 74h-61l30 70h41
q23 87 82 146q87 87 241 87q95 0 158 -38z" />
    <glyph glyph-name="cent.fitted" unicode="&#xf5f7;" horiz-adv-x="377" 
d="M360 527v-109q-46 51 -122 51q-53 0 -87 -34q-39 -36 -39 -100q0 -62 38 -100q37 -35 92 -35q70 0 118 54v-109q-39 -27 -94 -32v-100h-74v103q-71 11 -120 60q-60 60 -60 158q0 102 68 166q48 46 112 54v101h74v-99q49 -4 94 -29z" />
    <glyph glyph-name="sterling.fitted" unicode="&#xf5f8;" horiz-adv-x="560" 
d="M514 444h-98v4q0 70 -35 105q-31 31 -80 31q-53 0 -86 -31q-33 -33 -33 -81q0 -45 51 -142h130v-72h-101q12 -28 12 -65q0 -36 -14 -65l53 -19q60 -20 76 -20q48 0 69 63l82 -48q-22 -46 -51 -75q-38 -38 -97 -38q-37 0 -112 25q-77 28 -101 28q-49 0 -68 -59l-87 44
q26 56 70 87q30 20 63 22q15 30 15 62q0 34 -15 58h-114v72h78q-41 86 -41 141q0 87 57 144q67 63 165 63q95 0 151 -56q61 -61 61 -173v-5z" />
    <glyph glyph-name="yen.fitted" unicode="&#xf5f9;" horiz-adv-x="542" 
d="M510 377h-143l-41 -74h184v-70h-192v-233h-94v233h-192v70h184l-41 74h-143v70h104l-121 220h110l146 -267l146 267h110l-121 -220h104v-70z" />
    <glyph glyph-name="florin.fitted" unicode="&#xf5fa;" 
d="M495 731l-18 -93q-21 10 -44 10q-31 0 -51 -21q-15 -16 -28 -74l-24 -132h112l-14 -78h-112l-51 -279q-9 -50 -14.5 -72.5t-21 -58.5t-36.5 -56q-64 -64 -186 -53l16 93h6q63 0 90 27t44 119l51 280h-85l14 78h85l26 144q19 93 58 132q43 43 115 43q37 0 68 -9z" />
    <glyph glyph-name="uni20B4.fitted" unicode="&#xf5fb;" horiz-adv-x="523" 
d="M142 519l-82 48q37 50 83 76q58 36 133 36q76 0 120 -36q44 -35 44 -90q0 -57 -47 -106h111v-70h-164l-72 -74h236v-70h-297q-41 -35 -41 -83q0 -31 22 -49q24 -20 68 -20q53 0 93 31q34 26 47 62l85 -40q-22 -54 -72 -95q-66 -52 -161 -52q-78 0 -124 33q-60 42 -60 114
q0 55 39 99h-83v70h138l72 74h-210v70h269q49 34 49 80q0 25 -16 41q-18 17 -55 17q-38 0 -73 -20q-30 -17 -52 -46z" />
    <glyph glyph-name="uni20B6.fitted" unicode="&#xf5fc;" horiz-adv-x="480" 
d="M93 667h147q92 0 146 -36q41 -26 62 -69t21 -87q0 -84 -53 -137q-61 -61 -175 -61h-46v-74h158v-70h-158v-133h-102v133h-73v70h73v74h-73v88h73v302zM195 573v-208h46q70 0 104 34q26 26 26 71q0 44 -28 72q-32 31 -103 31h-45z" />
    <glyph glyph-name="uni20B8.fitted" unicode="&#xf5fd;" horiz-adv-x="432" 
d="M421 441h-153v-441h-102v441h-153v96h408v-96zM421 581h-408v86h408v-86z" />
    <glyph glyph-name="uniF639" unicode="&#xf639;" horiz-adv-x="522" 
d="M262 -11q-88 0 -151 72q-85 99 -85 272q0 174 85 273q63 72 151 72t151 -72q85 -99 85 -273q0 -173 -85 -272q-63 -72 -151 -72zM262 588q-54 0 -90 -55q-46 -70 -46 -199q0 -130 46 -200q36 -55 90 -55t90 55q46 70 46 200q0 129 -46 199q-36 55 -90 55z" />
    <glyph glyph-name="uniF63A" unicode="&#xf63a;" horiz-adv-x="496" 
d="M469 94v-94h-448l231 280q42 51 80 104q35 52 35 96q0 45 -29 76.5t-82 31.5t-84.5 -35.5t-33.5 -85.5h-98q4 90 56 146q58 65 156 65q101 0 158 -59t57 -142q0 -69 -48 -140q-26 -39 -95 -120l-104 -123h249z" />
    <glyph glyph-name="uniF63B" unicode="&#xf63b;" horiz-adv-x="472" 
d="M138 497h-98q4 77 57 130q54 51 146 51q91 0 144 -55q48 -49 48 -127q0 -50 -23 -88q-22 -34 -60 -56q42 -16 66 -53q28 -41 28 -103q0 -92 -57 -149q-58 -58 -163 -58q-98 0 -149 56q-49 50 -57 136h98q7 -45 36 -72q35 -30 81 -30q45 0 78 28q35 35 35 94q0 51 -30 79
q-31 30 -86 30h-20v86h14q56 0 85 29q26 26 26 71q0 41 -26 67q-25 25 -71 25q-47 0 -74 -27q-11 -11 -18 -26.5t-8.5 -24.5t-1.5 -13z" />
    <glyph glyph-name="uniF63C" unicode="&#xf63c;" horiz-adv-x="522" 
d="M430 716v-496h72v-94h-72v-126h-98v126h-330zM180 218h152v215z" />
    <glyph glyph-name="uniF63D" unicode="&#xf63d;" 
d="M465 667v-94h-206l-33 -111q22 2 31 2q94 0 154 -59q65 -63 65 -171q0 -109 -68 -177q-69 -68 -185 -68q-76 0 -128 30q-50 32 -79 77l77 64q25 -41 51 -58q35 -23 87 -23q63 0 102 37q43 43 43 113t-40 108q-39 37 -109 37q-44 0 -78 -14q-34 -13 -59 -30l99 337h276z
" />
    <glyph glyph-name="uniF63E" unicode="&#xf63e;" horiz-adv-x="502" 
d="M314 690l74 -55l-159 -201q17 4 42 4q94 0 154 -62q59 -64 59 -156q0 -103 -66 -168q-63 -63 -172 -63t-172 65q-58 61 -58 151q0 66 32 128q22 45 81 119zM251 351q-57 0 -96 -37q-39 -36 -39 -99t39 -99q39 -37 96 -37t94 37q39 39 39 99t-39 99q-37 37 -94 37z" />
    <glyph glyph-name="uniF63F" unicode="&#xf63f;" horiz-adv-x="529" 
d="M28 27l332 546h-328v94h496l-67 -110l-353 -580z" />
    <glyph glyph-name="uniF640" unicode="&#xf640;" horiz-adv-x="470" 
d="M236 303q-48 0 -79 -31t-31 -81q0 -43 30 -78q32 -34 80 -34t80 34q30 35 30 78q0 50 -31 81t-79 31zM236 588q-44 0 -73 -27q-28 -28 -28 -74q0 -43 27 -70q30 -30 74 -30t74 30q27 27 27 70q0 46 -28 74q-29 27 -73 27zM346 347q45 -19 70 -54q30 -40 30 -100
q0 -87 -53 -142q-58 -62 -157 -62t-157 62q-53 55 -53 142q0 60 30 100q25 35 70 54q-38 16 -59 50q-24 38 -24 91q0 85 56 139q54 51 137 51t137 -51q56 -54 56 -139q0 -53 -24 -91q-21 -34 -59 -50z" />
    <glyph glyph-name="uniF641" unicode="&#xf641;" horiz-adv-x="501" 
d="M190 -23l-74 55l157 201q-15 -4 -36 -4q-94 0 -156 62q-61 61 -61 152q0 99 66 167q68 68 172 68q106 0 172 -66q58 -60 58 -151q0 -65 -32 -127q-22 -45 -81 -119zM253 316q56 0 96 40q39 42 39 99q0 58 -39 95q-40 38 -95 38q-53 0 -95 -38q-39 -39 -39 -98
q0 -60 39 -99q41 -37 94 -37z" />
    <glyph glyph-name="uniF6BA" unicode="&#xf6ba;" horiz-adv-x="340" 
d="M50 288v102h240v-102h-240z" />
    <glyph glyph-name="uniF6BB" unicode="&#xf6bb;" horiz-adv-x="620" 
d="M70 294v90h480v-90h-480z" />
    <glyph glyph-name="uniF6BC" unicode="&#xf6bc;" horiz-adv-x="840" 
d="M70 294v90h700v-90h-700z" />
    <glyph glyph-name="uniF6C3" unicode="&#xf6c3;" 
d="M170 -242l72 192l88 -34l-90 -186z" />
    <glyph glyph-name="uniF6C9" unicode="&#xf6c9;" 
d="M234 727l-48 40l138 139l86 -60z" />
    <glyph glyph-name="uniF6CA" unicode="&#xf6ca;" 
d="M250 838l99 82l66 -56l-165 -134l-165 134l66 56z" />
    <glyph glyph-name="uniF6CB" unicode="&#xf6cb;" 
d="M90 795q0 26 18 44t44 18t44 -18t18 -44t-18 -44t-44 -18t-44 18t-18 44zM286 795q0 26 18 44t44 18t44 -18t18 -44t-18 -44t-44 -18t-44 18t-18 44z" />
    <glyph glyph-name="uniF6CE" unicode="&#xf6ce;" 
d="M266 727l-176 119l86 60l138 -139z" />
    <glyph glyph-name="uniF6CF" unicode="&#xf6cf;" 
d="M232 906l78 -52l-156 -127l-44 36zM432 906l78 -52l-156 -127l-44 36z" />
    <glyph glyph-name="uniF6D0" unicode="&#xf6d0;" 
d="M70 733v80h360v-80h-360z" />
    <glyph glyph-name="uniF6D1" unicode="&#xf6d1;" 
d="M85 832l80 36q6 -19 18.5 -31.5t28 -17t23.5 -6t15 -1.5t15 1.5t23.5 6t28 17t18.5 31.5l80 -36q-24 -56 -70 -79t-95 -23t-95 23t-70 79z" />
    <glyph glyph-name="uniF6D4" unicode="&#xf6d4;" 
d="M88 603l80 23q18 -65 82 -65q62 0 82 65l80 -23q-17 -57 -64.5 -87.5t-97.5 -30.5t-97.5 30.5t-64.5 87.5z" />
    <glyph glyph-name="uniF6DC" unicode="&#xf6dc;" horiz-adv-x="259" 
d="M122 0v573h-116l56 94h162v-667h-102z" />
    <glyph glyph-name="uniF6DE" unicode="&#xf6de;" horiz-adv-x="630" 
d="M52 168v90h525v-90h-525z" />
    <glyph glyph-name="NULL" horiz-adv-x="0" 
 />
    <glyph glyph-name="CR" horiz-adv-x="233" 
 />
    <glyph glyph-name="nbspace" horiz-adv-x="233" 
 />
    <glyph glyph-name="hyphenminus" horiz-adv-x="340" 
d="M50 162v102h240v-102h-240z" />
    <glyph glyph-name="dotlessi1" horiz-adv-x="222" 
d="M62 421h98v-421h-98v421z" />
    </font>
</defs>
</svg>
